<?xml version="1.0" encoding="utf-8"?>
<!-- Generator: Adobe Illustrator 24.3.0, SVG Export Plug-In . SVG Version: 6.00 Build 0)  -->
<svg version="1.1" id="Layer_1" xmlns="http://www.w3.org/2000/svg" xmlns:xlink="http://www.w3.org/1999/xlink" x="0px" y="0px"
	 viewBox="0 0 367.8 120" style="enable-background:new 0 0 367.8 120;" xml:space="preserve">
<style type="text/css">
	.st0{opacity:0.44;}
	.st1{clip-path:url(#SVGID_2_);}
	.st2{clip-path:url(#SVGID_4_);fill:#535488;}
	.st3{fill:#535488;}
	.st4{fill:#D51C5A;}
	.st5{fill:#00355F;}
	.st6{clip-path:url(#SVGID_6_);fill:url(#SVGID_7_);}
	.st7{fill:#4E4E50;}
	.st8{clip-path:url(#SVGID_9_);fill:url(#SVGID_10_);}
	.st9{clip-path:url(#SVGID_12_);fill:url(#SVGID_13_);}
	.st10{clip-path:url(#SVGID_15_);fill:url(#SVGID_16_);}
	.st11{clip-path:url(#SVGID_18_);fill:url(#SVGID_19_);}
	.st12{fill:#D42A2F;}
	.st13{fill:#010101;}
</style>
<g>
	<g>
		<defs>
			<path id="SVGID_17_" d="M80.8,2C48.1,6.4,23,16,1.5,29.1c-0.4,0.2-0.5,0.8-0.3,1.2c0.2,0.4,0.7,0.6,1.1,0.4
				C19.4,23,32.8,19.3,40.9,17.4c24.8-6.2,48.4-7.2,70.4-6.6c67.8,1.9,121.3,27.6,152.9,34.5c4.1,0.9,14.4-8.4,11.4-9.2
				C237,26.5,185.3-0.3,115.9-0.3C104.7-0.3,93,0.4,80.8,2"/>
		</defs>
		<clipPath id="SVGID_2_">
			<use xlink:href="#SVGID_17_"  style="overflow:visible;"/>
		</clipPath>
		
			<linearGradient id="SVGID_4_" gradientUnits="userSpaceOnUse" x1="-980.1231" y1="357.7411" x2="-978.9861" y2="357.7411" gradientTransform="matrix(267.771 7.3641 7.3641 -267.771 259815.5 103029.5547)">
			<stop  offset="0" style="stop-color:#0A9C52"/>
			<stop  offset="0.1749" style="stop-color:#0D9664"/>
			<stop  offset="0.5" style="stop-color:#118C82"/>
			<stop  offset="1" style="stop-color:#0A796E"/>
		</linearGradient>
		<polygon style="clip-path:url(#SVGID_2_);fill:url(#SVGID_4_);" points="1.2,-7.9 279.9,-0.2 278.4,53.8 -0.3,46.2 		"/>
	</g>
	<path class="st12" d="M367.8,19.3c-0.1-0.2-0.3-0.3-0.5-0.2c-16.4,6.5-31.5,8-48.9,6.8c-30.1-2.1-53.5-14.6-67.4-18.3
		c-4.1-1.1-15.9,7.5-13.6,8.2c19.7,5.9,46.9,22.3,86,18.9c19.6-1.8,30.2-7.2,44.1-14.9C367.8,19.7,367.9,19.5,367.8,19.3"/>
	<path class="st12" d="M294.1,40c-3-0.5-5.8-1.3-7.8-1.4c-3.1-0.2-11.2,9.1-9,9.9c1.1,0.4,5.8,1.3,8,1.4
		C288.2,50.2,296.9,40.5,294.1,40"/>
	<path class="st13" d="M5.9,103.7l7.3-8.7c0.1-0.2,0.2-0.4,0.1-0.5c0-0.1-0.2-0.2-0.4-0.2h-1.7L4.5,102c-0.3,0.3-0.5,0.6-0.7,0.8
		c-0.2,0.2-0.2,0.5-0.2,0.8c0,0.3,0.1,0.6,0.2,0.8c0.1,0.2,0.3,0.4,0.6,0.7l7.9,8.2h1.9c0.3,0,0.5-0.1,0.5-0.2c0-0.1,0-0.3-0.2-0.4
		C14.5,112.6,11.7,109.6,5.9,103.7"/>
	<path class="st13" d="M1.6,94.4c-0.1,0.1-0.2,0.2-0.2,0.5v18.4h2.2v-19H2C1.8,94.3,1.7,94.3,1.6,94.4"/>
	<path class="st13" d="M19.5,99c0.4,0,0.7-0.1,1-0.4c0.3-0.3,0.4-0.6,0.4-1c0-0.4-0.1-0.8-0.4-1c-0.3-0.2-0.6-0.4-1-0.4
		c-0.4,0-0.7,0.1-1,0.4c-0.3,0.2-0.4,0.6-0.4,1c0,0.4,0.1,0.8,0.4,1C18.8,98.9,19.2,99,19.5,99"/>
	<path class="st13" d="M21.9,111.1h-0.4c-0.1,0-0.3,0-0.4-0.1c-0.1,0-0.2-0.1-0.3-0.2c-0.1-0.1-0.1-0.2-0.1-0.5v-9
		c0-0.3,0-0.4-0.1-0.5c-0.1-0.1-0.3-0.1-0.5-0.1h-1.6v9.7c0,0.5,0.1,1,0.2,1.3c0.1,0.4,0.3,0.6,0.5,0.9c0.2,0.2,0.5,0.4,0.7,0.5
		c0.3,0.1,0.5,0.1,0.8,0.1h1.7v-1.6c0-0.2,0-0.3-0.1-0.4C22.2,111.2,22.1,111.1,21.9,111.1"/>
	<path class="st13" d="M36.4,103.2c-0.1-0.3-0.2-0.5-0.4-0.8c-0.2-0.3-0.4-0.5-0.7-0.8c-0.3-0.3-0.7-0.5-1.2-0.6
		c-0.5-0.1-1.2-0.2-2.3-0.2c-0.9,0-1.8,0.1-2.5,0.2c-0.7,0.2-1.4,0.3-2,0.5c-0.6,0.2-1.1,0.4-1.6,0.7v11h1.6c0.2,0,0.4-0.1,0.5-0.2
		c0.1-0.1,0.2-0.3,0.2-0.5v-9.3c0.4-0.2,0.9-0.3,1.5-0.4c0.6-0.1,1.2-0.2,1.8-0.2c0.4,0,0.8,0,1.2,0.1c0.4,0,0.7,0.2,0.9,0.3
		c0.3,0.2,0.5,0.4,0.6,0.7c0.2,0.3,0.2,0.7,0.2,1.3v8.3h1.7c0.2,0,0.3-0.1,0.4-0.2c0.1-0.1,0.1-0.3,0.1-0.5v-7.4
		c0-0.4,0-0.7-0.1-1.1C36.6,103.8,36.5,103.5,36.4,103.2"/>
	<path class="st13" d="M48.6,100.8c-0.7-0.2-1.4-0.2-2.1-0.2c-0.9,0-1.6,0.1-2.3,0.3c-0.6,0.2-1.2,0.5-1.6,0.9
		c-0.4,0.4-0.8,0.8-1.1,1.3c-0.3,0.5-0.5,0.9-0.7,1.4c-0.2,0.5-0.3,0.9-0.3,1.4c-0.1,0.4-0.1,0.8-0.1,1.1c0,1.4,0.2,2.5,0.6,3.3
		c0.4,0.8,0.9,1.4,1.5,1.9c0.6,0.4,1.3,0.7,2,0.9c0.7,0.1,1.4,0.2,2,0.2c0.8,0,1.5-0.1,2-0.2c0.5-0.1,0.9-0.3,1.3-0.4v1
		c0,0.4,0,0.9-0.1,1.2c-0.1,0.4-0.2,0.7-0.5,1c-0.3,0.3-0.7,0.5-1.2,0.7c-0.5,0.2-1.2,0.3-2.1,0.3c-0.5,0-0.9,0-1.2-0.1
		c-0.4,0-0.7-0.1-1-0.2c-0.3-0.1-0.6-0.1-0.8-0.2l-0.3,1.4c-0.1,0.3,0,0.5,0.1,0.6c0.2,0.1,0.4,0.2,0.8,0.3c0.4,0.1,0.8,0.2,1.2,0.2
		c0.4,0,0.9,0.1,1.2,0.1c2,0,3.6-0.5,4.6-1.4c1-0.9,1.5-2.4,1.5-4.4v-11.3c-0.5-0.3-1-0.5-1.6-0.7C49.9,101.2,49.2,101,48.6,100.8
		 M49.7,110.8c-0.3,0.1-0.6,0.2-1.1,0.3c-0.5,0.1-1.1,0.2-1.9,0.2c-0.7,0-1.4-0.1-1.9-0.3c-0.5-0.2-0.9-0.5-1.2-0.9
		c-0.3-0.4-0.5-0.9-0.6-1.4c-0.1-0.5-0.2-1.1-0.2-1.8c0-1.6,0.3-2.7,1-3.4c0.7-0.7,1.7-1,3.1-1c0.6,0,1.2,0,1.6,0.1
		c0.4,0.1,0.9,0.2,1.3,0.4V110.8z"/>
	<path class="st13" d="M62.2,113.3h1.5c0.2,0,0.4,0,0.5-0.1c0.1-0.1,0.2-0.2,0.2-0.5v-8.3h6.3c0.2,0,0.4,0,0.5-0.1
		c0.1-0.1,0.2-0.2,0.2-0.5v-1.6h-6.9v-5.8h9.2c0.3,0,0.4-0.1,0.5-0.2c0.1-0.1,0.1-0.3,0.1-0.5v-1.5h-12V113.3z"/>
	<path class="st13" d="M84.8,101.5c-0.5-0.3-1-0.5-1.7-0.7c-0.6-0.1-1.3-0.2-2-0.2c-0.7,0-1.2,0-1.7,0.1c-0.5,0.1-0.9,0.1-1.4,0.2
		c-0.4,0.1-0.8,0.2-1.2,0.3v1.6c0,0.4,0.2,0.5,0.6,0.4c0.4-0.1,0.9-0.2,1.6-0.4c0.6-0.1,1.3-0.2,2.1-0.2c0.6,0,1.1,0.1,1.5,0.2
		c0.4,0.1,0.7,0.2,1,0.4c0.2,0.2,0.4,0.4,0.5,0.6c0.1,0.2,0.2,0.4,0.2,0.6v1.1c-0.3,0-0.7,0.1-1.3,0.1c-0.6,0.1-1.5,0.2-2.8,0.3
		c-1.3,0.2-2.4,0.5-3.2,1.1c-0.8,0.6-1.2,1.4-1.2,2.4c0,0.7,0.2,1.4,0.5,1.9c0.3,0.5,0.7,1,1.2,1.3c0.5,0.3,1,0.5,1.6,0.7
		c0.6,0.1,1.3,0.2,2.1,0.2c0.9,0,1.6-0.1,2.3-0.2c0.7-0.1,1.2-0.3,1.7-0.5c0.5-0.2,0.9-0.4,1.3-0.6v-7.6c0-0.8-0.1-1.5-0.4-2
		C85.7,102.2,85.3,101.8,84.8,101.5 M84.2,111.1c-0.3,0.2-0.7,0.3-1.2,0.4c-0.5,0.1-1.1,0.1-2,0.1c-1,0-1.7-0.2-2.3-0.5
		c-0.6-0.3-0.8-0.8-0.8-1.3c0-0.6,0.3-0.9,0.9-1.2c0.6-0.2,1.2-0.4,1.9-0.4c0.7-0.1,1.2-0.1,1.6-0.2c0.4,0,0.7-0.1,1-0.1
		c0.3,0,0.6-0.1,0.9-0.1V111.1z"/>
	<path class="st13" d="M96.6,100.8c-0.6,0-1.2,0.1-1.8,0.2c-0.6,0.1-1.2,0.4-1.7,0.6v-6.6c0-0.5-0.3-0.7-0.8-0.7h-1.5v18.9h1.7
		c0.2,0,0.3-0.1,0.4-0.2c0.1-0.1,0.1-0.3,0.1-0.5v-9.3c1-0.5,2.2-0.7,3.5-0.7c1.7,0,2.5,0.7,2.5,2.2v8.5h1.7c0.2,0,0.3-0.1,0.4-0.2
		c0.1-0.1,0.1-0.3,0.1-0.5v-7.8c0-1.3-0.4-2.3-1.1-3C99.5,101.2,98.3,100.8,96.6,100.8"/>
	<path class="st13" d="M115.8,94.3h-1.3v7.1c-0.6-0.2-1.1-0.4-1.8-0.5c-0.6-0.1-1.2-0.1-1.8-0.1c-1.3,0-2.3,0.2-3.1,0.7
		c-0.8,0.5-1.3,1-1.7,1.7c-0.4,0.7-0.6,1.3-0.7,2c-0.1,0.7-0.1,1.3-0.1,1.7c0,0.9,0.1,1.7,0.3,2.5c0.2,0.8,0.5,1.5,0.9,2.1
		c0.4,0.6,1.1,1.1,2,1.4c0.9,0.3,1.9,0.5,3,0.5c0.8,0,1.5-0.1,2.2-0.2c0.6-0.1,1.2-0.3,1.7-0.5c0.6-0.2,1.1-0.4,1.5-0.7V95.3
		c0-0.3-0.1-0.6-0.2-0.7C116.4,94.4,116.2,94.3,115.8,94.3 M114.5,111.1c-0.3,0.1-0.6,0.2-1.1,0.3c-0.5,0.1-1.1,0.2-2,0.2
		c-0.8,0-1.5-0.1-2-0.4c-0.5-0.2-0.9-0.6-1.2-1c-0.3-0.4-0.5-0.9-0.6-1.5c-0.1-0.6-0.2-1.2-0.2-1.9c0-0.9,0.1-1.7,0.3-2.2
		c0.2-0.6,0.5-1,0.9-1.3c0.4-0.3,0.8-0.5,1.2-0.7c0.4-0.1,0.8-0.2,1.2-0.2c0.4,0,0.8,0,1.1,0c0.3,0,0.6,0.1,0.9,0.1
		c0.3,0.1,0.5,0.1,0.7,0.2c0.2,0.1,0.5,0.2,0.7,0.3V111.1z"/>
	<path class="st13" d="M137.3,94.2c-0.7-0.1-1.5-0.2-2.4-0.2c-1.6,0-2.8,0.3-3.8,0.8c-1,0.5-1.8,1.2-2.5,2.1
		c-0.6,0.9-1.1,1.9-1.3,3.1c-0.2,1.2-0.4,2.4-0.4,3.7c0,1.3,0.1,2.6,0.4,3.8c0.2,1.2,0.7,2.2,1.3,3.1c0.6,0.9,1.5,1.6,2.5,2.1
		c1,0.5,2.3,0.8,3.8,0.8c1,0,1.8-0.1,2.4-0.2c0.7-0.1,1.2-0.2,1.6-0.4c0.5-0.2,0.9-0.3,1.3-0.5V111c0-0.4-0.2-0.6-0.6-0.5
		c-0.3,0.1-0.5,0.1-0.8,0.2c-0.2,0.1-0.5,0.2-0.9,0.3c-0.3,0.1-0.7,0.2-1.2,0.2c-0.4,0.1-1,0.1-1.6,0.1c-2.1,0-3.7-0.7-4.7-2
		c-1-1.3-1.5-3.3-1.5-5.8c0-1.1,0.1-2.1,0.3-3c0.2-0.9,0.5-1.7,1-2.3c0.5-0.6,1-1.1,1.7-1.5c0.7-0.4,1.5-0.6,2.5-0.6
		c1.4,0,2.5,0.1,3.3,0.4c0.8,0.2,1.4,0.4,1.8,0.6c0.4,0.1,0.5,0,0.5-0.4V95c-0.4-0.2-0.8-0.3-1.3-0.5
		C138.6,94.4,138,94.3,137.3,94.2"/>
	<path class="st13" d="M152.4,101.5c-0.5-0.3-1-0.5-1.7-0.7c-0.6-0.1-1.3-0.2-2-0.2c-0.7,0-1.2,0-1.7,0.1c-0.5,0.1-0.9,0.1-1.4,0.2
		c-0.4,0.1-0.8,0.2-1.2,0.3v1.6c0,0.4,0.2,0.5,0.6,0.4c0.4-0.1,0.9-0.2,1.6-0.4c0.6-0.1,1.3-0.2,2.1-0.2c0.6,0,1.1,0.1,1.5,0.2
		c0.4,0.1,0.7,0.2,1,0.4c0.2,0.2,0.4,0.4,0.5,0.6c0.1,0.2,0.2,0.4,0.2,0.6v1.1c-0.3,0-0.7,0.1-1.3,0.1c-0.6,0.1-1.5,0.2-2.8,0.3
		c-1.3,0.2-2.4,0.5-3.2,1.1c-0.8,0.6-1.2,1.4-1.2,2.4c0,0.7,0.2,1.4,0.5,1.9c0.3,0.5,0.7,1,1.2,1.3c0.5,0.3,1,0.5,1.6,0.7
		c0.6,0.1,1.3,0.2,2.1,0.2c0.9,0,1.6-0.1,2.3-0.2c0.7-0.1,1.2-0.3,1.7-0.5c0.5-0.2,0.9-0.4,1.3-0.6v-7.6c0-0.8-0.1-1.5-0.4-2
		C153.2,102.2,152.8,101.8,152.4,101.5 M151.8,111.1c-0.3,0.2-0.7,0.3-1.2,0.4c-0.5,0.1-1.1,0.1-2,0.1c-1,0-1.7-0.2-2.3-0.5
		c-0.6-0.3-0.8-0.8-0.8-1.3c0-0.6,0.3-0.9,0.9-1.2c0.6-0.2,1.2-0.4,1.9-0.4c0.7-0.1,1.2-0.1,1.6-0.2c0.4,0,0.7-0.1,1-0.1
		c0.3,0,0.6-0.1,0.9-0.1V111.1z"/>
	<path class="st13" d="M166.3,101c-0.1,0.1-0.2,0.3-0.2,0.5v9.1c-0.5,0.2-1,0.4-1.5,0.5c-0.5,0.1-1.2,0.2-2,0.2
		c-0.9,0-1.6-0.2-2.1-0.7c-0.5-0.4-0.8-1-0.8-1.8v-8.1h-1.7c-0.2,0-0.3,0.1-0.4,0.2c-0.1,0.1-0.1,0.3-0.1,0.5v7.4
		c0,0.5,0.1,1.1,0.3,1.6c0.2,0.5,0.5,1,0.8,1.5c0.4,0.4,0.9,0.8,1.6,1.1c0.7,0.3,1.5,0.4,2.4,0.4c0.9,0,1.7-0.1,2.4-0.2
		c0.7-0.1,1.3-0.3,1.8-0.5c0.5-0.2,1-0.4,1.4-0.7v-11.2h-1.6C166.5,100.8,166.4,100.9,166.3,101"/>
	<path class="st13" d="M180.9,106.8c-0.4-0.3-0.9-0.6-1.5-0.7c-0.6-0.2-1.4-0.3-2.4-0.4c-1-0.1-1.7-0.2-2.2-0.4
		c-0.5-0.2-0.7-0.5-0.7-1.1c0-0.2,0-0.4,0.1-0.6c0-0.2,0.2-0.4,0.3-0.5c0.2-0.2,0.5-0.3,0.9-0.4c0.4-0.1,0.9-0.1,1.6-0.1
		c0.8,0,1.5,0,2,0.1c0.6,0.1,1,0.2,1.2,0.3c0.2,0.1,0.4,0.1,0.5,0c0.1-0.1,0.2-0.3,0.2-0.4l0.2-1.2c-0.3-0.1-0.7-0.2-1.1-0.3
		c-0.4-0.1-0.8-0.2-1.3-0.2c-0.5-0.1-1.1-0.1-1.7-0.1c-1,0-1.8,0.1-2.5,0.3c-0.7,0.2-1.2,0.5-1.6,0.9c-0.4,0.4-0.7,0.8-0.9,1.2
		c-0.2,0.4-0.3,0.9-0.3,1.3c0,0.4,0,0.8,0.2,1.2c0.1,0.4,0.4,0.7,0.8,1c0.4,0.3,0.9,0.5,1.5,0.7c0.6,0.2,1.4,0.3,2.2,0.4
		c0.8,0.1,1.4,0.2,1.8,0.3c0.4,0.1,0.7,0.2,0.9,0.4c0.2,0.2,0.3,0.3,0.4,0.5c0,0.2,0.1,0.4,0.1,0.7c0,0.3,0,0.5-0.1,0.7
		c-0.1,0.2-0.3,0.4-0.5,0.5c-0.2,0.2-0.6,0.3-1,0.4c-0.4,0.1-1,0.1-1.7,0.1c-0.9,0-1.6-0.1-2.2-0.2c-0.6-0.1-1.1-0.2-1.5-0.3
		c-0.2,0-0.3,0-0.3,0c-0.1,0-0.1,0.1-0.2,0.2c0,0.1-0.1,0.2-0.1,0.3v1.4c0.4,0.1,0.7,0.2,1.2,0.3c0.4,0.1,0.9,0.2,1.4,0.2
		c0.5,0.1,1,0.1,1.7,0.1c1.1,0,1.9-0.1,2.7-0.3c0.7-0.2,1.3-0.5,1.7-0.9c0.4-0.4,0.8-0.8,0.9-1.2s0.3-0.9,0.3-1.4
		c0-0.5-0.1-1-0.2-1.5C181.5,107.6,181.3,107.2,180.9,106.8"/>
	<path class="st13" d="M194.3,101.6c-0.5-0.3-1-0.6-1.6-0.7c-0.6-0.2-1.1-0.2-1.6-0.2c-0.5,0-1,0.1-1.7,0.2c-0.7,0.2-1.3,0.5-1.9,1
		s-1.1,1.2-1.6,2.1c-0.4,0.9-0.7,2.1-0.7,3.7c0,1.3,0.2,2.3,0.6,3.1c0.4,0.8,0.9,1.4,1.6,1.8c0.6,0.4,1.3,0.7,2,0.8
		c0.7,0.1,1.3,0.2,1.9,0.2c0.5,0,1,0,1.4-0.1c0.5-0.1,0.9-0.2,1.3-0.3c0.4-0.1,0.7-0.2,1.1-0.4v-1.3c0-0.2-0.1-0.4-0.2-0.4
		c-0.2,0-0.3,0-0.5,0c-0.2,0.1-0.3,0.1-0.5,0.2c-0.2,0-0.4,0.1-0.6,0.1c-0.2,0-0.5,0.1-0.8,0.1c-0.3,0-0.7,0.1-1.1,0.1
		c-1,0-1.9-0.2-2.6-0.7c-0.7-0.4-1.2-1.2-1.3-2.3h4.4c0.6,0,1.2-0.1,1.7-0.2c0.5-0.1,1-0.3,1.3-0.6c0.4-0.3,0.7-0.7,0.9-1.1
		c0.2-0.4,0.3-1,0.3-1.7c0-0.8-0.2-1.5-0.5-2C195.2,102.4,194.8,101.9,194.3,101.6 M193.3,106.2c-0.4,0.2-1.2,0.3-2.3,0.3h-3.5
		c0-0.5,0.1-1,0.2-1.5c0.1-0.5,0.3-0.9,0.6-1.3c0.3-0.4,0.7-0.7,1.1-1c0.5-0.2,1-0.4,1.7-0.4c0.9,0,1.5,0.2,2.1,0.7
		c0.5,0.4,0.8,1.1,0.8,1.9C193.9,105.6,193.7,106,193.3,106.2"/>
	<path class="st13" d="M217.6,100.8h-1.8l-3.5,10.3c0,0-2-5.8-2.9-8.4H207l-2.9,8.4l-3.5-10.3h-1.8c-0.3,0-0.4,0.1-0.4,0.2
		c0,0.1,0,0.3,0.1,0.5l3.8,10.2c0.2,0.5,0.4,0.8,0.6,1.1c0.2,0.2,0.4,0.4,0.6,0.5c0.2,0.1,0.5,0.2,0.8,0.2s0.6-0.1,0.8-0.2
		c0.2-0.1,0.4-0.3,0.6-0.5c0.2-0.2,0.4-0.6,0.6-1.1l2.1-5.7l2.1,5.7c0.2,0.5,0.4,0.8,0.6,1.1c0.2,0.2,0.4,0.4,0.6,0.5
		c0.2,0.1,0.5,0.2,0.8,0.2c0.3,0,0.6-0.1,0.8-0.2c0.2-0.1,0.4-0.3,0.6-0.5c0.2-0.2,0.4-0.6,0.6-1.1l3.8-10.2
		c0.1-0.2,0.1-0.4,0.1-0.5C218,100.9,217.8,100.8,217.6,100.8"/>
	<path class="st13" d="M229,101.5c-0.5-0.3-1-0.5-1.7-0.7c-0.6-0.1-1.3-0.2-2-0.2c-0.7,0-1.2,0-1.7,0.1c-0.5,0.1-0.9,0.1-1.4,0.2
		c-0.4,0.1-0.8,0.2-1.2,0.3v1.6c0,0.4,0.2,0.5,0.6,0.4c0.4-0.1,0.9-0.2,1.6-0.4c0.6-0.1,1.3-0.2,2.1-0.2c0.6,0,1.1,0.1,1.5,0.2
		c0.4,0.1,0.7,0.2,1,0.4c0.2,0.2,0.4,0.4,0.5,0.6c0.1,0.2,0.2,0.4,0.2,0.6v1.1c-0.3,0-0.7,0.1-1.3,0.1c-0.6,0.1-1.5,0.2-2.8,0.3
		c-1.3,0.2-2.4,0.5-3.2,1.1c-0.8,0.6-1.2,1.4-1.2,2.4c0,0.7,0.2,1.4,0.5,1.9c0.3,0.5,0.7,1,1.2,1.3c0.5,0.3,1,0.5,1.6,0.7
		c0.6,0.1,1.3,0.2,2.1,0.2c0.9,0,1.6-0.1,2.3-0.2c0.7-0.1,1.2-0.3,1.7-0.5c0.5-0.2,0.9-0.4,1.3-0.6v-7.6c0-0.8-0.1-1.5-0.4-2
		C229.9,102.2,229.5,101.8,229,101.5 M228.5,111.1c-0.3,0.2-0.7,0.3-1.2,0.4c-0.5,0.1-1.1,0.1-2,0.1c-1,0-1.7-0.2-2.3-0.5
		c-0.6-0.3-0.8-0.8-0.8-1.3c0-0.6,0.3-0.9,0.9-1.2c0.6-0.2,1.2-0.4,1.9-0.4c0.7-0.1,1.2-0.1,1.6-0.2c0.4,0,0.7-0.1,1-0.1
		c0.3,0,0.6-0.1,0.9-0.1V111.1z"/>
	<path class="st13" d="M246.6,100.8h-2.1l-3.8,10.8l-4.5-10.8h-1.9c-0.2,0-0.4,0.1-0.4,0.2c0,0.1,0,0.2,0,0.4c0,0,0.1,0.3,0.4,0.8
		c0.2,0.5,0.5,1.1,0.8,1.9c0.3,0.7,0.7,1.6,1.1,2.5c0.4,0.9,0.8,1.8,1.1,2.6c0.4,0.8,0.7,1.6,1,2.3c0.3,0.7,0.5,1.2,0.6,1.5
		c0.2,0.2,0.3,0.4,0.6,0.4h0.7c-0.4,1.1-0.7,1.8-0.9,2.1c-0.2,0.3-0.4,0.6-0.5,0.8c-0.2,0.2-0.4,0.4-0.6,0.7
		c-0.2,0.2-0.5,0.4-0.8,0.5c-0.3,0.1-0.6,0.2-1,0.2c-0.3,0-0.7,0-1-0.1c-0.3-0.1-0.6-0.1-0.8-0.1l-0.3,1.5c0,0.2,0,0.4,0,0.5
		c0.1,0.1,0.2,0.2,0.5,0.3c0.4,0.1,0.9,0.1,1.4,0.1c0.9,0,1.6-0.1,2.3-0.4c0.6-0.3,1.2-0.7,1.6-1.3c0.5-0.6,0.9-1.3,1.3-2.2
		c0.4-0.9,0.8-2,1.3-3.3c0.4-1.1,1-2.8,1.9-5.2c0.9-2.3,1.5-3.9,1.8-4.7c0.3-0.8,0.5-1.2,0.5-1.4c0.1-0.2,0.1-0.4,0-0.4
		C246.9,100.9,246.8,100.8,246.6,100.8"/>
	<path class="st13" d="M262.8,95.3c-0.1-0.3-0.2-0.5-0.3-0.7s-0.3-0.3-0.4-0.4c-0.2-0.1-0.4-0.2-0.6-0.2c-0.2,0-0.5,0.1-0.7,0.2
		c-0.2,0.1-0.3,0.3-0.4,0.4s-0.2,0.4-0.3,0.7l-6.6,17.4c-0.1,0.2-0.1,0.3,0,0.4c0,0.1,0.2,0.2,0.4,0.2h1.8l1.7-4.8h8l1.7,4.8h1.7
		c0.3,0,0.4-0.1,0.5-0.2c0.1-0.1,0.1-0.3,0-0.4L262.8,95.3z M258.2,106.3l3.2-9.1l3.2,9.1H258.2z"/>
	<path class="st13" d="M281.5,101c-0.1,0.1-0.2,0.3-0.2,0.5v9.1c-0.5,0.2-1,0.4-1.5,0.5c-0.5,0.1-1.2,0.2-2,0.2
		c-0.9,0-1.6-0.2-2.1-0.7c-0.5-0.4-0.8-1-0.8-1.8v-8.1h-1.7c-0.2,0-0.3,0.1-0.4,0.2c-0.1,0.1-0.1,0.3-0.1,0.5v7.4
		c0,0.5,0.1,1.1,0.3,1.6c0.2,0.5,0.5,1,0.8,1.5c0.4,0.4,0.9,0.8,1.6,1.1c0.7,0.3,1.5,0.4,2.4,0.4c0.9,0,1.7-0.1,2.4-0.2
		c0.7-0.1,1.3-0.3,1.8-0.5c0.5-0.2,1-0.4,1.4-0.7v-11.2h-1.6C281.8,100.8,281.6,100.9,281.5,101"/>
	<path class="st13" d="M293.7,111.2c-0.1,0-0.4,0.1-0.7,0.1c-0.4,0.1-0.7,0.1-0.9,0.1c-0.9,0-1.4-0.1-1.8-0.4
		c-0.3-0.2-0.5-0.7-0.5-1.4V103h3.3c0.2,0,0.3-0.1,0.4-0.2c0.1-0.1,0.1-0.3,0.1-0.5v-1.5h-3.8v-3.5c0-0.2,0-0.3-0.1-0.4
		c-0.1-0.1-0.1-0.1-0.2-0.1c-0.1,0-0.1,0-0.2,0l-1.7,0.4v12.6c0,0.7,0.1,1.2,0.4,1.7c0.2,0.5,0.6,0.8,0.9,1.1
		c0.4,0.3,0.8,0.5,1.2,0.6c0.5,0.1,0.9,0.2,1.3,0.2c0.7,0,1.3-0.1,1.8-0.2c0.5-0.1,0.8-0.2,0.9-0.3v-1.3c0-0.2,0-0.3-0.1-0.4
		C294,111.2,293.9,111.2,293.7,111.2"/>
	<path class="st13" d="M303.1,100.8c-0.6,0-1.2,0.1-1.8,0.2c-0.6,0.1-1.2,0.4-1.7,0.6v-6.6c0-0.5-0.3-0.7-0.8-0.7h-1.5v18.9h1.7
		c0.2,0,0.3-0.1,0.4-0.2c0.1-0.1,0.1-0.3,0.1-0.5v-9.3c1-0.5,2.2-0.7,3.5-0.7c1.7,0,2.5,0.7,2.5,2.2v8.5h1.7c0.2,0,0.3-0.1,0.4-0.2
		c0.1-0.1,0.1-0.3,0.1-0.5v-7.8c0-1.3-0.4-2.3-1.1-3C306,101.2,304.8,100.8,303.1,100.8"/>
	<path class="st13" d="M316.9,100.6c-1.1,0-2,0.2-2.7,0.5c-0.7,0.3-1.3,0.7-1.8,1.3c-0.5,0.6-0.8,1.2-1,2c-0.2,0.8-0.3,1.7-0.3,2.6
		c0,2.1,0.5,3.7,1.4,4.8c0.9,1.1,2.4,1.6,4.5,1.6c1.1,0,2-0.2,2.7-0.5c0.7-0.3,1.3-0.7,1.8-1.3c0.5-0.5,0.8-1.2,1-2
		c0.2-0.8,0.3-1.7,0.3-2.7c0-2.1-0.5-3.7-1.4-4.8C320.5,101.2,319,100.6,316.9,100.6 M320.4,109c-0.1,0.6-0.3,1-0.5,1.4
		c-0.3,0.4-0.6,0.7-1.1,0.9c-0.5,0.2-1.1,0.3-1.8,0.3c-0.8,0-1.4-0.2-1.9-0.4c-0.5-0.2-0.8-0.5-1.1-0.9c-0.2-0.4-0.4-0.9-0.5-1.4
		c-0.1-0.6-0.1-1.2-0.1-1.9c0-0.8,0.1-1.5,0.2-2c0.1-0.6,0.3-1.1,0.6-1.4c0.3-0.4,0.6-0.7,1.1-0.9c0.5-0.2,1-0.3,1.8-0.3
		c0.8,0,1.4,0.1,1.9,0.4c0.5,0.2,0.8,0.6,1.1,1c0.3,0.4,0.4,0.9,0.5,1.5c0.1,0.6,0.1,1.2,0.1,1.8C320.5,107.8,320.5,108.4,320.4,109
		"/>
	<path class="st13" d="M334.8,101.4c-0.2-0.1-0.5-0.2-0.8-0.2c-0.4-0.1-0.8-0.2-1.2-0.2c-0.5,0-1-0.1-1.5-0.1
		c-0.9,0-1.6,0.1-2.3,0.4c-0.6,0.2-1.2,0.5-1.6,0.9c-0.4,0.4-0.7,0.7-0.9,1.2c-0.2,0.4-0.3,0.8-0.3,1.2v8.8h1.5
		c0.3,0,0.5-0.1,0.6-0.2c0.1-0.1,0.2-0.3,0.2-0.5v-7.7c0-0.2,0-0.4,0.1-0.6c0.1-0.2,0.2-0.4,0.5-0.6c0.2-0.2,0.5-0.4,0.9-0.5
		c0.4-0.1,0.9-0.2,1.5-0.2c0.5,0,1,0,1.4,0.1c0.4,0.1,0.8,0.1,1.1,0.2c0.3,0.1,0.6,0.1,0.8,0.2c0.1-0.3,0.2-0.6,0.3-1
		c0.1-0.3,0.1-0.5,0.1-0.7C335.1,101.6,335,101.4,334.8,101.4"/>
	<path class="st13" d="M339.2,99c0.4,0,0.7-0.1,1-0.4c0.3-0.3,0.4-0.6,0.4-1c0-0.4-0.1-0.8-0.4-1c-0.3-0.2-0.6-0.4-1-0.4
		c-0.4,0-0.7,0.1-1,0.4c-0.3,0.2-0.4,0.6-0.4,1c0,0.4,0.1,0.8,0.4,1C338.5,98.9,338.8,99,339.2,99"/>
	<path class="st13" d="M341.6,111.1h-0.4c-0.1,0-0.3,0-0.4-0.1c-0.1,0-0.2-0.1-0.3-0.2c-0.1-0.1-0.1-0.2-0.1-0.5v-9
		c0-0.3,0-0.4-0.1-0.5c-0.1-0.1-0.3-0.1-0.5-0.1h-1.6v9.7c0,0.5,0.1,1,0.2,1.3c0.1,0.4,0.3,0.6,0.5,0.9c0.2,0.2,0.5,0.4,0.7,0.5
		c0.3,0.1,0.5,0.1,0.8,0.1h1.7v-1.6c0-0.2,0-0.3-0.1-0.4C341.9,111.2,341.7,111.1,341.6,111.1"/>
	<path class="st13" d="M351,111.2c-0.1,0-0.4,0.1-0.7,0.1c-0.4,0.1-0.7,0.1-0.9,0.1c-0.9,0-1.4-0.1-1.8-0.4
		c-0.3-0.2-0.5-0.7-0.5-1.4V103h3.3c0.2,0,0.3-0.1,0.4-0.2c0.1-0.1,0.1-0.3,0.1-0.5v-1.5h-3.8v-3.5c0-0.2,0-0.3-0.1-0.4
		c-0.1-0.1-0.1-0.1-0.2-0.1c-0.1,0-0.1,0-0.2,0l-1.7,0.4v12.6c0,0.7,0.1,1.2,0.4,1.7c0.2,0.5,0.6,0.8,0.9,1.1
		c0.4,0.3,0.8,0.5,1.2,0.6c0.5,0.1,0.9,0.2,1.3,0.2c0.7,0,1.3-0.1,1.8-0.2c0.5-0.1,0.8-0.2,0.9-0.3v-1.3c0-0.2,0-0.3-0.1-0.4
		C351.3,111.2,351.2,111.2,351,111.2"/>
	<path class="st13" d="M367,100.8h-2.1l-3.8,10.8l-4.5-10.8h-1.9c-0.2,0-0.4,0.1-0.4,0.2c0,0.1,0,0.2,0,0.4c0,0,0.1,0.3,0.4,0.8
		c0.2,0.5,0.5,1.1,0.8,1.9c0.3,0.7,0.7,1.6,1.1,2.5c0.4,0.9,0.8,1.8,1.1,2.6c0.4,0.8,0.7,1.6,1,2.3c0.3,0.7,0.5,1.2,0.6,1.5
		c0.2,0.2,0.3,0.4,0.6,0.4h0.7c-0.4,1.1-0.7,1.8-0.9,2.1c-0.2,0.3-0.4,0.6-0.5,0.8c-0.2,0.2-0.4,0.4-0.6,0.7
		c-0.2,0.2-0.5,0.4-0.8,0.5c-0.3,0.1-0.6,0.2-1,0.2c-0.3,0-0.7,0-1-0.1c-0.3-0.1-0.6-0.1-0.8-0.1l-0.3,1.5c0,0.2,0,0.4,0,0.5
		c0.1,0.1,0.2,0.2,0.5,0.3c0.4,0.1,0.9,0.1,1.4,0.1c0.9,0,1.6-0.1,2.3-0.4c0.6-0.3,1.2-0.7,1.6-1.3c0.5-0.6,0.9-1.3,1.3-2.2
		c0.4-0.9,0.8-2,1.3-3.3c0.4-1.1,1-2.8,1.9-5.2c0.9-2.3,1.5-3.9,1.8-4.7c0.3-0.8,0.5-1.2,0.5-1.4c0.1-0.2,0.1-0.4,0-0.4
		C367.3,100.9,367.2,100.8,367,100.8"/>
	<path class="st13" d="M46,83.5c1,0,1.9-0.1,2.6-0.4c0.7-0.3,1.2-0.6,1.6-1c0.4-0.4,0.7-0.9,0.8-1.5c0.2-0.6,0.2-1.1,0.2-1.8v-7.2
		c-0.5-0.2-1-0.4-1.5-0.5c-0.5-0.2-1-0.3-1.6-0.4c-0.6-0.1-1.1-0.2-1.6-0.2c-1,0-1.9,0.1-2.6,0.3c-0.7,0.2-1.3,0.5-1.7,0.9
		c-0.4,0.4-0.8,0.9-1,1.5c-0.2,0.6-0.3,1.2-0.3,2c0,0.7,0.1,1.4,0.3,2c0.2,0.6,0.5,1.1,0.9,1.5c0.4,0.4,0.9,0.7,1.6,0.9
		c0.6,0.2,1.4,0.3,2.4,0.3c0.6,0,1.2-0.1,1.7-0.2c0.6-0.1,1-0.3,1.3-0.4c0,0.8-0.3,1.3-0.9,1.6c-0.6,0.3-1.4,0.4-2.3,0.4h-8.6
		l-2.6,0c0-0.2,0-0.3,0-0.5v-2c0-1.3-0.2-2.4-0.5-3.3c-0.4-0.9-0.9-1.6-1.6-2.2c-0.7-0.5-1.6-0.9-2.7-1.2c-1.1-0.2-2.3-0.4-3.7-0.4
		c-0.5,0-1.1,0-1.7,0.1c-0.6,0-1.2,0.1-1.8,0.2c-0.6,0.1-1.2,0.2-1.7,0.3c-0.6,0.1-1,0.2-1.5,0.3l0.3,1.1c0.1,0.2,0.2,0.4,0.3,0.5
		c0.1,0.1,0.3,0.1,0.5,0.1l1-0.3c-0.5,0.3-0.9,0.9-1.2,1.5c-0.3,0.7-0.5,1.5-0.5,2.5c0,0.6,0,1.1,0.1,1.5c0.1,0.4,0.2,0.8,0.4,1.1
		s0.3,0.5,0.5,0.7h-4.6h-0.6c-0.6,0-1,0-1.4-0.1c-0.4-0.1-0.7-0.2-1-0.3c-0.3-0.1-0.5-0.3-0.7-0.5v-1.7c0-0.7-0.1-1.4-0.3-2
		c-0.2-0.6-0.5-1.2-1-1.7c-0.5-0.5-1.1-1-2-1.4C8.9,73.3,8,73,7.2,72.8c-0.8-0.2-1.5-0.4-2.1-0.5c-0.5-0.1-1.1-0.2-1.8-0.4l-0.3,1.3
		c-0.1,0.5,0.2,0.8,0.9,1c0.4,0.1,0.8,0.2,1.3,0.3c0.5,0.1,1,0.2,1.6,0.4c0.6,0.1,1.2,0.3,1.7,0.5c0.5,0.2,1,0.5,1.3,0.8
		c0.3,0.3,0.6,0.7,0.7,1.2c0.2,0.5,0.2,1.1,0.2,1.9v2.1H2c-0.4,0-0.5,0.2-0.5,0.6v1.6h8.7c0.8,0,1.4-0.1,1.8-0.3
		c0.4-0.2,0.7-0.5,0.8-0.9c0.5,0.4,1,0.7,1.6,0.9s1.1,0.3,1.6,0.3h0.6v0L46,83.5z M49,77.5c-0.2,0.1-0.4,0.2-0.7,0.3
		c-0.3,0.1-0.6,0.1-1,0.2c-0.4,0-0.8,0.1-1.4,0.1c-0.4,0-0.8,0-1.1-0.1c-0.4-0.1-0.7-0.2-0.9-0.4c-0.3-0.2-0.5-0.5-0.6-0.8
		c-0.2-0.3-0.2-0.8-0.2-1.3c0-1.1,0.3-1.8,0.8-2.2c0.6-0.4,1.3-0.6,2.3-0.6c0.6,0,1.1,0,1.5,0.1c0.4,0.1,0.8,0.2,1.3,0.4V77.5z
		 M28.6,74.1c1.2,0.2,2.2,0.7,3,1.4c0.8,0.7,1.1,1.7,1.1,3.2v2.8h-4.1V74.1z M22.5,76.2c0.3-0.6,0.6-1,1-1.3
		c0.4-0.3,0.9-0.6,1.4-0.7c0.5-0.1,1.1-0.2,1.6-0.2v5.7c0,0.5-0.1,0.9-0.2,1.2c-0.1,0.3-0.5,0.5-1.1,0.5h-1c-0.2,0-0.5-0.1-0.8-0.2
		c-0.3-0.1-0.5-0.3-0.7-0.6c-0.2-0.3-0.4-0.6-0.5-1c-0.1-0.4-0.2-0.8-0.2-1.3C22.1,77.4,22.3,76.7,22.5,76.2"/>
	<path class="st13" d="M46.9,68.2c0.4,0,0.7-0.1,1-0.4c0.3-0.3,0.4-0.6,0.4-1c0-0.4-0.1-0.7-0.4-1c-0.3-0.3-0.6-0.4-1-0.4
		c-0.4,0-0.7,0.1-1,0.4c-0.3,0.3-0.4,0.6-0.4,1c0,0.4,0.1,0.7,0.4,1C46.1,68,46.5,68.2,46.9,68.2"/>
	<path class="st13" d="M169.5,85.1c-0.4,0-0.7,0.1-1,0.4c-0.3,0.3-0.4,0.6-0.4,1c0,0.4,0.1,0.7,0.4,1c0.3,0.3,0.6,0.4,1,0.4
		s0.7-0.1,1-0.4c0.3-0.3,0.4-0.6,0.4-1c0-0.4-0.1-0.7-0.4-1C170.2,85.3,169.9,85.1,169.5,85.1"/>
	<path class="st13" d="M182.7,66.4c-0.1,0.2-0.2,0.3-0.2,0.6v11.7c0,0.9-0.3,1.5-0.8,2c-0.5,0.5-1.3,0.7-2.4,0.7H179v0h-0.5
		c-0.6,0-1,0-1.4-0.1c-0.4-0.1-0.7-0.2-1-0.3c-0.3-0.1-0.5-0.3-0.7-0.4v-2c0-1.1-0.1-2-0.3-2.7c-0.2-0.8-0.6-1.4-1.1-1.9
		c-0.5-0.5-1.1-0.8-1.9-1.1c-0.8-0.2-1.7-0.3-2.9-0.3c-0.8,0-1.5,0-2.2,0.1c-0.7,0.1-1.3,0.2-1.9,0.3c-0.6,0.1-1.1,0.2-1.6,0.4
		l0.3,1.5c0.1,0.4,0.3,0.5,0.8,0.3c0.5-0.1,1.1-0.2,1.9-0.4c0.8-0.1,1.7-0.2,2.5-0.2c1,0,1.8,0.1,2.3,0.3c0.6,0.2,1,0.5,1.2,0.9
		c0.3,0.4,0.4,0.9,0.5,1.4c0.1,0.6,0.1,1.2,0.1,1.9v2.4h-11.5v0h-0.9c-0.6,0-1,0-1.4-0.1c-0.4-0.1-0.7-0.2-1-0.3
		c-0.3-0.1-0.5-0.3-0.7-0.4v-7.8h-1.5c-0.2,0-0.4,0.1-0.6,0.2c-0.2,0.2-0.2,0.4-0.2,0.6v5.8c0,0.6-0.2,1.1-0.5,1.5
		c-0.3,0.4-0.9,0.6-1.7,0.6h-0.1c-0.2,0-0.5,0-0.8,0c-0.3,0-0.6,0-0.9-0.1c-0.3-0.1-0.6-0.2-0.9-0.3c-0.3-0.2-0.6-0.4-0.8-0.7V73
		h-1.4c-0.2,0-0.4,0.1-0.6,0.2c-0.2,0.2-0.2,0.3-0.2,0.6v5.8c0,0.4-0.1,0.7-0.3,1c-0.2,0.2-0.4,0.4-0.6,0.5
		c-0.3,0.1-0.5,0.2-0.9,0.2c-0.3,0-0.6,0.1-0.9,0.1c-0.6,0-1,0-1.4-0.1c-0.4-0.1-0.7-0.2-0.9-0.3c-0.3-0.1-0.5-0.3-0.7-0.4v-6.6
		h-1.4c-0.2,0-0.4,0.1-0.6,0.2c-0.2,0.2-0.2,0.3-0.2,0.6v4.6c0,0.6-0.1,1.1-0.4,1.5c-0.3,0.4-0.8,0.6-1.6,0.6h-0.1v0h-3.2
		c-0.5,0-0.9,0-1.2-0.1c-0.4-0.1-0.7-0.2-0.9-0.3c-0.2-0.1-0.4-0.2-0.6-0.3c-0.1-0.1-0.2-0.2-0.3-0.2v-7.4h-1.4
		c-0.2,0-0.4,0.1-0.6,0.2c-0.2,0.2-0.2,0.4-0.2,0.6V85c0,0.7-0.1,1.3-0.4,1.6c-0.3,0.3-0.7,0.5-1.4,0.5c-0.2,0-0.5-0.1-0.9-0.2
		c-0.4-0.1-0.8-0.2-1.2-0.4l-0.3,1.3c-0.1,0.3,0,0.5,0.2,0.6c0.2,0.1,0.4,0.2,0.7,0.3c0.8,0.2,1.6,0.3,2.3,0.3
		c0.7,0,1.3-0.2,1.8-0.4c0.5-0.3,0.9-0.7,1.1-1.3c0.3-0.6,0.4-1.3,0.4-2.2v-2.7c0.4,0.3,0.9,0.6,1.5,0.7c0.6,0.2,1.1,0.2,1.5,0.2
		h3.2v0h0.7c0.8,0,1.5-0.1,2.1-0.4c0.6-0.3,0.9-0.6,1.2-1c0.2,0.2,0.5,0.5,0.8,0.6c0.3,0.2,0.6,0.3,0.9,0.4c0.3,0.1,0.6,0.2,0.9,0.2
		c0.3,0,0.6,0.1,0.8,0.1h0.6c0.6,0,1.1-0.1,1.5-0.3c0.4-0.2,0.8-0.3,1.1-0.5c0.3-0.2,0.5-0.4,0.6-0.5c0.2-0.2,0.3-0.3,0.3-0.4
		c0.1,0.1,0.2,0.2,0.4,0.4c0.2,0.2,0.4,0.4,0.8,0.6c0.3,0.2,0.7,0.4,1.2,0.5c0.5,0.1,1,0.2,1.7,0.2h0.8c0.8,0,1.5-0.1,2.1-0.4
		c0.6-0.3,0.9-0.6,1.2-1c0.2,0.2,0.5,0.5,0.8,0.6c0.3,0.2,0.6,0.3,0.9,0.4c0.3,0.1,0.6,0.2,0.9,0.3c0.3,0.1,0.6,0.1,0.8,0.1h0.9v0
		H173c0.6,0,1.1-0.1,1.5-0.3c0.4-0.2,0.6-0.5,0.8-0.9c0.5,0.4,1,0.7,1.6,0.9c0.5,0.1,0.9,0.2,1.3,0.2v0h0.3c0,0,0,0,0,0h0.5h0.3
		c1.1,0,1.9-0.1,2.6-0.4c0.7-0.3,1.2-0.6,1.6-1.1c0.4-0.5,0.7-1.1,0.8-1.8c0.2-0.7,0.2-1.5,0.2-2.4V66.2h-1.5
		C183,66.2,182.8,66.2,182.7,66.4"/>
	<path class="st13" d="M269.1,69.8c0.4,0,0.7-0.1,1-0.4c0.3-0.3,0.4-0.6,0.4-1c0-0.4-0.1-0.7-0.4-1c-0.3-0.3-0.6-0.4-1-0.4
		c-0.4,0-0.7,0.1-1,0.4c-0.3,0.3-0.4,0.6-0.4,1c0,0.4,0.1,0.7,0.4,1C268.4,69.7,268.7,69.8,269.1,69.8"/>
	<path class="st13" d="M272.8,69.8c0.4,0,0.7-0.1,1-0.4c0.3-0.3,0.4-0.6,0.4-1c0-0.4-0.1-0.7-0.4-1c-0.3-0.3-0.6-0.4-1-0.4
		c-0.4,0-0.7,0.1-1,0.4c-0.3,0.3-0.4,0.6-0.4,1c0,0.4,0.1,0.7,0.4,1C272,69.7,272.4,69.8,272.8,69.8"/>
	<path class="st13" d="M322.2,73.4c-0.2,0.2-0.2,0.4-0.2,0.6v4.4c0,1-0.2,1.7-0.6,2.2c-0.4,0.5-1.2,0.8-2.3,0.8
		c-0.5,0-0.9-0.1-1.5-0.2c-0.5-0.1-1-0.4-1.4-0.9v-6.6h-1.5c-0.2,0-0.4,0.1-0.6,0.2c-0.2,0.2-0.2,0.3-0.2,0.6v5.1
		c0,0.4-0.1,0.7-0.3,1c-0.2,0.2-0.4,0.4-0.6,0.5c-0.3,0.1-0.5,0.2-0.8,0.2c-0.3,0-0.6,0.1-0.8,0.1c-0.6,0-1,0-1.4-0.1
		c-0.4-0.1-0.7-0.2-1-0.3c-0.3-0.1-0.5-0.3-0.7-0.4v-6.2H307c-0.2,0-0.4,0.1-0.6,0.2c-0.2,0.2-0.2,0.3-0.2,0.6v4.2
		c0,0.6-0.2,1.1-0.5,1.5c-0.3,0.4-0.9,0.6-1.7,0.6h-0.5h-0.8h-0.6c-0.6,0-1,0-1.4-0.1c-0.4-0.1-0.7-0.2-1-0.3
		c-0.3-0.1-0.5-0.3-0.7-0.4v-7.4h-1.5c-0.2,0-0.4,0.1-0.6,0.2c-0.2,0.2-0.2,0.4-0.2,0.6v5.4c0,0.6-0.2,1.1-0.5,1.5
		c-0.3,0.4-0.9,0.6-1.7,0.6h-0.1c-0.2,0-0.5,0-0.8,0c-0.3,0-0.6,0-0.9-0.1c-0.3-0.1-0.6-0.2-0.9-0.3c-0.3-0.2-0.6-0.4-0.8-0.7v-6.6
		h-1.4c-0.2,0-0.4,0.1-0.6,0.2c-0.2,0.2-0.2,0.3-0.2,0.6v5.1c0,0.4-0.1,0.7-0.3,1c-0.2,0.2-0.4,0.4-0.6,0.5
		c-0.3,0.1-0.5,0.2-0.9,0.2c-0.3,0-0.6,0.1-0.9,0.1c-0.6,0-1,0-1.4-0.1c-0.4-0.1-0.7-0.2-0.9-0.3c-0.3-0.1-0.5-0.3-0.7-0.4v-6.2
		h-1.4c-0.2,0-0.4,0.1-0.6,0.2c-0.2,0.2-0.2,0.3-0.2,0.6v4.2c0,0.6-0.1,1.1-0.4,1.5c-0.3,0.4-0.8,0.6-1.6,0.6h-1.8h-1
		c-0.3,0-0.6-0.1-0.8-0.3c-0.2-0.2-0.4-0.5-0.4-0.8v-7.4c-0.5-0.1-1-0.2-1.5-0.3c-0.5-0.1-1.1-0.2-1.7-0.3c-0.6-0.1-1.3-0.1-1.9-0.1
		c-1,0-1.8,0.1-2.5,0.4c-0.7,0.3-1.2,0.7-1.7,1.2c-0.4,0.5-0.7,1.1-0.9,1.8c-0.2,0.7-0.3,1.4-0.3,2.2c0,1.3,0.2,2.3,0.5,3.1
		c0.3,0.8,0.7,1.4,1.2,1.8c0.5,0.4,1.1,0.7,1.7,0.9c0.6,0.2,1.2,0.2,1.8,0.2c0.6,0,1-0.1,1.5-0.2c0.4-0.1,0.8-0.3,1.1-0.4
		c0.3-0.2,0.6-0.3,0.8-0.5c0.2-0.2,0.4-0.3,0.5-0.4c0.1,0.1,0.2,0.2,0.3,0.4c0.1,0.2,0.3,0.3,0.5,0.4c0.2,0.1,0.4,0.3,0.7,0.4
		c0.2,0.1,0.5,0.2,0.8,0.2h0.5v0h3.3c0.8,0,1.5-0.1,2.1-0.4c0.6-0.3,0.9-0.6,1.2-1c0.2,0.2,0.5,0.5,0.8,0.6c0.3,0.2,0.6,0.3,0.9,0.4
		c0.3,0.1,0.6,0.2,0.9,0.2c0.3,0,0.6,0.1,0.8,0.1h0.6c0.6,0,1.1-0.1,1.5-0.3c0.4-0.2,0.8-0.3,1.1-0.5c0.3-0.2,0.5-0.4,0.6-0.5
		c0.2-0.2,0.3-0.3,0.3-0.4c0.1,0.1,0.2,0.2,0.4,0.4c0.2,0.2,0.4,0.4,0.8,0.6c0.3,0.2,0.7,0.4,1.2,0.5c0.5,0.1,1,0.2,1.7,0.2h0.8
		c0.8,0,1.5-0.1,2.1-0.4c0.6-0.3,0.9-0.6,1.2-1c0.2,0.2,0.5,0.5,0.8,0.6c0.3,0.2,0.6,0.3,0.9,0.4c0.3,0.1,0.6,0.2,0.9,0.3
		c0.3,0.1,0.6,0.1,0.8,0.1h0.6h0.8h1.1c0.9,0,1.6-0.1,2.1-0.4c0.6-0.3,0.9-0.6,1.2-1c0.2,0.2,0.5,0.5,0.8,0.6
		c0.3,0.2,0.6,0.3,0.9,0.4c0.3,0.1,0.6,0.2,0.9,0.2c0.3,0,0.6,0.1,0.8,0.1h0.6c0.6,0,1.1-0.1,1.5-0.3c0.4-0.2,0.8-0.3,1.1-0.5
		c0.3-0.2,0.5-0.4,0.6-0.5c0.1-0.2,0.2-0.3,0.3-0.4c0.1,0.1,0.2,0.2,0.4,0.4c0.2,0.2,0.4,0.4,0.7,0.6c0.3,0.2,0.7,0.4,1.1,0.5
		c0.4,0.1,0.9,0.2,1.4,0.2c1,0,1.9-0.1,2.6-0.4c0.7-0.2,1.2-0.6,1.6-1.1c0.4-0.5,0.6-1,0.8-1.6c0.2-0.6,0.2-1.3,0.2-2.1v-5.2h-1.5
		C322.6,73.1,322.4,73.2,322.2,73.4 M273,80.5c-0.2,0.2-0.4,0.4-0.7,0.6c-0.3,0.2-0.6,0.3-0.9,0.4c-0.4,0.1-0.8,0.2-1.3,0.2
		c-1,0-1.8-0.3-2.3-0.9c-0.6-0.6-0.8-1.6-0.8-3c0-0.7,0.1-1.3,0.3-1.8c0.2-0.5,0.4-0.8,0.7-1.1c0.3-0.3,0.7-0.5,1.1-0.6
		c0.4-0.1,0.9-0.1,1.3-0.1c0.3,0,0.7,0,1.2,0.1c0.5,0,1,0.1,1.5,0.3V80.5z"/>
	<path class="st13" d="M334.7,69.7c0-0.1,0-0.2-0.1-0.3c-0.1-0.1-0.2-0.1-0.3-0.1h-1.5c-0.2,0-0.3,0-0.5,0c-0.2,0-0.3-0.1-0.5-0.2
		c-0.1-0.1-0.3-0.2-0.4-0.3c-0.1-0.1-0.2-0.3-0.2-0.6c0-0.2,0.1-0.4,0.3-0.6c0.2-0.2,0.6-0.3,1.2-0.3c0.3,0,0.6,0,0.9,0.1
		c0.3,0,0.4,0.1,0.5,0.1c0.1,0,0.2,0,0.3-0.1c0.1-0.1,0.1-0.2,0.2-0.4l0.1-0.8c-0.2,0-0.4-0.1-0.6-0.1c-0.2,0-0.4-0.1-0.7-0.1
		c-0.2,0-0.5,0-0.8,0c-0.4,0-0.7,0-1.1,0.1c-0.3,0.1-0.6,0.2-0.9,0.4c-0.3,0.2-0.5,0.4-0.6,0.8c-0.2,0.3-0.2,0.7-0.2,1.1
		c0,0.3,0,0.5,0.1,0.7c0.1,0.2,0.1,0.3,0.2,0.4H330c-0.1,0-0.3,0.1-0.4,0.2c-0.1,0.1-0.2,0.3-0.2,0.5v0.7h5.2V69.7z"/>
	<path class="st13" d="M355.6,83.5h0.5c1,0,1.8-0.2,2.5-0.4c0.7-0.3,1.2-0.7,1.6-1.2c0.4-0.5,0.6-1.1,0.8-1.8
		c0.2-0.7,0.2-1.5,0.2-2.3V66.2h-1.5c-0.2,0-0.4,0.1-0.5,0.2c-0.1,0.2-0.2,0.3-0.2,0.6v11.7c0,0.9-0.3,1.5-0.8,2
		c-0.5,0.5-1.3,0.7-2.4,0.7h-0.2c-0.5,0-0.9,0-1.3-0.1c-0.4-0.1-0.7-0.2-0.9-0.3c-0.2-0.1-0.4-0.2-0.6-0.3c-0.1-0.1-0.2-0.2-0.2-0.2
		v-7.3c-0.5-0.1-1-0.3-1.5-0.4c-0.5-0.1-1-0.2-1.5-0.3c-0.5-0.1-1-0.1-1.5-0.1c-1,0-1.9,0.1-2.7,0.4c-0.8,0.3-1.4,0.6-2,1.1
		c-0.6,0.5-1,1.1-1.3,1.8c-0.3,0.7-0.4,1.5-0.4,2.3c0,0.8,0.1,1.4,0.2,2c0.1,0.6,0.2,1,0.3,1.3h-2.7h-1.4v-8.2
		c-0.4-0.1-0.9-0.3-1.3-0.4c-0.5-0.1-1-0.2-1.5-0.3c-0.5-0.1-1.1-0.1-1.7-0.1c-0.9,0-1.8,0.1-2.5,0.4c-0.8,0.2-1.4,0.6-2,1.1
		c-0.6,0.5-1,1.1-1.3,1.8c-0.3,0.7-0.4,1.6-0.4,2.5c0,1.2,0.2,2.1,0.6,2.8c0.4,0.7,0.8,1.2,1.4,1.6c0.5,0.4,1.1,0.6,1.7,0.8
		c0.6,0.1,1.2,0.2,1.7,0.2h3.2c0,0.5,0,0.2,0,0.7c0,0.5-0.1,1-0.3,1.4c-0.2,0.4-0.5,0.8-0.9,1c-0.4,0.3-1.1,0.4-2,0.4
		c-0.4,0-0.7,0-1.1-0.1c-0.4,0-0.7-0.1-1-0.2c-0.3-0.1-0.6-0.1-0.9-0.2l-0.3,1.4c-0.1,0.3,0,0.5,0.2,0.6c0.2,0.1,0.4,0.2,0.6,0.3
		c0.4,0.1,0.8,0.2,1.3,0.2c0.5,0.1,0.9,0.1,1.2,0.1c0.9,0,1.6-0.1,2.3-0.3c0.7-0.2,1.2-0.5,1.7-1c0.5-0.5,0.8-1.1,1-1.9
		c0.2-0.8,0.3-1,0.3-2.2v-0.3h2.3h10c0.8,0,1.7-0.6,1.9-1.2c0.2,0.2,0.5,0.4,0.8,0.5c0.3,0.2,0.6,0.3,0.9,0.4
		c0.3,0.1,0.6,0.2,0.9,0.2C355.1,83.5,355.4,83.5,355.6,83.5 M335.9,81.4h-3c-0.9,0-1.7-0.3-2.3-0.8c-0.6-0.5-0.9-1.4-0.9-2.5
		c0-0.7,0.1-1.3,0.3-1.8c0.2-0.5,0.5-0.9,0.9-1.1c0.4-0.3,0.8-0.5,1.3-0.6c0.5-0.1,1-0.2,1.5-0.1c0.6,0,1.3,0.1,2.1,0.3V81.4z
		 M350.4,81.4h-0.7c0,0-4.8,0.1-5.3,0c-0.1-0.2-0.2-0.5-0.3-0.8c-0.1-0.3-0.1-0.6-0.2-1c0-0.4-0.1-0.8-0.1-1.3
		c0-0.5,0.1-0.9,0.2-1.3c0.2-0.4,0.4-0.8,0.8-1.2c0.3-0.3,0.8-0.6,1.3-0.8c0.5-0.2,1.1-0.3,1.9-0.3c0.5,0,1,0,1.4,0.1
		c0.4,0.1,0.7,0.1,1,0.2V81.4z"/>
	<path class="st13" d="M366,66.2c-0.2,0-0.4,0.1-0.6,0.2s-0.2,0.3-0.2,0.6v16.6h1.5c0.2,0,0.4-0.1,0.6-0.2c0.1-0.2,0.2-0.3,0.2-0.6
		V66.2H366z"/>
	<path class="st13" d="M200.6,69.8c0.4,0,0.7-0.1,1-0.4c0.3-0.3,0.4-0.6,0.4-1c0-0.4-0.1-0.7-0.4-1c-0.3-0.3-0.6-0.4-1-0.4
		c-0.4,0-0.7,0.1-1,0.4c-0.3,0.3-0.4,0.6-0.4,1c0,0.4,0.1,0.7,0.4,1C199.9,69.7,200.2,69.8,200.6,69.8"/>
	<path class="st13" d="M197,69.8c0.4,0,0.7-0.1,1-0.4c0.3-0.3,0.4-0.6,0.4-1c0-0.4-0.1-0.7-0.4-1c-0.3-0.3-0.6-0.4-1-0.4
		c-0.4,0-0.7,0.1-1,0.4c-0.3,0.3-0.4,0.6-0.4,1c0,0.4,0.1,0.7,0.4,1C196.3,69.7,196.6,69.8,197,69.8"/>
	<path class="st13" d="M248.3,66.4c-0.1,0.2-0.2,0.3-0.2,0.6v11.7c0,0.9-0.3,1.5-0.8,2c-0.5,0.5-1.3,0.7-2.4,0.7h-0.1v0h-5.2l3.4-4
		c0-0.9-0.2-1.7-0.5-2.4c-0.3-0.7-0.8-1.2-1.4-1.7c-0.6-0.4-1.2-0.8-2-1c-0.7-0.2-1.5-0.3-2.3-0.3c-0.8,0-1.6,0.1-2.3,0.3
		c-0.8,0.2-1.4,0.5-2,1c-0.6,0.4-1,1-1.4,1.7s-0.5,1.5-0.5,2.4l3.4,4h-4.3H229c-1.1,0-1.9-0.2-2.4-0.7c-0.5-0.5-0.8-1.1-0.8-2V67
		c0-0.2-0.1-0.4-0.2-0.6c-0.2-0.2-0.3-0.2-0.6-0.2h-1.4v11.7c0,0.9,0.1,1.7,0.2,2.4c0.2,0.7,0.4,1.3,0.8,1.8
		c0.4,0.5,0.9,0.9,1.6,1.1c0.6,0.2,1.4,0.4,2.2,0.4v0h16.3h0.1c1.1,0,1.9-0.1,2.6-0.4c0.7-0.3,1.2-0.6,1.6-1.1
		c0.4-0.5,0.7-1.1,0.8-1.8c0.2-0.7,0.2-1.5,0.2-2.4V66.2h-1.5C248.6,66.2,248.5,66.2,248.3,66.4 M236.8,81.6c0,0-0.1-0.1-0.3-0.3
		l-3.7-4.2c0-0.3,0.1-0.6,0.3-0.9c0.2-0.3,0.5-0.7,0.8-1c0.4-0.3,0.8-0.6,1.3-0.8c0.5-0.2,1.1-0.3,1.7-0.3c0.6,0,1.2,0.1,1.7,0.3
		c0.5,0.2,0.9,0.4,1.2,0.7c0.3,0.3,0.6,0.6,0.8,1c0.2,0.4,0.3,0.7,0.3,1l-3.7,4.2C237,81.4,236.8,81.6,236.8,81.6"/>
	<path class="st13" d="M256.4,83.3c0.1-0.2,0.2-0.3,0.2-0.6V66.2h-1.5c-0.2,0-0.4,0.1-0.6,0.2c-0.2,0.2-0.2,0.3-0.2,0.6v16.6h1.5
		C256.1,83.5,256.3,83.4,256.4,83.3"/>
	<path class="st13" d="M220.3,80.5v-7.3c-0.5-0.1-1-0.3-1.5-0.4c-0.5-0.1-1-0.2-1.5-0.3c-0.5-0.1-1-0.1-1.5-0.1
		c-1,0-1.9,0.1-2.7,0.4c-0.8,0.3-1.4,0.6-2,1.1c-0.6,0.5-1,1.1-1.3,1.8c-0.3,0.7-0.4,1.5-0.4,2.3c0,0.8,0.1,1.4,0.2,2
		c0.1,0.6,0.2,1,0.3,1.3h-5.2v0h-0.4c-0.3,0-0.6-0.1-0.8-0.3c-0.2-0.2-0.4-0.5-0.4-0.8v-7.4c-0.5-0.1-1-0.2-1.5-0.3
		c-0.5-0.1-1.1-0.2-1.7-0.3c-0.6-0.1-1.3-0.1-1.9-0.1c-1,0-1.8,0.1-2.5,0.4c-0.7,0.3-1.2,0.7-1.7,1.2c-0.4,0.5-0.7,1.1-0.9,1.8
		c-0.2,0.7-0.3,1.4-0.3,2.2c0,1.3,0.2,2.3,0.5,3.1c0.3,0.8,0.7,1.4,1.2,1.8c0.5,0.4,1.1,0.7,1.7,0.9c0.6,0.2,1.2,0.2,1.8,0.2
		c0.6,0,1-0.1,1.5-0.2c0.4-0.1,0.8-0.3,1.1-0.4c0.3-0.2,0.6-0.3,0.8-0.5c0.2-0.2,0.4-0.3,0.5-0.4c0.1,0.1,0.2,0.2,0.3,0.4
		c0.1,0.2,0.3,0.3,0.5,0.4c0.2,0.1,0.4,0.3,0.7,0.4c0.2,0.1,0.5,0.2,0.8,0.2h1.5v0h12.8c0.8,0,1.8-0.5,2-1
		C220.3,81.8,220.3,80.5,220.3,80.5 M200.9,80.5c-0.2,0.2-0.4,0.4-0.7,0.6c-0.3,0.2-0.6,0.3-0.9,0.4c-0.4,0.1-0.8,0.2-1.3,0.2
		c-1,0-1.8-0.3-2.3-0.9c-0.6-0.6-0.8-1.6-0.8-3c0-0.7,0.1-1.3,0.3-1.8c0.2-0.5,0.4-0.8,0.7-1.1c0.3-0.3,0.7-0.5,1.1-0.6
		c0.4-0.1,0.9-0.1,1.3-0.1c0.3,0,0.7,0,1.2,0.1c0.5,0,1,0.1,1.5,0.3V80.5z M218.1,81.3h-0.7c0,0-4.8,0.1-5.3,0
		c-0.1-0.2-0.2-0.5-0.3-0.8c-0.1-0.3-0.1-0.6-0.2-1c0-0.4-0.1-0.8-0.1-1.3c0-0.5,0.1-0.9,0.2-1.3c0.2-0.4,0.4-0.8,0.8-1.2
		c0.3-0.3,0.8-0.6,1.3-0.8c0.5-0.2,1.1-0.3,1.9-0.3c0.5,0,1,0,1.4,0.1c0.4,0.1,0.7,0.1,1,0.2V81.3z"/>
	<path class="st13" d="M74,73.9c0-0.1,0-0.2-0.1-0.3c-0.1-0.1-0.2-0.1-0.3-0.1h-1.5c-0.2,0-0.3,0-0.5,0c-0.2,0-0.3-0.1-0.5-0.2
		c-0.1-0.1-0.3-0.2-0.4-0.3c-0.1-0.1-0.2-0.3-0.2-0.6c0-0.2,0.1-0.4,0.3-0.6c0.2-0.2,0.6-0.3,1.2-0.3c0.3,0,0.6,0,0.9,0.1
		c0.3,0,0.4,0.1,0.5,0.1c0.1,0,0.2,0,0.3-0.1c0.1-0.1,0.1-0.2,0.2-0.4l0.1-0.8c-0.2,0-0.4-0.1-0.6-0.1c-0.2,0-0.4-0.1-0.7-0.1
		c-0.2,0-0.5,0-0.8,0c-0.4,0-0.7,0-1.1,0.1c-0.3,0.1-0.6,0.2-0.9,0.4c-0.3,0.2-0.5,0.4-0.6,0.8c-0.2,0.3-0.2,0.7-0.2,1.1
		c0,0.3,0,0.5,0.1,0.7c0.1,0.2,0.1,0.3,0.2,0.4h-0.2c-0.1,0-0.3,0.1-0.4,0.2c-0.1,0.1-0.2,0.3-0.2,0.5v0.7H74V73.9z"/>
	<path class="st13" d="M118,66.4c-0.2,0.2-0.2,0.3-0.2,0.6v16.6h1.5c0.2,0,0.4-0.1,0.6-0.2c0.1-0.2,0.2-0.3,0.2-0.6V66.2h-1.5
		C118.3,66.2,118.2,66.2,118,66.4"/>
	<path class="st13" d="M106.5,83.2c0.3,0.1,0.6,0.2,0.9,0.2c0.3,0,0.5,0.1,0.7,0.1h0.5c1,0,1.8-0.2,2.5-0.4c0.7-0.3,1.2-0.7,1.6-1.2
		c0.4-0.5,0.6-1.1,0.8-1.8c0.2-0.7,0.2-1.5,0.2-2.3V66.2h-1.5c-0.2,0-0.4,0.1-0.5,0.2c-0.1,0.2-0.2,0.3-0.2,0.6v11.7
		c0,0.9-0.3,1.5-0.8,2c-0.5,0.5-1.3,0.7-2.4,0.7h-0.2c-0.5,0-0.9,0-1.3-0.1c-0.4-0.1-0.7-0.2-0.9-0.3c-0.2-0.1-0.4-0.2-0.6-0.3
		c-0.1-0.1-0.2-0.2-0.2-0.2v-7.3c-0.5-0.1-1-0.3-1.5-0.4c-0.5-0.1-1-0.2-1.5-0.3c-0.5-0.1-1-0.1-1.5-0.1c-1,0-1.9,0.1-2.7,0.4
		c-0.8,0.3-1.4,0.6-2,1.1c-0.6,0.5-1,1.1-1.3,1.8c-0.3,0.7-0.4,1.5-0.4,2.3c0,0.8,0.1,1.4,0.2,2c0.1,0.6,0.2,1,0.3,1.3h-2.1
		c-0.6,0-1,0-1.4-0.1c-0.4-0.1-0.7-0.2-1-0.3c-0.3-0.1-0.5-0.3-0.7-0.4V66.2h-1.5c-0.2,0-0.4,0.1-0.5,0.2c-0.1,0.2-0.2,0.3-0.2,0.6
		v12.3c0,0.6-0.2,1.1-0.5,1.5c-0.3,0.4-0.9,0.6-1.7,0.6H85h-0.1c-2.1,0-3-0.9-3-0.9V66.2h-1.5c-0.2,0-0.4,0.1-0.5,0.2
		c-0.1,0.2-0.2,0.3-0.2,0.6v12.3c0,0.6-0.2,1.1-0.5,1.5c-0.3,0.4-0.9,0.6-1.7,0.6h-7.6c-0.5,0-4.7-0.1-5.2-0.2
		c-0.5-0.1-1-0.3-1.4-0.6c-0.4-0.3-0.7-0.6-1-1.1c-0.2-0.5-0.4-1.1-0.4-1.9c0-0.5,0-0.9,0.1-1.2c0-0.3,0.1-0.6,0.2-0.9
		c0.1-0.3,0-0.5,0-0.7c-0.1-0.1-0.2-0.2-0.4-0.3c-0.1,0-0.6-0.2-1.4-0.5c-0.1,0.3-0.2,0.7-0.3,1c-0.1,0.4-0.2,0.8-0.2,1.2
		c-0.1,0.5-0.1,1-0.1,1.5c0,0.8,0.1,1.5,0.4,2.2c0.3,0.7,0.7,1.3,1.2,1.8c0.5,0.5,1.2,0.9,2,1.2c0.8,0.3,2.2,0.4,3.3,0.4h11.6
		c2.5,0,3.3-1.4,3.2-1.5c1.2,1.5,2.9,1.5,3.6,1.5v0h1c0.9,0,1.6-0.1,2.1-0.4c0.6-0.3,0.9-0.6,1.2-1c1.2,1.4,2.7,1.5,3.4,1.5h0.5h9.7
		c0.8,0,1.7-0.6,1.9-1.2c0.2,0.2,0.5,0.4,0.8,0.5C105.9,83,106.2,83.1,106.5,83.2 M103,81.4h-0.7c0,0-4.8,0.1-5.3,0
		c-0.1-0.2-0.2-0.5-0.3-0.8c-0.1-0.3-0.1-0.6-0.2-1c0-0.4-0.1-0.8-0.1-1.3c0-0.5,0.1-0.9,0.2-1.3c0.2-0.4,0.4-0.8,0.8-1.2
		c0.3-0.3,0.8-0.6,1.3-0.8c0.5-0.2,1.1-0.3,1.9-0.3c0.5,0,1,0,1.4,0.1c0.4,0.1,0.7,0.1,1,0.2V81.4z"/>
</g>
</svg>
