<?xml version="1.0" encoding="utf-8"?>
<!-- Generator: Adobe Illustrator 24.3.0, SVG Export Plug-In . SVG Version: 6.00 Build 0)  -->
<svg version="1.1" id="Layer_1" xmlns="http://www.w3.org/2000/svg" xmlns:xlink="http://www.w3.org/1999/xlink" x="0px" y="0px"
	 viewBox="0 0 415 298" style="enable-background:new 0 0 415 298;" xml:space="preserve">
<style type="text/css">
	.st0{fill:#F7F5E5;}
	.st1{fill:#D47C42;}
	.st2{fill:#FFFFFF;}
</style>
<rect class="st0" width="415" height="298"/>
<path class="st1" d="M250.7,41H148.8v0c0-16.3,13.2-29.5,29.5-29.5h101.9v0C280.2,27.8,267,41,250.7,41z"/>
<g>
	<path class="st2" d="M191.8,29.4c0,0.2,0,0.4,0,0.6c0,0.2,0.1,0.3,0.2,0.4c0.1,0.1,0.2,0.2,0.3,0.2s0.3,0.1,0.6,0.1h0.6
		c0.2,0,0.4,0,0.5,0.1c0.1,0.1,0.2,0.2,0.2,0.4v0.6c0,0.1,0,0.2,0,0.3c0,0.1-0.1,0.1-0.1,0.2s-0.1,0.1-0.2,0.1c-0.1,0-0.2,0-0.2,0
		h-1c-0.4,0-0.7,0-1-0.1c-0.3-0.1-0.5-0.2-0.7-0.3c-0.2-0.1-0.3-0.3-0.4-0.4c-0.1-0.2-0.2-0.3-0.2-0.5c-0.4,0.3-0.8,0.4-1.2,0.5
		c-0.4,0.1-0.8,0.2-1.2,0.2c-0.3,0-0.7,0-1-0.1c-0.3-0.1-0.7-0.2-0.9-0.5c-0.3-0.2-0.5-0.5-0.7-0.8c-0.2-0.3-0.3-0.7-0.3-1.2
		c0-0.4,0.1-0.8,0.3-1.2c0.2-0.3,0.4-0.6,0.7-0.9s0.6-0.5,1-0.7c0.4-0.2,0.8-0.4,1.1-0.5s0.8-0.3,1.2-0.4s0.7-0.2,1-0.3v-0.9h1.5
		V29.4z M190.2,26.4c-0.6,0.1-1.1,0.2-1.6,0.4c-0.5,0.1-0.9,0.3-1.2,0.5c-0.3,0.2-0.6,0.4-0.8,0.7s-0.3,0.5-0.3,0.8
		c0,0.3,0.1,0.5,0.2,0.6s0.2,0.3,0.4,0.4s0.4,0.2,0.6,0.2c0.2,0,0.4,0.1,0.6,0.1c0.4,0,0.8-0.1,1.1-0.2c0.3-0.1,0.6-0.2,0.9-0.4
		V26.4z M187.5,22c0-0.1,0-0.2,0.1-0.4c0-0.1,0.1-0.2,0.2-0.3c0.1-0.1,0.2-0.1,0.3-0.2c0.1,0,0.2-0.1,0.4-0.1s0.2,0,0.4,0.1
		c0.1,0,0.2,0.1,0.3,0.2s0.1,0.2,0.2,0.3c0,0.1,0.1,0.2,0.1,0.4s0,0.2-0.1,0.4c0,0.1-0.1,0.2-0.2,0.3s-0.2,0.1-0.3,0.2
		c-0.1,0-0.2,0.1-0.4,0.1c-0.3,0-0.5-0.1-0.6-0.3C187.6,22.5,187.5,22.3,187.5,22z M189.9,22c0-0.1,0-0.2,0.1-0.4
		c0-0.1,0.1-0.2,0.2-0.3s0.2-0.1,0.3-0.2c0.1,0,0.2-0.1,0.4-0.1s0.2,0,0.4,0.1c0.1,0,0.2,0.1,0.3,0.2s0.1,0.2,0.2,0.3
		s0.1,0.2,0.1,0.4s0,0.2-0.1,0.4c0,0.1-0.1,0.2-0.2,0.3s-0.2,0.1-0.3,0.2c-0.1,0-0.2,0.1-0.4,0.1c-0.3,0-0.5-0.1-0.6-0.3
		C190,22.5,189.9,22.3,189.9,22z"/>
	<path class="st2" d="M196.2,31c-0.1,0.2-0.2,0.4-0.4,0.6c-0.1,0.2-0.3,0.3-0.4,0.4c-0.2,0.1-0.3,0.2-0.5,0.2s-0.4,0.1-0.6,0.1h-0.7
		c-0.2,0-0.4,0-0.5-0.1s-0.2-0.2-0.2-0.4v-0.6c0-0.1,0-0.2,0-0.3c0-0.1,0.1-0.1,0.1-0.1c0.1,0,0.1-0.1,0.2-0.1c0.1,0,0.2,0,0.2,0
		h0.4c0.4,0,0.7-0.1,0.9-0.2c0.3-0.2,0.5-0.4,0.6-0.8c0.2-0.6,0.4-1.1,0.6-1.6c0.2-0.4,0.4-0.8,0.6-1.1s0.5-0.6,0.7-0.8
		c0.2-0.2,0.5-0.3,0.7-0.5s0.4-0.2,0.7-0.2c0.2,0,0.4-0.1,0.6-0.1c0.4,0,0.7,0.1,1,0.2c0.3,0.1,0.6,0.3,0.8,0.4s0.5,0.4,0.6,0.6
		c0.2,0.2,0.3,0.5,0.5,0.8c0.1,0.3,0.2,0.5,0.3,0.8c0.1,0.3,0.1,0.5,0.1,0.8c0,0.2,0,0.5-0.1,0.7c-0.1,0.2-0.1,0.5-0.3,0.7
		c-0.1,0.2-0.3,0.5-0.4,0.7c-0.2,0.2-0.4,0.4-0.6,0.6c-0.2,0.2-0.5,0.3-0.8,0.4s-0.7,0.1-1.1,0.1c-0.4,0-0.7,0-1-0.1
		c-0.3-0.1-0.6-0.2-0.9-0.3s-0.5-0.3-0.7-0.4C196.5,31.3,196.3,31.2,196.2,31z M201.2,29.2c0-0.2,0-0.5-0.1-0.7
		c-0.1-0.3-0.2-0.5-0.4-0.8c-0.2-0.2-0.4-0.4-0.6-0.6s-0.6-0.2-0.9-0.2c-0.3,0-0.6,0.1-0.9,0.3c-0.3,0.2-0.5,0.4-0.7,0.7
		c-0.2,0.3-0.4,0.6-0.5,1s-0.2,0.8-0.3,1.2c0.1,0.1,0.2,0.2,0.3,0.3s0.4,0.2,0.6,0.2c0.2,0.1,0.5,0.1,0.7,0.2s0.5,0.1,0.7,0.1
		c0.3,0,0.6,0,0.9-0.1s0.5-0.1,0.7-0.2c0.2-0.1,0.3-0.3,0.4-0.5C201.2,29.8,201.2,29.5,201.2,29.2z"/>
	<path class="st2" d="M205,30.6h3.8v-7.5h1.5v7.5h2.3c0.2,0,0.3-0.1,0.4-0.2c0.1-0.2,0.2-0.4,0.2-0.7v-9.8h1.5v10.1
		c0.3,0.2,0.6,0.4,1,0.6s0.9,0.2,1.4,0.2h0.1c0.2,0,0.4,0,0.5,0.1c0.1,0.1,0.2,0.2,0.2,0.4v0.6c0,0.1,0,0.2,0,0.3
		c0,0.1-0.1,0.1-0.1,0.2c-0.1,0-0.1,0.1-0.2,0.1c-0.1,0-0.2,0-0.2,0h-0.1c-0.3,0-0.6,0-0.9-0.1c-0.3,0-0.5-0.1-0.7-0.2
		c-0.2-0.1-0.4-0.2-0.6-0.3s-0.3-0.2-0.5-0.4c-0.1,0.3-0.3,0.5-0.6,0.7c-0.3,0.2-0.6,0.3-1,0.3h-8V30.6z"/>
	<path class="st2" d="M222,30.2c0.3,0.2,0.6,0.3,1,0.4c0.4,0.1,0.7,0.1,1.1,0.1h0.6c0.2,0,0.3-0.1,0.4-0.2c0.1-0.2,0.2-0.4,0.2-0.7
		v-3.2h1.5V30c0.3,0.2,0.6,0.4,1,0.5c0.4,0.1,0.8,0.1,1.2,0.1h0.6c0.2,0,0.3-0.1,0.4-0.2c0.1-0.2,0.2-0.4,0.2-0.7v-4.1h1.5V30
		c0.3,0.2,0.6,0.4,1,0.5c0.4,0.1,0.8,0.2,1.4,0.2h0.1c0.2,0,0.4,0,0.5,0.1c0.1,0.1,0.2,0.2,0.2,0.4v0.6c0,0.1,0,0.2,0,0.3
		c0,0.1-0.1,0.1-0.1,0.2c-0.1,0-0.1,0.1-0.2,0.1c-0.1,0-0.2,0-0.2,0h-0.1c-0.6,0-1.1-0.1-1.6-0.3c-0.4-0.2-0.8-0.4-1-0.6
		c-0.1,0.3-0.3,0.5-0.6,0.6c-0.3,0.2-0.6,0.3-1,0.3H229c-0.5,0-0.9-0.1-1.4-0.2s-0.8-0.3-1.2-0.7c-0.1,0.2-0.3,0.4-0.6,0.6
		s-0.6,0.2-0.9,0.2h-0.9c-0.2,0-0.4,0-0.7,0c-0.2,0-0.4-0.1-0.6-0.1c-0.2-0.1-0.4-0.1-0.6-0.2s-0.4-0.2-0.6-0.4
		c-0.1,0.2-0.3,0.4-0.6,0.5c-0.2,0.1-0.5,0.2-0.9,0.2h-2.8c-0.2,0-0.4,0-0.5-0.1c-0.1-0.1-0.2-0.2-0.2-0.4v-0.6c0-0.1,0-0.2,0-0.3
		c0-0.1,0.1-0.1,0.1-0.1c0.1,0,0.1-0.1,0.2-0.1c0.1,0,0.2,0,0.2,0h2.5c0.2,0,0.3-0.1,0.4-0.2c0.1-0.2,0.2-0.4,0.2-0.7v-2.5h1.5V30.2
		z"/>
	<path class="st2" d="M234.2,32.2c-0.2,0-0.4,0-0.5-0.1c-0.1-0.1-0.2-0.2-0.2-0.4v-0.6c0-0.1,0-0.2,0-0.3c0-0.1,0.1-0.1,0.1-0.1
		c0.1,0,0.1-0.1,0.2-0.1c0.1,0,0.2,0,0.2,0h2.3V19.8h1.5v12.3H234.2z"/>
	<path class="st2" d="M241,19.9h1.5v12.3H241V19.9z"/>
</g>
<path class="st1" d="M366.4,116.3H264.5v0c0-16.3,13.2-29.5,29.5-29.5h101.9v0C395.9,103.1,382.7,116.3,366.4,116.3z"/>
<g>
	<path class="st2" d="M312.1,104.7c0,0.2,0,0.4,0,0.6c0,0.2,0.1,0.3,0.2,0.4c0.1,0.1,0.2,0.2,0.3,0.2c0.1,0,0.3,0.1,0.6,0.1h0.6
		c0.2,0,0.4,0,0.5,0.1c0.1,0.1,0.2,0.2,0.2,0.4v0.6c0,0.1,0,0.2,0,0.3c0,0.1-0.1,0.1-0.1,0.2s-0.1,0.1-0.2,0.1c-0.1,0-0.2,0-0.2,0
		h-1c-0.4,0-0.7,0-1-0.1c-0.3-0.1-0.5-0.2-0.7-0.3s-0.3-0.3-0.4-0.4c-0.1-0.2-0.2-0.3-0.2-0.5c-0.4,0.3-0.8,0.4-1.2,0.5
		c-0.4,0.1-0.8,0.2-1.2,0.2c-0.3,0-0.7,0-1-0.1c-0.3-0.1-0.7-0.2-0.9-0.5s-0.5-0.5-0.7-0.8c-0.2-0.3-0.3-0.7-0.3-1.2
		c0-0.4,0.1-0.8,0.3-1.2c0.2-0.3,0.4-0.6,0.7-0.9s0.6-0.5,1-0.7c0.4-0.2,0.8-0.4,1.1-0.5c0.4-0.2,0.8-0.3,1.2-0.4s0.7-0.2,1-0.3
		v-0.9h1.5V104.7z M310.5,101.7c-0.6,0.1-1.1,0.2-1.6,0.4c-0.5,0.1-0.9,0.3-1.2,0.5c-0.3,0.2-0.6,0.4-0.8,0.7
		c-0.2,0.2-0.3,0.5-0.3,0.8c0,0.3,0.1,0.5,0.2,0.6c0.1,0.2,0.2,0.3,0.4,0.4s0.4,0.2,0.6,0.2c0.2,0,0.4,0.1,0.6,0.1
		c0.4,0,0.8-0.1,1.1-0.2s0.6-0.2,0.9-0.4V101.7z M307.8,97.3c0-0.1,0-0.2,0.1-0.4c0-0.1,0.1-0.2,0.2-0.3s0.2-0.1,0.3-0.2
		c0.1,0,0.2-0.1,0.4-0.1s0.2,0,0.4,0.1c0.1,0,0.2,0.1,0.3,0.2c0.1,0.1,0.1,0.2,0.2,0.3s0.1,0.2,0.1,0.4s0,0.2-0.1,0.4
		c0,0.1-0.1,0.2-0.2,0.3c-0.1,0.1-0.2,0.1-0.3,0.2c-0.1,0-0.2,0.1-0.4,0.1c-0.3,0-0.5-0.1-0.6-0.3C307.9,97.8,307.8,97.6,307.8,97.3
		z M310.2,97.3c0-0.1,0-0.2,0.1-0.4s0.1-0.2,0.2-0.3s0.2-0.1,0.3-0.2c0.1,0,0.2-0.1,0.4-0.1c0.1,0,0.2,0,0.4,0.1
		c0.1,0,0.2,0.1,0.3,0.2s0.1,0.2,0.2,0.3c0,0.1,0.1,0.2,0.1,0.4s0,0.2-0.1,0.4c0,0.1-0.1,0.2-0.2,0.3s-0.2,0.1-0.3,0.2
		c-0.1,0-0.2,0.1-0.4,0.1c-0.3,0-0.5-0.1-0.6-0.3C310.3,97.8,310.2,97.6,310.2,97.3z"/>
	<path class="st2" d="M320.6,102.2c-0.1,0-0.2-0.1-0.4-0.1c-0.1,0-0.3-0.1-0.5-0.1c-0.2,0-0.3,0-0.5-0.1c-0.2,0-0.3,0-0.4,0
		c-0.2,0-0.4,0-0.6,0.1c-0.2,0.1-0.4,0.1-0.6,0.3c-0.2,0.1-0.3,0.3-0.4,0.5c-0.1,0.2-0.2,0.5-0.2,0.9c0,0.3,0.1,0.6,0.2,0.9
		c0.1,0.3,0.3,0.5,0.5,0.7c0.2,0.2,0.4,0.3,0.7,0.4c0.3,0.1,0.6,0.2,0.9,0.2h2.1v1.5h-7.6c-0.2,0-0.4,0-0.5-0.1
		c-0.1-0.1-0.2-0.2-0.2-0.4v-0.6c0-0.1,0-0.2,0-0.3c0-0.1,0.1-0.1,0.1-0.1c0.1,0,0.1-0.1,0.2-0.1c0.1,0,0.2,0,0.2,0h2.3
		c-0.2-0.3-0.3-0.7-0.3-1s-0.1-0.6-0.1-0.9c0-0.5,0.1-0.9,0.2-1.4c0.2-0.4,0.4-0.8,0.7-1.1c0.3-0.3,0.7-0.6,1.1-0.8
		c0.4-0.2,0.9-0.3,1.4-0.3c0.1,0,0.3,0,0.4,0c0.2,0,0.3,0,0.5,0c0.2,0,0.3,0,0.4,0.1c0.1,0,0.2,0.1,0.3,0.1L320.6,102.2z"/>
	<path class="st2" d="M322.1,109.6c0.6-0.1,1.1-0.2,1.5-0.4c0.4-0.2,0.6-0.4,0.8-0.6c0.2-0.3,0.3-0.6,0.4-0.9
		c0.1-0.3,0.1-0.7,0.1-1.2v-5.7h1.5v5.1h2c0.2,0,0.4,0,0.5,0.1c0.1,0.1,0.2,0.2,0.2,0.4v0.6c0,0.1,0,0.2,0,0.3
		c0,0.1-0.1,0.1-0.1,0.2c-0.1,0-0.1,0.1-0.2,0.1c-0.1,0-0.2,0-0.2,0h-2.1c-0.1,0.6-0.2,1.1-0.4,1.5s-0.5,0.8-0.8,1
		c-0.3,0.3-0.7,0.5-1.2,0.7c-0.5,0.2-1,0.3-1.6,0.4L322.1,109.6z"/>
	<path class="st2" d="M333.1,105.4c0.3,0.2,0.6,0.3,1,0.4c0.4,0.1,0.7,0.1,1.1,0.1h0.6c0.2,0,0.3-0.1,0.4-0.2
		c0.1-0.2,0.2-0.4,0.2-0.7v-3.2h1.5v3.6c0.3,0.2,0.6,0.4,1,0.5c0.4,0.1,0.8,0.1,1.2,0.1h0.6c0.2,0,0.3-0.1,0.4-0.2
		c0.1-0.2,0.2-0.4,0.2-0.7v-4.1h1.5v4.4c0.3,0.2,0.6,0.4,1,0.5c0.4,0.1,0.8,0.2,1.4,0.2h0.1c0.2,0,0.4,0,0.5,0.1
		c0.1,0.1,0.2,0.2,0.2,0.4v0.6c0,0.1,0,0.2,0,0.3c0,0.1-0.1,0.1-0.1,0.2c-0.1,0-0.1,0.1-0.2,0.1c-0.1,0-0.2,0-0.2,0h-0.1
		c-0.6,0-1.1-0.1-1.6-0.3c-0.4-0.2-0.8-0.4-1-0.6c-0.1,0.3-0.3,0.5-0.6,0.6c-0.3,0.2-0.6,0.3-1,0.3h-0.9c-0.5,0-0.9-0.1-1.4-0.2
		s-0.8-0.3-1.2-0.7c-0.1,0.2-0.3,0.4-0.6,0.6s-0.6,0.2-0.9,0.2h-0.9c-0.2,0-0.4,0-0.7,0c-0.2,0-0.4-0.1-0.6-0.1
		c-0.2-0.1-0.4-0.1-0.6-0.2s-0.4-0.2-0.6-0.4c-0.1,0.2-0.3,0.4-0.6,0.5c-0.2,0.1-0.5,0.2-0.9,0.2h-2.8c-0.2,0-0.4,0-0.5-0.1
		c-0.1-0.1-0.2-0.2-0.2-0.4v-0.6c0-0.1,0-0.2,0-0.3c0-0.1,0.1-0.1,0.1-0.1c0.1,0,0.1-0.1,0.2-0.1c0.1,0,0.2,0,0.2,0h2.5
		c0.2,0,0.3-0.1,0.4-0.2c0.1-0.2,0.2-0.4,0.2-0.7v-2.5h1.5V105.4z"/>
	<path class="st2" d="M345.3,107.4c-0.2,0-0.4,0-0.5-0.1c-0.1-0.1-0.2-0.2-0.2-0.4v-0.6c0-0.1,0-0.2,0-0.3c0-0.1,0.1-0.1,0.1-0.1
		c0.1,0,0.1-0.1,0.2-0.1c0.1,0,0.2,0,0.2,0h2.3V95.1h1.5v12.3H345.3z"/>
	<path class="st2" d="M352.1,95.1h1.5v12.3h-1.5V95.1z"/>
</g>
<path class="st1" d="M132.7,122.2H30.8v0c0-16.3,13.2-29.5,29.5-29.5h101.9v0C162.2,109,149,122.2,132.7,122.2z"/>
<g>
	<path class="st2" d="M78,111.8c0-0.2,0-0.4,0-0.6c0-0.2-0.1-0.5-0.1-0.8c-0.1-0.3-0.1-0.5-0.2-0.8s-0.2-0.5-0.3-0.7l1.5-0.4
		c0.1,0.2,0.1,0.4,0.2,0.6s0.1,0.4,0.2,0.7c0.1,0.2,0.1,0.5,0.2,0.7c0,0.2,0.1,0.5,0.1,0.7c0.3,0.2,0.6,0.4,1,0.5
		c0.4,0.1,0.8,0.2,1.3,0.2h0.1c0.2,0,0.4,0,0.5,0.1c0.1,0.1,0.2,0.2,0.2,0.4v0.6c0,0.1,0,0.2,0,0.3c0,0.1-0.1,0.1-0.1,0.2
		s-0.1,0.1-0.2,0.1c-0.1,0-0.2,0-0.2,0h-0.1c-0.5,0-1-0.1-1.4-0.2s-0.7-0.3-1-0.5c-0.1,0.6-0.3,1.2-0.5,1.8s-0.6,1-1,1.4
		c-0.4,0.4-1,0.7-1.6,0.9c-0.6,0.2-1.3,0.3-2,0.3c-0.8,0-1.5-0.1-2.1-0.4s-1.1-0.6-1.5-1s-0.7-0.9-0.9-1.4c-0.2-0.5-0.3-1.1-0.3-1.7
		c0-0.3,0-0.6,0.1-0.9c0-0.3,0.1-0.6,0.2-0.9s0.2-0.6,0.3-0.8c0.1-0.3,0.2-0.5,0.4-0.7l1.3,0.7c-0.1,0.1-0.2,0.3-0.2,0.5
		s-0.1,0.4-0.2,0.6c-0.1,0.2-0.1,0.4-0.1,0.6c0,0.2,0,0.4,0,0.6c0,0.4,0.1,0.9,0.2,1.3s0.4,0.7,0.6,1s0.6,0.5,1,0.7
		c0.4,0.2,0.9,0.3,1.4,0.3c0.6,0,1.1-0.1,1.5-0.3c0.4-0.2,0.8-0.4,1.1-0.7s0.5-0.7,0.7-1.2S78,112.4,78,111.8z M74.6,105.3
		c0-0.1,0-0.2,0.1-0.4c0-0.1,0.1-0.2,0.2-0.3c0.1-0.1,0.2-0.1,0.3-0.2c0.1,0,0.2-0.1,0.4-0.1c0.1,0,0.2,0,0.4,0.1
		c0.1,0,0.2,0.1,0.3,0.2s0.1,0.2,0.2,0.3c0,0.1,0.1,0.2,0.1,0.4s0,0.2-0.1,0.4c0,0.1-0.1,0.2-0.2,0.3c-0.1,0.1-0.2,0.1-0.3,0.2
		c-0.1,0-0.2,0.1-0.4,0.1c-0.3,0-0.5-0.1-0.6-0.3C74.7,105.8,74.6,105.6,74.6,105.3z"/>
	<path class="st2" d="M85.8,111.3c0.3,0.2,0.6,0.3,0.9,0.4c0.4,0.1,0.8,0.1,1.3,0.1H88c0.2,0,0.4,0,0.5,0.1c0.1,0.1,0.2,0.2,0.2,0.4
		v0.6c0,0.1,0,0.2,0,0.3c0,0.1-0.1,0.1-0.1,0.2s-0.1,0.1-0.2,0.1c-0.1,0-0.2,0-0.2,0h-0.1c-0.6,0-1.1-0.1-1.5-0.2
		c-0.4-0.2-0.7-0.3-1-0.6c-0.1,0.2-0.3,0.4-0.6,0.6c-0.2,0.2-0.5,0.2-0.9,0.2h-2.1c-0.2,0-0.4,0-0.5-0.1s-0.2-0.2-0.2-0.4v-0.6
		c0-0.1,0-0.2,0-0.3c0-0.1,0.1-0.1,0.1-0.1c0.1,0,0.1-0.1,0.2-0.1c0.1,0,0.2,0,0.2,0h1.7c0.2,0,0.3-0.1,0.4-0.2
		c0.1-0.2,0.2-0.4,0.2-0.7v-4.1h1.5V111.3z M82.8,115.9c0-0.1,0-0.2,0.1-0.4c0-0.1,0.1-0.2,0.2-0.3s0.2-0.1,0.3-0.2
		c0.1,0,0.2-0.1,0.4-0.1s0.2,0,0.4,0.1c0.1,0,0.2,0.1,0.3,0.2c0.1,0.1,0.1,0.2,0.2,0.3c0,0.1,0.1,0.2,0.1,0.4s0,0.2-0.1,0.4
		c0,0.1-0.1,0.2-0.2,0.3c-0.1,0.1-0.2,0.1-0.3,0.2c-0.1,0-0.2,0.1-0.4,0.1c-0.3,0-0.5-0.1-0.6-0.3C82.9,116.4,82.8,116.2,82.8,115.9
		z M85.2,115.9c0-0.1,0-0.2,0.1-0.4c0-0.1,0.1-0.2,0.2-0.3s0.2-0.1,0.3-0.2c0.1,0,0.2-0.1,0.4-0.1c0.1,0,0.2,0,0.4,0.1
		c0.1,0,0.2,0.1,0.3,0.2s0.1,0.2,0.2,0.3c0,0.1,0.1,0.2,0.1,0.4s0,0.2-0.1,0.4c0,0.1-0.1,0.2-0.2,0.3s-0.2,0.1-0.3,0.2
		c-0.1,0-0.2,0.1-0.4,0.1c-0.3,0-0.5-0.1-0.6-0.3S85.2,116.2,85.2,115.9z"/>
	<path class="st2" d="M88,113.3c-0.2,0-0.4,0-0.5-0.1s-0.2-0.2-0.2-0.4v-0.6c0-0.1,0-0.2,0-0.3c0-0.1,0.1-0.1,0.1-0.1
		c0.1,0,0.1-0.1,0.2-0.1c0.1,0,0.2,0,0.2,0h2.6c0.4,0,0.7,0,1-0.1c0.3,0,0.5-0.1,0.6-0.2c0.1-0.1,0.3-0.2,0.3-0.3
		c0.1-0.1,0.1-0.3,0.1-0.5c0-0.3-0.1-0.6-0.2-0.8c-0.2-0.3-0.4-0.6-0.7-0.8c-0.3-0.3-0.6-0.6-1-0.8s-0.8-0.5-1.3-0.8l3.4-5.9
		l1.1,0.8l-2.6,4.6c0.4,0.2,0.8,0.5,1.1,0.8c0.3,0.3,0.6,0.6,0.9,0.9c0.2,0.3,0.4,0.6,0.6,1c0.1,0.3,0.2,0.7,0.2,1.1
		c0,0.2,0,0.5-0.1,0.7c0.3,0.2,0.6,0.3,0.9,0.4c0.4,0.1,0.8,0.1,1.3,0.1h0.1c0.2,0,0.4,0,0.5,0.1c0.1,0.1,0.2,0.2,0.2,0.4v0.6
		c0,0.1,0,0.2,0,0.3c0,0.1-0.1,0.1-0.1,0.2s-0.1,0.1-0.2,0.1c-0.1,0-0.2,0-0.2,0h-0.1c-0.3,0-0.6,0-0.9-0.1c-0.3,0-0.5-0.1-0.7-0.2
		c-0.2-0.1-0.4-0.2-0.6-0.3c-0.2-0.1-0.3-0.2-0.5-0.4c-0.3,0.3-0.6,0.5-1,0.7c-0.4,0.2-1,0.3-1.6,0.3H88z"/>
	<path class="st2" d="M98.9,112.2c-0.1,0.2-0.2,0.4-0.4,0.6c-0.1,0.2-0.3,0.3-0.4,0.4c-0.2,0.1-0.3,0.2-0.5,0.2s-0.4,0.1-0.6,0.1
		h-0.7c-0.2,0-0.4,0-0.5-0.1s-0.2-0.2-0.2-0.4v-0.6c0-0.1,0-0.2,0-0.3c0-0.1,0.1-0.1,0.1-0.1c0.1,0,0.1-0.1,0.2-0.1
		c0.1,0,0.2,0,0.2,0h0.4c0.4,0,0.7-0.1,0.9-0.2c0.3-0.2,0.5-0.4,0.6-0.8c0.2-0.6,0.4-1.1,0.6-1.6c0.2-0.4,0.4-0.8,0.6-1.1
		s0.5-0.6,0.7-0.8c0.2-0.2,0.5-0.3,0.7-0.5s0.4-0.2,0.7-0.2c0.2,0,0.4-0.1,0.6-0.1c0.4,0,0.7,0.1,1,0.2c0.3,0.1,0.6,0.3,0.8,0.4
		s0.5,0.4,0.6,0.6c0.2,0.2,0.3,0.5,0.5,0.8c0.1,0.3,0.2,0.5,0.3,0.8c0.1,0.3,0.1,0.5,0.1,0.8c0,0.3-0.1,0.6-0.2,1
		c0.3,0.2,0.6,0.4,0.9,0.5c0.4,0.1,0.8,0.2,1.3,0.2h0.1c0.2,0,0.4,0,0.5,0.1c0.1,0.1,0.2,0.2,0.2,0.4v0.6c0,0.1,0,0.2,0,0.3
		c0,0.1-0.1,0.1-0.1,0.2s-0.1,0.1-0.2,0.1c-0.1,0-0.2,0-0.2,0h-0.1c-0.4,0-0.7,0-1-0.1c-0.3-0.1-0.5-0.1-0.8-0.2s-0.4-0.2-0.6-0.4
		c-0.2-0.1-0.3-0.3-0.5-0.4c-0.3,0.3-0.6,0.6-1.1,0.9c-0.4,0.2-0.9,0.3-1.5,0.3c-0.4,0-0.7,0-1-0.1c-0.3-0.1-0.6-0.2-0.9-0.3
		s-0.5-0.3-0.7-0.4C99.2,112.5,99,112.3,98.9,112.2z M103.9,110.4c0-0.2,0-0.5-0.1-0.7c-0.1-0.3-0.2-0.5-0.4-0.8
		c-0.2-0.2-0.4-0.4-0.6-0.6s-0.6-0.2-0.9-0.2c-0.3,0-0.6,0.1-0.9,0.3c-0.3,0.2-0.5,0.4-0.7,0.7c-0.2,0.3-0.4,0.6-0.5,1
		s-0.2,0.8-0.3,1.2c0.1,0.1,0.2,0.2,0.3,0.3s0.4,0.2,0.6,0.2c0.2,0.1,0.5,0.1,0.7,0.2s0.5,0.1,0.7,0.1c0.3,0,0.6,0,0.9-0.1
		s0.5-0.1,0.7-0.2c0.2-0.1,0.3-0.3,0.4-0.5C103.9,110.9,103.9,110.7,103.9,110.4z"/>
	<path class="st2" d="M111.3,111.3c0.3,0.2,0.6,0.3,0.9,0.4c0.4,0.1,0.8,0.1,1.3,0.1h0.1c0.2,0,0.4,0,0.5,0.1
		c0.1,0.1,0.2,0.2,0.2,0.4v0.6c0,0.1,0,0.2,0,0.3c0,0.1-0.1,0.1-0.1,0.2s-0.1,0.1-0.2,0.1c-0.1,0-0.2,0-0.2,0h-0.1
		c-0.6,0-1.1-0.1-1.5-0.2c-0.4-0.2-0.7-0.3-1-0.6c-0.1,0.2-0.3,0.4-0.6,0.6c-0.2,0.2-0.5,0.2-0.9,0.2h-2.1c-0.2,0-0.4,0-0.5-0.1
		s-0.2-0.2-0.2-0.4v-0.6c0-0.1,0-0.2,0-0.3c0-0.1,0.1-0.1,0.1-0.1c0.1,0,0.1-0.1,0.2-0.1c0.1,0,0.2,0,0.2,0h1.7
		c0.2,0,0.3-0.1,0.4-0.2c0.1-0.2,0.2-0.4,0.2-0.7v-4.1h1.5V111.3z M108.4,103.6c0-0.1,0-0.2,0.1-0.4c0-0.1,0.1-0.2,0.2-0.3
		c0.1-0.1,0.2-0.1,0.3-0.2c0.1,0,0.2-0.1,0.4-0.1c0.1,0,0.2,0,0.4,0.1c0.1,0,0.2,0.1,0.3,0.2c0.1,0.1,0.1,0.2,0.2,0.3
		c0,0.1,0.1,0.2,0.1,0.4s0,0.2-0.1,0.4c0,0.1-0.1,0.2-0.2,0.3s-0.2,0.1-0.3,0.2c-0.1,0-0.2,0.1-0.4,0.1c-0.3,0-0.5-0.1-0.6-0.3
		C108.5,104.1,108.4,103.9,108.4,103.6z M110.8,103.6c0-0.1,0-0.2,0.1-0.4c0-0.1,0.1-0.2,0.2-0.3c0.1-0.1,0.2-0.1,0.3-0.2
		c0.1,0,0.2-0.1,0.4-0.1s0.2,0,0.4,0.1c0.1,0,0.2,0.1,0.3,0.2c0.1,0.1,0.1,0.2,0.2,0.3c0,0.1,0.1,0.2,0.1,0.4s0,0.2-0.1,0.4
		c0,0.1-0.1,0.2-0.2,0.3s-0.2,0.1-0.3,0.2c-0.1,0-0.2,0.1-0.4,0.1c-0.3,0-0.5-0.1-0.6-0.3C110.9,104.1,110.8,103.9,110.8,103.6z"/>
	<path class="st2" d="M113.6,113.3c-0.2,0-0.4,0-0.5-0.1s-0.2-0.2-0.2-0.4v-0.6c0-0.1,0-0.2,0-0.3c0-0.1,0.1-0.1,0.1-0.1
		c0.1,0,0.1-0.1,0.2-0.1c0.1,0,0.2,0,0.2,0h2.3V101h1.5v12.3H113.6z"/>
	<path class="st2" d="M120.4,101h1.5v12.3h-1.5V101z"/>
</g>
<path class="st1" d="M250.7,196.4H148.8v0c0-16.3,13.2-29.5,29.5-29.5h101.9v0C280.2,183.2,267,196.4,250.7,196.4z"/>
<g>
	<path class="st2" d="M195.4,187.6c-0.5,0-0.9-0.1-1.3-0.2c-0.4-0.2-0.7-0.4-1-0.6c-0.3-0.3-0.5-0.6-0.6-1c-0.1-0.4-0.2-0.8-0.2-1.2
		c0-0.7,0.1-1.3,0.3-1.8c0.2-0.5,0.5-1,0.8-1.3c0.3-0.4,0.7-0.6,1.1-0.8c0.4-0.2,0.8-0.3,1.1-0.3c0.4,0,0.8,0.1,1.2,0.3
		c0.4,0.2,0.7,0.4,1,0.8c0.3,0.3,0.6,0.8,0.8,1.3c0.2,0.5,0.3,1.1,0.3,1.8c0,0.4-0.1,0.8-0.2,1.1s-0.3,0.7-0.6,1
		c-0.3,0.3-0.6,0.5-1,0.7s-0.8,0.2-1.2,0.2H195.4z M193.4,177.8c0-0.1,0-0.2,0.1-0.4c0-0.1,0.1-0.2,0.2-0.3s0.2-0.1,0.3-0.2
		s0.2-0.1,0.4-0.1s0.2,0,0.4,0.1c0.1,0,0.2,0.1,0.3,0.2s0.1,0.2,0.2,0.3c0,0.1,0.1,0.2,0.1,0.4s0,0.2-0.1,0.4c0,0.1-0.1,0.2-0.2,0.3
		c-0.1,0.1-0.2,0.1-0.3,0.2c-0.1,0-0.2,0.1-0.4,0.1c-0.3,0-0.5-0.1-0.6-0.3S193.4,178.1,193.4,177.8z M193.7,184.3
		c0,0.6,0.2,1,0.5,1.3c0.3,0.3,0.8,0.4,1.4,0.4h0.2c0.3,0,0.5,0,0.7-0.1s0.4-0.2,0.5-0.4c0.1-0.2,0.2-0.3,0.3-0.6
		c0.1-0.2,0.1-0.4,0.1-0.7c0-0.4-0.1-0.8-0.2-1.1c-0.1-0.3-0.3-0.6-0.4-0.8c-0.2-0.2-0.4-0.4-0.6-0.5c-0.2-0.1-0.4-0.2-0.6-0.2
		c-0.2,0-0.5,0.1-0.7,0.2c-0.2,0.1-0.4,0.3-0.6,0.5s-0.3,0.5-0.4,0.8C193.7,183.5,193.7,183.9,193.7,184.3z M195.9,177.8
		c0-0.1,0-0.2,0.1-0.4c0-0.1,0.1-0.2,0.2-0.3c0.1-0.1,0.2-0.1,0.3-0.2c0.1,0,0.2-0.1,0.4-0.1s0.2,0,0.4,0.1c0.1,0,0.2,0.1,0.3,0.2
		s0.1,0.2,0.2,0.3c0,0.1,0.1,0.2,0.1,0.4s0,0.2-0.1,0.4c0,0.1-0.1,0.2-0.2,0.3c-0.1,0.1-0.2,0.1-0.3,0.2c-0.1,0-0.2,0.1-0.4,0.1
		c-0.3,0-0.5-0.1-0.6-0.3C195.9,178.3,195.9,178.1,195.9,177.8z"/>
	<path class="st2" d="M200.6,187.6V186h2.9c0.4,0,0.7,0,1-0.1c0.3,0,0.5-0.1,0.6-0.2s0.3-0.2,0.3-0.3s0.1-0.3,0.1-0.5
		c0-0.3-0.1-0.6-0.2-1c-0.2-0.3-0.4-0.7-0.6-1s-0.6-0.7-0.9-1s-0.7-0.6-1-0.9l1.1-1.1c0.4,0.3,0.7,0.7,1.1,1.1
		c0.4,0.4,0.7,0.8,1,1.2s0.5,0.8,0.7,1.3c0.2,0.4,0.3,0.9,0.3,1.3c0,0.4-0.1,0.8-0.2,1.1c-0.1,0.3-0.3,0.6-0.6,0.9
		c-0.3,0.2-0.6,0.4-1,0.6c-0.4,0.1-0.9,0.2-1.5,0.2H200.6z"/>
	<path class="st2" d="M213.1,187.6c-0.7,0-1.3-0.1-1.8-0.3c-0.5-0.2-0.9-0.5-1.2-0.8c-0.3-0.3-0.5-0.7-0.6-1.1
		c-0.1-0.4-0.2-0.8-0.2-1.2c0-0.5,0.1-1,0.3-1.4c0.2-0.4,0.4-0.8,0.7-1.1c0.3-0.3,0.7-0.6,1.2-0.8c0.4-0.2,1-0.3,1.5-0.3
		c0.2,0,0.5,0,0.7,0.1c0.2,0,0.5,0.1,0.7,0.2c0.2,0.1,0.5,0.3,0.7,0.5c0.2,0.2,0.4,0.4,0.6,0.7c0.2,0.3,0.3,0.6,0.4,1
		c0.1,0.4,0.1,0.9,0.1,1.4v1.5h1.9c0.2,0,0.4,0,0.5,0.1c0.1,0.1,0.2,0.2,0.2,0.4v0.6c0,0.1,0,0.2,0,0.3c0,0.1-0.1,0.1-0.1,0.2
		c-0.1,0-0.1,0.1-0.2,0.1c-0.1,0-0.2,0-0.2,0h-2c-0.1,0.6-0.4,1.2-0.7,1.6c-0.3,0.4-0.7,0.8-1.2,1.1s-1,0.5-1.6,0.7
		c-0.6,0.2-1.3,0.3-2,0.3l-0.2-1.5c1.2-0.1,2.1-0.3,2.8-0.7s1.2-0.9,1.3-1.5H213.1z M214.6,186v-1c0-0.6-0.1-1.1-0.2-1.5
		c-0.1-0.4-0.3-0.7-0.4-0.9c-0.2-0.2-0.4-0.4-0.6-0.4c-0.2-0.1-0.5-0.1-0.7-0.1c-0.3,0-0.5,0-0.7,0.1c-0.2,0.1-0.4,0.2-0.6,0.4
		c-0.2,0.2-0.3,0.4-0.4,0.6c-0.1,0.2-0.1,0.5-0.1,0.8c0,0.3,0,0.5,0.1,0.7c0.1,0.2,0.2,0.4,0.4,0.6s0.4,0.3,0.7,0.4
		c0.3,0.1,0.6,0.2,1,0.2H214.6z"/>
	<path class="st2" d="M219.6,180.8c0.3-0.1,0.7-0.2,1-0.3c0.3-0.1,0.7-0.1,1.2-0.1c0.4,0,0.8,0.1,1.2,0.2s0.6,0.3,0.9,0.6
		s0.4,0.5,0.6,0.9c0.2,0.3,0.3,0.7,0.3,1.1c0.1,0.4,0.1,0.7,0.2,1.1c0.1,0.3,0.1,0.6,0.2,0.9c0.1,0.3,0.2,0.5,0.3,0.6
		c0.1,0.2,0.3,0.2,0.5,0.2h0.8c0.2,0,0.4,0,0.5,0.1c0.1,0.1,0.2,0.2,0.2,0.4v0.6c0,0.1,0,0.2,0,0.3c0,0.1-0.1,0.1-0.1,0.2
		c-0.1,0-0.1,0.1-0.2,0.1c-0.1,0-0.2,0-0.2,0H218c-0.2,0-0.4,0-0.5-0.1c-0.1-0.1-0.2-0.2-0.2-0.4v-0.6c0-0.1,0-0.2,0-0.3
		c0-0.1,0.1-0.1,0.1-0.2c0.1,0,0.1-0.1,0.2-0.1s0.2,0,0.2,0h6.1c-0.1-0.1-0.2-0.3-0.3-0.5s-0.1-0.5-0.2-0.8c0-0.3-0.1-0.7-0.2-1
		s-0.2-0.6-0.3-0.9c-0.2-0.3-0.4-0.5-0.6-0.6c-0.3-0.2-0.6-0.2-1.1-0.2c-0.1,0-0.3,0-0.4,0c-0.2,0-0.3,0-0.5,0.1s-0.3,0.1-0.5,0.1
		s-0.3,0.1-0.4,0.1V180.8z M221.1,190.1c0-0.1,0-0.2,0.1-0.4c0-0.1,0.1-0.2,0.2-0.3s0.2-0.1,0.3-0.2c0.1,0,0.2-0.1,0.4-0.1
		s0.2,0,0.4,0.1c0.1,0,0.2,0.1,0.3,0.2c0.1,0.1,0.1,0.2,0.2,0.3c0,0.1,0.1,0.2,0.1,0.4s0,0.2-0.1,0.4c0,0.1-0.1,0.2-0.2,0.3
		c-0.1,0.1-0.2,0.1-0.3,0.2c-0.1,0-0.2,0.1-0.4,0.1c-0.3,0-0.5-0.1-0.6-0.3C221.2,190.6,221.1,190.4,221.1,190.1z"/>
	<path class="st2" d="M226.8,187.6c-0.2,0-0.4,0-0.5-0.1c-0.1-0.1-0.2-0.2-0.2-0.4v-0.6c0-0.1,0-0.2,0-0.3c0-0.1,0.1-0.1,0.1-0.2
		c0.1,0,0.1-0.1,0.2-0.1s0.2,0,0.2,0h2.3v-10.8h1.5v12.3H226.8z"/>
	<path class="st2" d="M233.6,175.2h1.5v12.3h-1.5V175.2z"/>
</g>
<path class="st1" d="M367.6,270.6H265.7v0c0-16.3,13.2-29.5,29.5-29.5h101.9v0C397.1,257.4,383.8,270.6,367.6,270.6z"/>
<g>
	<path class="st2" d="M299.5,259c0,0.2,0,0.4,0,0.6c0,0.2,0.1,0.3,0.2,0.4c0.1,0.1,0.2,0.2,0.3,0.2c0.1,0,0.3,0.1,0.6,0.1h0.6
		c0.2,0,0.4,0,0.5,0.1c0.1,0.1,0.2,0.2,0.2,0.4v0.6c0,0.1,0,0.2,0,0.3c0,0.1-0.1,0.1-0.1,0.2s-0.1,0.1-0.2,0.1c-0.1,0-0.2,0-0.2,0
		h-1c-0.4,0-0.7,0-1-0.1c-0.3-0.1-0.5-0.2-0.7-0.3s-0.3-0.3-0.4-0.4c-0.1-0.2-0.2-0.3-0.2-0.5c-0.4,0.3-0.8,0.4-1.2,0.5
		c-0.4,0.1-0.8,0.2-1.2,0.2c-0.3,0-0.7,0-1-0.1c-0.3-0.1-0.7-0.3-0.9-0.5s-0.5-0.5-0.7-0.8s-0.3-0.7-0.3-1.2c0-0.4,0.1-0.8,0.3-1.2
		c0.2-0.3,0.4-0.6,0.7-0.9c0.3-0.3,0.6-0.5,1-0.7s0.8-0.4,1.1-0.5c0.4-0.2,0.8-0.3,1.2-0.4s0.7-0.2,1-0.3v-0.9h1.5V259z M297.9,256
		c-0.6,0.1-1.1,0.2-1.6,0.4c-0.5,0.1-0.9,0.3-1.2,0.5s-0.6,0.4-0.8,0.7c-0.2,0.2-0.3,0.5-0.3,0.8c0,0.3,0.1,0.5,0.2,0.6
		c0.1,0.2,0.2,0.3,0.4,0.4c0.2,0.1,0.4,0.2,0.6,0.2s0.4,0.1,0.6,0.1c0.4,0,0.8-0.1,1.1-0.2c0.3-0.1,0.6-0.2,0.9-0.4V256z
		 M295.2,251.6c0-0.1,0-0.2,0.1-0.4c0-0.1,0.1-0.2,0.2-0.3s0.2-0.1,0.3-0.2c0.1,0,0.2-0.1,0.4-0.1s0.2,0,0.4,0.1
		c0.1,0,0.2,0.1,0.3,0.2c0.1,0.1,0.1,0.2,0.2,0.3c0,0.1,0.1,0.2,0.1,0.4c0,0.1,0,0.2-0.1,0.4c0,0.1-0.1,0.2-0.2,0.3
		c-0.1,0.1-0.2,0.1-0.3,0.2c-0.1,0-0.2,0.1-0.4,0.1c-0.3,0-0.5-0.1-0.6-0.3C295.3,252.1,295.2,251.9,295.2,251.6z M297.6,251.6
		c0-0.1,0-0.2,0.1-0.4c0-0.1,0.1-0.2,0.2-0.3s0.2-0.1,0.3-0.2c0.1,0,0.2-0.1,0.4-0.1c0.1,0,0.2,0,0.4,0.1c0.1,0,0.2,0.1,0.3,0.2
		s0.1,0.2,0.2,0.3c0,0.1,0.1,0.2,0.1,0.4c0,0.1,0,0.2-0.1,0.4c0,0.1-0.1,0.2-0.2,0.3s-0.2,0.1-0.3,0.2c-0.1,0-0.2,0.1-0.4,0.1
		c-0.3,0-0.5-0.1-0.6-0.3C297.7,252.1,297.6,251.9,297.6,251.6z"/>
	<path class="st2" d="M305.1,259.7c0.3,0.2,0.6,0.3,0.9,0.4c0.4,0.1,0.8,0.1,1.3,0.1h0.1c0.2,0,0.4,0,0.5,0.1
		c0.1,0.1,0.2,0.2,0.2,0.4v0.6c0,0.1,0,0.2,0,0.3c0,0.1-0.1,0.1-0.1,0.2c-0.1,0-0.1,0.1-0.2,0.1c-0.1,0-0.2,0-0.2,0h-0.1
		c-0.6,0-1.1-0.1-1.5-0.2c-0.4-0.2-0.7-0.3-1-0.6c-0.1,0.2-0.3,0.4-0.6,0.6s-0.5,0.2-0.9,0.2h-2.1c-0.2,0-0.4,0-0.5-0.1
		c-0.1-0.1-0.2-0.2-0.2-0.4v-0.6c0-0.1,0-0.2,0-0.3c0-0.1,0.1-0.1,0.1-0.2c0.1,0,0.1-0.1,0.2-0.1s0.2,0,0.2,0h1.7
		c0.2,0,0.3-0.1,0.4-0.2s0.2-0.4,0.2-0.7v-4.1h1.5V259.7z M302.1,264.4c0-0.1,0-0.2,0.1-0.4c0-0.1,0.1-0.2,0.2-0.3
		c0.1-0.1,0.2-0.1,0.3-0.2c0.1,0,0.2-0.1,0.4-0.1s0.2,0,0.4,0.1c0.1,0,0.2,0.1,0.3,0.2s0.1,0.2,0.2,0.3s0.1,0.2,0.1,0.4
		s0,0.2-0.1,0.4c0,0.1-0.1,0.2-0.2,0.3s-0.2,0.1-0.3,0.2s-0.2,0.1-0.4,0.1c-0.3,0-0.5-0.1-0.6-0.3
		C302.2,264.8,302.1,264.6,302.1,264.4z M304.5,264.4c0-0.1,0-0.2,0.1-0.4c0-0.1,0.1-0.2,0.2-0.3s0.2-0.1,0.3-0.2
		c0.1,0,0.2-0.1,0.4-0.1s0.2,0,0.4,0.1c0.1,0,0.2,0.1,0.3,0.2s0.1,0.2,0.2,0.3s0.1,0.2,0.1,0.4s0,0.2-0.1,0.4c0,0.1-0.1,0.2-0.2,0.3
		s-0.2,0.1-0.3,0.2c-0.1,0-0.2,0.1-0.4,0.1c-0.3,0-0.5-0.1-0.6-0.3C304.6,264.8,304.5,264.6,304.5,264.4z"/>
	<path class="st2" d="M309.6,258.3c0-0.5,0.1-1,0.3-1.4c0.2-0.4,0.4-0.8,0.7-1.1c0.3-0.3,0.7-0.6,1.1-0.7c0.4-0.2,0.9-0.3,1.4-0.3
		c0.5,0,0.9,0.1,1.3,0.2s0.7,0.4,1,0.7c0.3,0.3,0.5,0.7,0.6,1.1s0.2,0.9,0.2,1.5v3.5h-8.9c-0.2,0-0.4,0-0.5-0.1
		c-0.1-0.1-0.2-0.2-0.2-0.4v-0.6c0-0.1,0-0.2,0-0.3c0-0.1,0.1-0.1,0.1-0.2c0.1,0,0.1-0.1,0.2-0.1s0.2,0,0.2,0h2.8v-0.1
		c-0.1-0.1-0.1-0.2-0.2-0.3c-0.1-0.1-0.1-0.3-0.2-0.4c-0.1-0.2-0.1-0.3-0.1-0.5C309.6,258.7,309.6,258.5,309.6,258.3z M310.7,252.1
		c0-0.1,0-0.2,0.1-0.4s0.1-0.2,0.2-0.3s0.2-0.1,0.3-0.2c0.1,0,0.2-0.1,0.4-0.1s0.2,0,0.4,0.1c0.1,0,0.2,0.1,0.3,0.2s0.1,0.2,0.2,0.3
		c0,0.1,0.1,0.2,0.1,0.4s0,0.2-0.1,0.4c0,0.1-0.1,0.2-0.2,0.3c-0.1,0.1-0.2,0.1-0.3,0.2c-0.1,0-0.2,0.1-0.4,0.1
		c-0.3,0-0.5-0.1-0.6-0.3C310.8,252.5,310.7,252.3,310.7,252.1z M314.7,260.2v-1.6c0-0.4,0-0.8-0.2-1.1c-0.1-0.3-0.2-0.5-0.4-0.7
		c-0.2-0.2-0.4-0.3-0.6-0.4c-0.2-0.1-0.4-0.1-0.7-0.1c-0.3,0-0.5,0-0.7,0.1c-0.2,0.1-0.4,0.2-0.6,0.4s-0.3,0.4-0.4,0.6
		c-0.1,0.2-0.1,0.5-0.1,0.8c0,0.3,0.1,0.6,0.2,0.8c0.1,0.2,0.3,0.4,0.5,0.6s0.4,0.3,0.7,0.4c0.3,0.1,0.6,0.1,1,0.1H314.7z
		 M313.1,252.1c0-0.1,0-0.2,0.1-0.4s0.1-0.2,0.2-0.3s0.2-0.1,0.3-0.2c0.1,0,0.2-0.1,0.4-0.1s0.2,0,0.4,0.1s0.2,0.1,0.3,0.2
		s0.1,0.2,0.2,0.3s0.1,0.2,0.1,0.4s0,0.2-0.1,0.4s-0.1,0.2-0.2,0.3c-0.1,0.1-0.2,0.1-0.3,0.2c-0.1,0-0.2,0.1-0.4,0.1
		c-0.3,0-0.5-0.1-0.6-0.3C313.2,252.5,313.1,252.3,313.1,252.1z"/>
	<path class="st2" d="M319.1,249.5h1.5v12.3h-1.5V249.5z"/>
	<path class="st2" d="M322.8,261.8v-1.5h2.9c0.4,0,0.7,0,1-0.1c0.3,0,0.5-0.1,0.6-0.2c0.1-0.1,0.3-0.2,0.3-0.3
		c0.1-0.1,0.1-0.3,0.1-0.5c0-0.3-0.1-0.6-0.2-1s-0.4-0.7-0.6-1c-0.3-0.3-0.6-0.7-0.9-1s-0.7-0.6-1-0.9l1.1-1.1
		c0.4,0.3,0.7,0.7,1.1,1.1c0.4,0.4,0.7,0.8,1,1.2s0.5,0.8,0.7,1.3c0.2,0.4,0.3,0.9,0.3,1.3c0,0.2,0,0.4-0.1,0.6
		c0.3,0.2,0.6,0.4,1,0.5c0.4,0.1,0.8,0.1,1.3,0.1h0.1c0.2,0,0.4,0,0.5,0.1c0.1,0.1,0.2,0.2,0.2,0.4v0.6c0,0.1,0,0.2,0,0.3
		c0,0.1-0.1,0.1-0.1,0.2c-0.1,0-0.1,0.1-0.2,0.1c-0.1,0-0.2,0-0.2,0h-0.1c-0.3,0-0.6,0-0.9-0.1c-0.3-0.1-0.5-0.1-0.7-0.2
		c-0.2-0.1-0.4-0.2-0.6-0.3s-0.3-0.3-0.5-0.4c-0.3,0.3-0.6,0.6-1,0.8c-0.4,0.2-1,0.3-1.7,0.3H322.8z"/>
	<path class="st2" d="M335.3,259.6c0.3,0.2,0.6,0.4,1,0.5s0.8,0.1,1.3,0.1c0.1-0.3,0.3-0.7,0.4-1.1s0.4-0.8,0.7-1.3s0.6-0.8,0.9-1.2
		s0.7-0.8,1.1-1.1c0.4-0.3,0.8-0.6,1.3-0.8c0.5-0.2,1-0.3,1.5-0.3c0.7,0,1.2,0.1,1.7,0.3s0.9,0.5,1.2,0.9s0.5,0.8,0.7,1.3
		c0.1,0.5,0.2,1.1,0.2,1.7v1.5h1.8c0.2,0,0.4,0,0.5,0.1c0.1,0.1,0.2,0.2,0.2,0.4v0.6c0,0.1,0,0.2,0,0.3c0,0.1-0.1,0.1-0.1,0.2
		c-0.1,0-0.1,0.1-0.2,0.1c-0.1,0-0.2,0-0.2,0h-11.4c-0.2,0-0.5,0-0.7,0c-0.2,0-0.5-0.1-0.7-0.2c-0.2-0.1-0.4-0.2-0.6-0.3
		c-0.2-0.1-0.4-0.2-0.6-0.4c-0.1,0.2-0.3,0.4-0.6,0.6s-0.6,0.2-0.9,0.2h-2c-0.2,0-0.4,0-0.5-0.1c-0.1-0.1-0.2-0.2-0.2-0.4v-0.6
		c0-0.1,0-0.2,0-0.3c0-0.1,0.1-0.1,0.1-0.2c0.1,0,0.1-0.1,0.2-0.1s0.2,0,0.2,0h1.7c0.2,0,0.3-0.1,0.4-0.2c0.1-0.2,0.2-0.4,0.2-0.7
		v-2.5h1.5V259.6z M345.6,258.9c0-0.6-0.1-1-0.2-1.4c-0.1-0.4-0.3-0.7-0.5-0.9c-0.2-0.2-0.5-0.4-0.7-0.5s-0.6-0.1-0.9-0.1
		c-0.4,0-0.7,0.1-1,0.2s-0.6,0.3-0.9,0.5c-0.3,0.2-0.6,0.5-0.8,0.7c-0.2,0.3-0.5,0.6-0.7,0.9c-0.2,0.3-0.4,0.6-0.5,1
		c-0.1,0.3-0.3,0.6-0.3,0.9h6.6V258.9z"/>
	<path class="st2" d="M351.6,260.6c-0.1,0.2-0.2,0.4-0.4,0.6c-0.1,0.2-0.3,0.3-0.4,0.4c-0.2,0.1-0.3,0.2-0.5,0.2
		c-0.2,0-0.4,0.1-0.6,0.1H349c-0.2,0-0.4,0-0.5-0.1c-0.1-0.1-0.2-0.2-0.2-0.4v-0.6c0-0.1,0-0.2,0-0.3c0-0.1,0.1-0.1,0.1-0.2
		c0.1,0,0.1-0.1,0.2-0.1s0.2,0,0.2,0h0.4c0.4,0,0.7-0.1,0.9-0.2c0.3-0.2,0.5-0.4,0.6-0.8c0.2-0.6,0.4-1.1,0.6-1.6s0.4-0.8,0.6-1.1
		c0.2-0.3,0.5-0.6,0.7-0.8c0.2-0.2,0.5-0.3,0.7-0.5c0.2-0.1,0.4-0.2,0.7-0.2s0.4-0.1,0.6-0.1c0.4,0,0.7,0.1,1,0.2
		c0.3,0.1,0.6,0.3,0.8,0.4c0.2,0.2,0.5,0.4,0.6,0.6c0.2,0.2,0.3,0.5,0.5,0.8c0.1,0.3,0.2,0.5,0.3,0.8c0.1,0.3,0.1,0.5,0.1,0.8
		c0,0.3-0.1,0.7-0.2,1c0.3,0.2,0.6,0.4,0.9,0.5c0.4,0.1,0.8,0.1,1.3,0.1h0.1c0.2,0,0.4,0,0.5,0.1c0.1,0.1,0.2,0.2,0.2,0.4v0.6
		c0,0.1,0,0.2,0,0.3c0,0.1-0.1,0.1-0.1,0.2c-0.1,0-0.1,0.1-0.2,0.1c-0.1,0-0.2,0-0.2,0h-0.1c-0.4,0-0.7,0-1-0.1
		c-0.3-0.1-0.5-0.1-0.8-0.2c-0.2-0.1-0.4-0.2-0.6-0.4s-0.3-0.3-0.5-0.4c-0.3,0.3-0.6,0.6-1.1,0.9c-0.4,0.2-0.9,0.3-1.5,0.3
		c-0.4,0-0.7,0-1-0.1s-0.6-0.2-0.9-0.3c-0.3-0.1-0.5-0.3-0.7-0.4C351.9,260.9,351.7,260.7,351.6,260.6z M356.7,258.8
		c0-0.2,0-0.5-0.1-0.7c-0.1-0.3-0.2-0.5-0.4-0.8s-0.4-0.4-0.6-0.6c-0.3-0.2-0.6-0.2-0.9-0.2c-0.3,0-0.6,0.1-0.9,0.3
		s-0.5,0.4-0.7,0.7c-0.2,0.3-0.4,0.6-0.5,1s-0.2,0.8-0.3,1.2c0.1,0.1,0.2,0.2,0.3,0.3c0.2,0.1,0.4,0.2,0.6,0.2
		c0.2,0.1,0.5,0.1,0.7,0.2s0.5,0.1,0.7,0.1c0.3,0,0.6,0,0.9-0.1c0.3,0,0.5-0.1,0.7-0.2c0.2-0.1,0.3-0.3,0.4-0.5
		S356.7,259.1,356.7,258.8z"/>
	<path class="st2" d="M360.2,261.8c-0.2,0-0.4,0-0.5-0.1c-0.1-0.1-0.2-0.2-0.2-0.4v-0.6c0-0.1,0-0.2,0-0.3c0-0.1,0.1-0.1,0.1-0.2
		c0.1,0,0.1-0.1,0.2-0.1s0.2,0,0.2,0h2.3v-10.8h1.5v12.3H360.2z"/>
	<path class="st2" d="M367,249.5h1.5v12.3H367V249.5z"/>
</g>
<path class="st1" d="M133.9,276.5H32v0c0-16.3,13.2-29.5,29.5-29.5h101.9v0C163.4,263.3,150.1,276.5,133.9,276.5z"/>
<g>
	<path class="st2" d="M87.3,264.9c0,0.2,0,0.4,0,0.6c0,0.2,0.1,0.3,0.2,0.4c0.1,0.1,0.2,0.2,0.3,0.2s0.3,0.1,0.6,0.1H89
		c0.2,0,0.4,0,0.5,0.1s0.2,0.2,0.2,0.4v0.6c0,0.1,0,0.2,0,0.3c0,0.1-0.1,0.1-0.1,0.2s-0.1,0.1-0.2,0.1c-0.1,0-0.2,0-0.2,0h-1
		c-0.4,0-0.7,0-1-0.1c-0.3-0.1-0.5-0.2-0.7-0.3c-0.2-0.1-0.3-0.3-0.4-0.4c-0.1-0.2-0.2-0.3-0.2-0.5c-0.4,0.3-0.8,0.4-1.2,0.5
		c-0.4,0.1-0.8,0.2-1.2,0.2c-0.3,0-0.7,0-1-0.1c-0.3-0.1-0.7-0.3-0.9-0.5c-0.3-0.2-0.5-0.5-0.7-0.8s-0.3-0.7-0.3-1.2
		c0-0.4,0.1-0.8,0.3-1.2s0.4-0.6,0.7-0.9c0.3-0.3,0.6-0.5,1-0.7s0.8-0.4,1.1-0.5s0.8-0.3,1.2-0.4s0.7-0.2,1-0.3v-0.9h1.5V264.9z
		 M85.7,261.9c-0.6,0.1-1.1,0.2-1.6,0.4c-0.5,0.1-0.9,0.3-1.2,0.5s-0.6,0.4-0.8,0.7s-0.3,0.5-0.3,0.8c0,0.3,0.1,0.5,0.2,0.6
		s0.2,0.3,0.4,0.4c0.2,0.1,0.4,0.2,0.6,0.2s0.4,0.1,0.6,0.1c0.4,0,0.8-0.1,1.1-0.2c0.3-0.1,0.6-0.2,0.9-0.4V261.9z M83,257.5
		c0-0.1,0-0.2,0.1-0.4c0-0.1,0.1-0.2,0.2-0.3c0.1-0.1,0.2-0.1,0.3-0.2c0.1,0,0.2-0.1,0.4-0.1s0.2,0,0.4,0.1c0.1,0,0.2,0.1,0.3,0.2
		s0.1,0.2,0.2,0.3c0,0.1,0.1,0.2,0.1,0.4c0,0.1,0,0.2-0.1,0.4c0,0.1-0.1,0.2-0.2,0.3s-0.2,0.1-0.3,0.2c-0.1,0-0.2,0.1-0.4,0.1
		c-0.3,0-0.5-0.1-0.6-0.3C83.1,258,83,257.8,83,257.5z M85.4,257.5c0-0.1,0-0.2,0.1-0.4c0-0.1,0.1-0.2,0.2-0.3s0.2-0.1,0.3-0.2
		c0.1,0,0.2-0.1,0.4-0.1s0.2,0,0.4,0.1c0.1,0,0.2,0.1,0.3,0.2s0.1,0.2,0.2,0.3c0,0.1,0.1,0.2,0.1,0.4c0,0.1,0,0.2-0.1,0.4
		c0,0.1-0.1,0.2-0.2,0.3s-0.2,0.1-0.3,0.2s-0.2,0.1-0.4,0.1c-0.3,0-0.5-0.1-0.6-0.3C85.5,258,85.4,257.8,85.4,257.5z"/>
	<path class="st2" d="M98,267.7c-0.7,0-1.3,0-1.8-0.1s-1.1-0.1-1.5-0.2c-0.3,0.1-0.7,0.1-1.1,0.1c-0.4,0-0.8,0.1-1.2,0.1
		c-0.4,0-0.8,0-1.2,0c-0.4,0-0.8,0-1.2,0H89c-0.2,0-0.4,0-0.5-0.1c-0.1-0.1-0.2-0.2-0.2-0.4v-0.6c0-0.1,0-0.2,0-0.3
		c0-0.1,0.1-0.1,0.1-0.2c0.1,0,0.1-0.1,0.2-0.1c0.1,0,0.2,0,0.2,0h2.4l0,0c-0.2-0.1-0.3-0.3-0.4-0.5c-0.1-0.2-0.2-0.3-0.3-0.5
		c-0.1-0.2-0.1-0.4-0.2-0.5c0-0.2-0.1-0.3-0.1-0.5c0-0.5,0.1-0.9,0.3-1.3s0.4-0.8,0.7-1.1c0.3-0.3,0.7-0.6,1.2-0.7
		c0.5-0.2,1-0.3,1.5-0.3c0.5,0,0.9,0.1,1.3,0.2s0.7,0.4,1,0.7c0.3,0.3,0.5,0.6,0.6,1s0.2,0.8,0.2,1.2c0,0.3,0,0.5-0.1,0.7
		c0,0.2-0.1,0.5-0.2,0.7s-0.1,0.4-0.2,0.6c-0.1,0.2-0.1,0.3-0.2,0.4h2.2c0.2,0,0.4,0,0.5,0.1s0.2,0.2,0.2,0.4v0.6c0,0.1,0,0.2,0,0.3
		c0,0.1-0.1,0.1-0.1,0.2s-0.1,0.1-0.2,0.1c-0.1,0-0.2,0-0.2,0H98z M91.7,258c0-0.1,0-0.2,0.1-0.4c0-0.1,0.1-0.2,0.2-0.3
		s0.2-0.1,0.3-0.2c0.1,0,0.2-0.1,0.4-0.1s0.2,0,0.4,0.1s0.2,0.1,0.3,0.2s0.1,0.2,0.2,0.3c0,0.1,0.1,0.2,0.1,0.4s0,0.2-0.1,0.4
		c0,0.1-0.1,0.2-0.2,0.3c-0.1,0.1-0.2,0.1-0.3,0.2c-0.1,0-0.2,0.1-0.4,0.1c-0.3,0-0.5-0.1-0.6-0.3C91.8,258.4,91.7,258.2,91.7,258z
		 M92,263.9c0,0.3,0.1,0.6,0.2,0.9c0.1,0.3,0.3,0.5,0.5,0.7s0.5,0.3,0.8,0.5c0.3,0.1,0.6,0.2,1,0.2H95c0.1-0.1,0.1-0.2,0.2-0.4
		c0.1-0.1,0.2-0.3,0.2-0.5c0.1-0.2,0.1-0.4,0.2-0.6s0.1-0.4,0.1-0.6c0-0.3-0.1-0.6-0.2-0.8s-0.2-0.4-0.4-0.6s-0.4-0.3-0.6-0.4
		c-0.2-0.1-0.4-0.1-0.7-0.1s-0.5,0-0.7,0.1c-0.2,0.1-0.4,0.2-0.6,0.3c-0.2,0.1-0.3,0.3-0.4,0.6C92,263.3,92,263.6,92,263.9z
		 M94.2,258c0-0.1,0-0.2,0.1-0.4c0-0.1,0.1-0.2,0.2-0.3s0.2-0.1,0.3-0.2s0.2-0.1,0.4-0.1s0.2,0,0.4,0.1c0.1,0,0.2,0.1,0.3,0.2
		s0.1,0.2,0.2,0.3c0,0.1,0.1,0.2,0.1,0.4s0,0.2-0.1,0.4c0,0.1-0.1,0.2-0.2,0.3c-0.1,0.1-0.2,0.1-0.3,0.2c-0.1,0-0.2,0.1-0.4,0.1
		c-0.3,0-0.5-0.1-0.6-0.3S94.2,258.2,94.2,258z"/>
	<path class="st2" d="M102.8,265.6c0.3,0.2,0.6,0.3,0.9,0.4c0.4,0.1,0.8,0.1,1.3,0.1h0.1c0.2,0,0.4,0,0.5,0.1s0.2,0.2,0.2,0.4v0.6
		c0,0.1,0,0.2,0,0.3c0,0.1-0.1,0.1-0.1,0.2s-0.1,0.1-0.2,0.1c-0.1,0-0.2,0-0.2,0h-0.1c-0.6,0-1.1-0.1-1.5-0.2
		c-0.4-0.2-0.7-0.3-1-0.6c-0.1,0.2-0.3,0.4-0.6,0.6c-0.2,0.2-0.5,0.2-0.9,0.2h-2.1c-0.2,0-0.4,0-0.5-0.1c-0.1-0.1-0.2-0.2-0.2-0.4
		v-0.6c0-0.1,0-0.2,0-0.3c0-0.1,0.1-0.1,0.1-0.2c0.1,0,0.1-0.1,0.2-0.1c0.1,0,0.2,0,0.2,0h1.7c0.2,0,0.3-0.1,0.4-0.2
		s0.2-0.4,0.2-0.7v-4.1h1.5V265.6z M99.7,258c0-0.1,0-0.2,0.1-0.4c0-0.1,0.1-0.2,0.2-0.3s0.2-0.1,0.3-0.2c0.1,0,0.2-0.1,0.4-0.1
		s0.2,0,0.4,0.1c0.1,0,0.2,0.1,0.3,0.2c0.1,0.1,0.1,0.2,0.2,0.3c0,0.1,0.1,0.2,0.1,0.4s0,0.2-0.1,0.4c0,0.1-0.1,0.2-0.2,0.3
		c-0.1,0.1-0.2,0.1-0.3,0.2c-0.1,0-0.2,0.1-0.4,0.1c-0.3,0-0.5-0.1-0.6-0.3S99.7,258.2,99.7,258z M100.9,255.7c0-0.1,0-0.2,0.1-0.4
		c0-0.1,0.1-0.2,0.2-0.3s0.2-0.1,0.3-0.2c0.1,0,0.2-0.1,0.4-0.1s0.2,0,0.4,0.1c0.1,0,0.2,0.1,0.3,0.2s0.1,0.2,0.2,0.3
		c0,0.1,0.1,0.2,0.1,0.4s0,0.2-0.1,0.4c0,0.1-0.1,0.2-0.2,0.3s-0.2,0.1-0.3,0.2s-0.2,0.1-0.4,0.1c-0.3,0-0.5-0.1-0.6-0.3
		C101,256.1,100.9,255.9,100.9,255.7z M102.2,258c0-0.1,0-0.2,0.1-0.4c0-0.1,0.1-0.2,0.2-0.3c0.1-0.1,0.2-0.1,0.3-0.2
		c0.1,0,0.2-0.1,0.4-0.1c0.1,0,0.2,0,0.4,0.1c0.1,0,0.2,0.1,0.3,0.2s0.1,0.2,0.2,0.3c0,0.1,0.1,0.2,0.1,0.4s0,0.2-0.1,0.4
		c0,0.1-0.1,0.2-0.2,0.3c-0.1,0.1-0.2,0.1-0.3,0.2c-0.1,0-0.2,0.1-0.4,0.1c-0.3,0-0.5-0.1-0.6-0.3
		C102.3,258.4,102.2,258.2,102.2,258z"/>
	<path class="st2" d="M105,267.7c-0.2,0-0.4,0-0.5-0.1c-0.1-0.1-0.2-0.2-0.2-0.4v-0.6c0-0.1,0-0.2,0-0.3c0-0.1,0.1-0.1,0.1-0.2
		c0.1,0,0.1-0.1,0.2-0.1c0.1,0,0.2,0,0.2,0h2.3v-10.8h1.5v12.3H105z"/>
	<path class="st2" d="M111.8,255.3h1.5v12.3h-1.5V255.3z"/>
</g>
</svg>
