<?xml version="1.0" encoding="utf-8"?>
<!-- Generator: Adobe Illustrator 24.3.0, SVG Export Plug-In . SVG Version: 6.00 Build 0)  -->
<svg version="1.1" id="Layer_1" xmlns="http://www.w3.org/2000/svg" xmlns:xlink="http://www.w3.org/1999/xlink" x="0px" y="0px"
	 viewBox="0 0 944 854" style="enable-background:new 0 0 944 854;" xml:space="preserve">
<style type="text/css">
	.st0{fill:#F7F5E5;}
	.st1{fill:#D47C42;}
	.st2{fill:#FFFFFF;}
</style>
<rect y="-3.9" class="st0" width="944" height="857.9"/>
<path class="st1" d="M572.3,150.3H337.3v0c0-37.1,30-67.1,67.1-67.1h231.7v3.4C636.1,121.8,607.5,150.3,572.3,150.3z"/>
<g>
	<path class="st2" d="M435,123.9c0,0.5,0,1,0.1,1.3s0.2,0.6,0.4,0.8c0.2,0.2,0.5,0.4,0.8,0.4c0.3,0.1,0.8,0.1,1.3,0.1h1.4
		c0.5,0,0.8,0.1,1.1,0.2s0.4,0.4,0.4,0.8v1.3c0,0.2,0,0.4-0.1,0.6c-0.1,0.1-0.2,0.3-0.3,0.3c-0.1,0.1-0.3,0.1-0.4,0.2
		c-0.2,0-0.4,0-0.5,0h-2.2c-0.9,0-1.6-0.1-2.2-0.2c-0.6-0.2-1.1-0.4-1.5-0.6c-0.4-0.3-0.7-0.6-0.9-0.9c-0.2-0.4-0.4-0.7-0.5-1.1
		c-1,0.6-1.9,1-2.8,1.2c-0.9,0.2-1.8,0.4-2.7,0.4c-0.8,0-1.6-0.1-2.4-0.3c-0.8-0.2-1.5-0.6-2.2-1c-0.6-0.5-1.2-1.1-1.6-1.8
		s-0.6-1.6-0.6-2.7c0-1,0.2-1.9,0.6-2.6c0.4-0.8,0.9-1.5,1.6-2.1c0.7-0.6,1.4-1.1,2.3-1.6c0.8-0.5,1.7-0.9,2.6-1.2
		c0.9-0.3,1.8-0.6,2.6-0.9c0.9-0.2,1.6-0.5,2.3-0.7v-2.1h3.5V123.9z M431.4,117.1c-1.3,0.2-2.5,0.5-3.6,0.9c-1.1,0.3-2,0.7-2.8,1.2
		c-0.8,0.4-1.4,1-1.8,1.5c-0.4,0.6-0.6,1.2-0.6,1.9c0,0.6,0.1,1.1,0.4,1.4c0.2,0.4,0.6,0.7,0.9,0.9s0.8,0.4,1.3,0.5
		c0.5,0.1,1,0.2,1.5,0.2c0.9,0,1.8-0.1,2.5-0.4c0.8-0.2,1.5-0.6,2.1-1V117.1z M425.2,107.1c0-0.3,0.1-0.6,0.2-0.8
		c0.1-0.3,0.3-0.5,0.4-0.7c0.2-0.2,0.4-0.3,0.7-0.4c0.3-0.1,0.5-0.2,0.8-0.2c0.3,0,0.6,0.1,0.8,0.2c0.3,0.1,0.5,0.3,0.7,0.4
		c0.2,0.2,0.3,0.4,0.4,0.7c0.1,0.3,0.2,0.5,0.2,0.8c0,0.3-0.1,0.6-0.2,0.8c-0.1,0.3-0.3,0.5-0.4,0.7c-0.2,0.2-0.4,0.3-0.7,0.4
		c-0.3,0.1-0.5,0.2-0.8,0.2c-0.6,0-1.1-0.2-1.5-0.6C425.4,108.2,425.2,107.7,425.2,107.1z M430.7,107.1c0-0.3,0.1-0.6,0.2-0.8
		c0.1-0.3,0.3-0.5,0.4-0.7c0.2-0.2,0.4-0.3,0.7-0.4c0.3-0.1,0.5-0.2,0.8-0.2c0.3,0,0.6,0.1,0.8,0.2c0.3,0.1,0.5,0.3,0.7,0.4
		c0.2,0.2,0.3,0.4,0.4,0.7c0.1,0.3,0.2,0.5,0.2,0.8c0,0.3-0.1,0.6-0.2,0.8c-0.1,0.3-0.3,0.5-0.4,0.7c-0.2,0.2-0.4,0.3-0.7,0.4
		c-0.3,0.1-0.5,0.2-0.8,0.2c-0.6,0-1.1-0.2-1.5-0.6C430.9,108.2,430.7,107.7,430.7,107.1z"/>
	<path class="st2" d="M444.9,127.5c-0.3,0.5-0.6,0.9-0.9,1.3c-0.3,0.3-0.6,0.6-1,0.8c-0.4,0.2-0.8,0.4-1.2,0.4
		c-0.4,0.1-0.9,0.1-1.4,0.1h-1.5c-0.5,0-0.8-0.1-1.1-0.2s-0.4-0.4-0.4-0.8v-1.3c0-0.2,0-0.4,0.1-0.6c0.1-0.1,0.2-0.3,0.3-0.3
		c0.1-0.1,0.3-0.1,0.4-0.2c0.2,0,0.4,0,0.5,0h0.9c0.8,0,1.5-0.2,2.2-0.6c0.6-0.4,1.1-1,1.3-1.8c0.4-1.4,0.8-2.6,1.3-3.6
		c0.5-1,1-1.9,1.5-2.6c0.5-0.7,1-1.3,1.6-1.7c0.5-0.4,1.1-0.8,1.6-1c0.5-0.2,1-0.4,1.5-0.5c0.5-0.1,0.9-0.1,1.3-0.1
		c0.9,0,1.7,0.1,2.4,0.4c0.7,0.2,1.4,0.6,1.9,1c0.6,0.4,1,0.9,1.5,1.5c0.4,0.6,0.8,1.1,1,1.7s0.5,1.2,0.6,1.8
		c0.1,0.6,0.2,1.2,0.2,1.8c0,0.5-0.1,1-0.2,1.6c-0.1,0.6-0.3,1.1-0.6,1.7c-0.3,0.5-0.6,1.1-1,1.6c-0.4,0.5-0.9,0.9-1.5,1.3
		c-0.6,0.4-1.2,0.7-1.9,0.9c-0.7,0.2-1.5,0.3-2.4,0.3c-0.8,0-1.6-0.1-2.4-0.3c-0.7-0.2-1.4-0.4-2-0.7c-0.6-0.3-1.1-0.6-1.6-0.9
		C445.6,128.2,445.2,127.8,444.9,127.5z M456.4,123.4c0-0.5-0.1-1-0.3-1.6c-0.2-0.6-0.4-1.2-0.8-1.7s-0.8-1-1.4-1.4
		c-0.6-0.4-1.3-0.6-2.1-0.6c-0.8,0-1.4,0.2-2.1,0.6c-0.6,0.4-1.2,0.9-1.7,1.6c-0.5,0.7-0.9,1.4-1.2,2.3c-0.3,0.8-0.6,1.7-0.7,2.6
		c0.1,0.2,0.4,0.4,0.8,0.6c0.4,0.2,0.8,0.4,1.3,0.5c0.5,0.2,1,0.3,1.6,0.4c0.6,0.1,1.1,0.2,1.6,0.2c0.7,0,1.4-0.1,2-0.2
		c0.6-0.1,1.1-0.3,1.6-0.5s0.8-0.6,1-1C456.3,124.7,456.4,124.1,456.4,123.4z"/>
	<path class="st2" d="M465,126.7h8.7v-17h3.5v17h5.2c0.4,0,0.7-0.2,1-0.5c0.2-0.4,0.4-0.9,0.4-1.7v-22.3h3.5V125
		c0.6,0.6,1.4,1,2.3,1.3c0.9,0.3,2,0.4,3.3,0.4h0.2c0.5,0,0.8,0.1,1.1,0.2s0.4,0.4,0.4,0.8v1.3c0,0.2,0,0.4-0.1,0.6
		c-0.1,0.1-0.2,0.3-0.3,0.3s-0.3,0.1-0.4,0.2c-0.2,0-0.4,0-0.5,0h-0.2c-0.7,0-1.4-0.1-2-0.2c-0.6-0.1-1.2-0.3-1.6-0.5
		s-0.9-0.4-1.3-0.7c-0.4-0.3-0.7-0.6-1.1-0.9c-0.3,0.6-0.7,1.1-1.3,1.5s-1.3,0.6-2.2,0.6H465V126.7z"/>
	<path class="st2" d="M503.6,125.6c0.7,0.4,1.4,0.7,2.3,0.9c0.8,0.1,1.7,0.2,2.6,0.2h1.4c0.4,0,0.7-0.2,1-0.5
		c0.2-0.4,0.4-0.9,0.4-1.7v-7.2h3.5v8.1c0.7,0.5,1.4,0.8,2.3,1c0.9,0.2,1.8,0.3,2.8,0.3h1.4c0.4,0,0.7-0.2,1-0.5
		c0.2-0.4,0.4-0.9,0.4-1.7v-9.4h3.5v10.1c0.6,0.5,1.3,0.9,2.2,1.1c0.8,0.2,1.9,0.4,3.1,0.4h0.2c0.5,0,0.8,0.1,1.1,0.2
		s0.4,0.4,0.4,0.8v1.3c0,0.2,0,0.4-0.1,0.6c-0.1,0.1-0.2,0.3-0.3,0.3s-0.3,0.1-0.4,0.2c-0.2,0-0.4,0-0.5,0h-0.2
		c-1.4,0-2.6-0.2-3.5-0.6c-0.9-0.4-1.7-0.9-2.3-1.5c-0.3,0.6-0.8,1.1-1.3,1.5c-0.6,0.4-1.3,0.6-2.2,0.6h-2.1c-1,0-2.1-0.1-3.1-0.4
		c-1-0.3-1.9-0.8-2.7-1.5c-0.3,0.5-0.8,1-1.3,1.4s-1.3,0.6-2.1,0.6h-2.1c-0.5,0-1,0-1.5-0.1c-0.5-0.1-1-0.2-1.5-0.3
		c-0.5-0.1-0.9-0.3-1.4-0.5c-0.4-0.2-0.9-0.5-1.3-0.8c-0.3,0.5-0.8,0.9-1.3,1.2c-0.5,0.3-1.2,0.5-2,0.5H493c-0.5,0-0.8-0.1-1.1-0.2
		s-0.4-0.4-0.4-0.8v-1.3c0-0.2,0-0.4,0.1-0.6c0.1-0.1,0.2-0.3,0.3-0.3s0.3-0.1,0.4-0.2c0.2,0,0.4,0,0.5,0h5.7c0.4,0,0.7-0.2,1-0.5
		c0.2-0.4,0.4-0.9,0.4-1.7v-5.6h3.5V125.6z"/>
	<path class="st2" d="M531.4,130.2c-0.5,0-0.8-0.1-1.1-0.2s-0.4-0.4-0.4-0.8v-1.3c0-0.2,0-0.4,0.1-0.6c0.1-0.1,0.2-0.3,0.3-0.3
		s0.3-0.1,0.4-0.2c0.2,0,0.4,0,0.5,0h5.3v-24.6h3.5v28.1H531.4z"/>
	<path class="st2" d="M546.9,102.2h3.5v28.1h-3.5V102.2z"/>
</g>
<path class="st1" d="M835.5,321.5H600.5v0c0-37.1,30-67.1,67.1-67.1h231.7v3.4C899.2,293,870.7,321.5,835.5,321.5z"/>
<g>
	<path class="st2" d="M708.5,295.1c0,0.5,0,1,0.1,1.3s0.2,0.6,0.4,0.8c0.2,0.2,0.5,0.4,0.8,0.4c0.3,0.1,0.8,0.1,1.3,0.1h1.4
		c0.5,0,0.8,0.1,1.1,0.2s0.4,0.4,0.4,0.8v1.3c0,0.2,0,0.4-0.1,0.6c-0.1,0.1-0.2,0.3-0.3,0.3s-0.3,0.1-0.4,0.2c-0.2,0-0.4,0-0.5,0
		h-2.2c-0.9,0-1.6-0.1-2.2-0.2c-0.6-0.2-1.1-0.4-1.5-0.6c-0.4-0.3-0.7-0.6-0.9-0.9c-0.2-0.4-0.4-0.7-0.5-1.1c-1,0.6-1.9,1-2.8,1.2
		c-0.9,0.2-1.8,0.4-2.7,0.4c-0.8,0-1.6-0.1-2.4-0.3c-0.8-0.2-1.5-0.6-2.2-1c-0.6-0.5-1.2-1.1-1.6-1.8s-0.6-1.6-0.6-2.7
		c0-1,0.2-1.9,0.6-2.6c0.4-0.8,0.9-1.5,1.6-2.1c0.7-0.6,1.4-1.1,2.3-1.6c0.8-0.5,1.7-0.9,2.6-1.2c0.9-0.3,1.8-0.6,2.6-0.9
		c0.9-0.2,1.6-0.5,2.3-0.7v-2.1h3.5V295.1z M705,288.3c-1.3,0.2-2.5,0.5-3.6,0.9c-1.1,0.3-2,0.7-2.8,1.2s-1.4,1-1.8,1.5
		c-0.4,0.6-0.6,1.2-0.6,1.9c0,0.6,0.1,1.1,0.4,1.4s0.6,0.7,0.9,0.9s0.8,0.4,1.3,0.5c0.5,0.1,1,0.2,1.5,0.2c0.9,0,1.8-0.1,2.5-0.4
		s1.5-0.6,2.1-1V288.3z M698.8,278.3c0-0.3,0.1-0.6,0.2-0.8s0.3-0.5,0.4-0.7c0.2-0.2,0.4-0.3,0.7-0.4c0.3-0.1,0.5-0.2,0.8-0.2
		s0.6,0.1,0.8,0.2c0.3,0.1,0.5,0.3,0.7,0.4c0.2,0.2,0.3,0.4,0.4,0.7s0.2,0.5,0.2,0.8c0,0.3-0.1,0.6-0.2,0.8s-0.3,0.5-0.4,0.7
		c-0.2,0.2-0.4,0.3-0.7,0.4c-0.3,0.1-0.5,0.2-0.8,0.2c-0.6,0-1.1-0.2-1.5-0.6C699,279.4,698.8,278.9,698.8,278.3z M704.3,278.3
		c0-0.3,0.1-0.6,0.2-0.8s0.3-0.5,0.4-0.7c0.2-0.2,0.4-0.3,0.7-0.4c0.3-0.1,0.5-0.2,0.8-0.2s0.6,0.1,0.8,0.2c0.3,0.1,0.5,0.3,0.7,0.4
		c0.2,0.2,0.3,0.4,0.4,0.7s0.2,0.5,0.2,0.8c0,0.3-0.1,0.6-0.2,0.8s-0.3,0.5-0.4,0.7c-0.2,0.2-0.4,0.3-0.7,0.4
		c-0.3,0.1-0.5,0.2-0.8,0.2c-0.6,0-1.1-0.2-1.5-0.6C704.5,279.4,704.3,278.9,704.3,278.3z"/>
	<path class="st2" d="M727.9,289.6c-0.3-0.1-0.6-0.2-0.9-0.2c-0.3-0.1-0.7-0.1-1-0.2c-0.4,0-0.7-0.1-1.1-0.1c-0.4,0-0.7,0-0.9,0
		c-0.4,0-0.9,0.1-1.4,0.2c-0.5,0.1-0.9,0.3-1.3,0.7s-0.7,0.7-1,1.2c-0.3,0.5-0.4,1.2-0.4,2c0,0.7,0.1,1.4,0.4,1.9
		c0.2,0.6,0.6,1.1,1.1,1.5s1,0.8,1.6,1c0.6,0.2,1.3,0.4,2.1,0.4h4.7v3.5h-17.3c-0.5,0-0.8-0.1-1.1-0.2s-0.4-0.4-0.4-0.8V299
		c0-0.2,0-0.4,0.1-0.6c0.1-0.1,0.2-0.3,0.3-0.3s0.3-0.1,0.4-0.2c0.2,0,0.4,0,0.5,0h5.2c-0.4-0.7-0.6-1.5-0.8-2.2
		c-0.2-0.7-0.3-1.5-0.3-2.2c0-1.1,0.2-2.2,0.6-3.1c0.4-1,0.9-1.8,1.6-2.6c0.7-0.7,1.5-1.3,2.5-1.7s2-0.6,3.2-0.6c0.3,0,0.6,0,0.9,0
		c0.4,0,0.7,0.1,1.1,0.1s0.7,0.1,1,0.1s0.6,0.1,0.8,0.2L727.9,289.6z"/>
	<path class="st2" d="M731.4,306.2c1.4-0.2,2.5-0.5,3.3-0.8s1.5-0.8,1.9-1.4c0.4-0.6,0.7-1.3,0.8-2s0.2-1.7,0.2-2.7v-12.9h3.5v11.6
		h4.6c0.5,0,0.8,0.1,1.1,0.2s0.4,0.4,0.4,0.8v1.3c0,0.2,0,0.4-0.1,0.6c-0.1,0.1-0.2,0.3-0.3,0.3s-0.3,0.1-0.4,0.2
		c-0.2,0-0.4,0-0.5,0H741c-0.2,1.4-0.5,2.5-1,3.5c-0.5,0.9-1.1,1.7-1.8,2.4c-0.8,0.6-1.7,1.1-2.7,1.5c-1.1,0.4-2.3,0.6-3.7,0.8
		L731.4,306.2z"/>
	<path class="st2" d="M756.3,296.8c0.7,0.4,1.4,0.7,2.3,0.9c0.8,0.1,1.7,0.2,2.6,0.2h1.4c0.4,0,0.7-0.2,1-0.5
		c0.2-0.4,0.4-0.9,0.4-1.7v-7.2h3.5v8.1c0.7,0.5,1.4,0.8,2.3,1c0.9,0.2,1.8,0.3,2.8,0.3h1.4c0.4,0,0.7-0.2,1-0.5
		c0.2-0.4,0.4-0.9,0.4-1.7v-9.4h3.5v10.1c0.6,0.5,1.3,0.9,2.2,1.1c0.8,0.2,1.9,0.4,3.1,0.4h0.2c0.5,0,0.8,0.1,1.1,0.2
		s0.4,0.4,0.4,0.8v1.3c0,0.2,0,0.4-0.1,0.6c-0.1,0.1-0.2,0.3-0.3,0.3s-0.3,0.1-0.4,0.2c-0.2,0-0.4,0-0.5,0H784
		c-1.4,0-2.6-0.2-3.5-0.6c-0.9-0.4-1.7-0.9-2.3-1.5c-0.3,0.6-0.8,1.1-1.3,1.5c-0.6,0.4-1.3,0.6-2.2,0.6h-2.1c-1,0-2.1-0.1-3.1-0.4
		c-1-0.3-1.9-0.8-2.7-1.5c-0.3,0.5-0.8,1-1.3,1.4s-1.3,0.6-2.1,0.6h-2.1c-0.5,0-1,0-1.5-0.1c-0.5-0.1-1-0.2-1.5-0.3
		c-0.5-0.1-0.9-0.3-1.4-0.5c-0.4-0.2-0.9-0.5-1.3-0.8c-0.3,0.5-0.8,0.9-1.3,1.2c-0.5,0.3-1.2,0.5-2,0.5h-6.4c-0.5,0-0.8-0.1-1.1-0.2
		s-0.4-0.4-0.4-0.8V299c0-0.2,0-0.4,0.1-0.6c0.1-0.1,0.2-0.3,0.3-0.3s0.3-0.1,0.4-0.2c0.2,0,0.4,0,0.5,0h5.7c0.4,0,0.7-0.2,1-0.5
		c0.2-0.4,0.4-0.9,0.4-1.7v-5.6h3.5V296.8z"/>
	<path class="st2" d="M784.2,301.4c-0.5,0-0.8-0.1-1.1-0.2s-0.4-0.4-0.4-0.8V299c0-0.2,0-0.4,0.1-0.6c0.1-0.1,0.2-0.3,0.3-0.3
		s0.3-0.1,0.4-0.2c0.2,0,0.4,0,0.5,0h5.3v-24.6h3.5v28.1H784.2z"/>
	<path class="st2" d="M799.7,273.3h3.5v28.1h-3.5V273.3z"/>
</g>
<path class="st1" d="M303.9,334.9H68.9v0c0-37.1,30-67.1,67.1-67.1h231.7v3.4C367.7,306.4,339.1,334.9,303.9,334.9z"/>
<g>
	<path class="st2" d="M176.2,311.3c0-0.4,0-0.8-0.1-1.4c-0.1-0.5-0.2-1.1-0.3-1.7c-0.1-0.6-0.3-1.2-0.4-1.8
		c-0.2-0.6-0.4-1.2-0.6-1.7l3.5-1c0.1,0.4,0.3,0.8,0.4,1.3c0.1,0.5,0.3,1,0.4,1.5c0.1,0.5,0.2,1.1,0.3,1.6c0.1,0.6,0.2,1.1,0.2,1.6
		c0.6,0.5,1.3,0.9,2.2,1.1s1.9,0.4,3.1,0.4h0.2c0.5,0,0.8,0.1,1.1,0.2s0.4,0.4,0.4,0.8v1.3c0,0.2,0,0.4-0.1,0.6
		c-0.1,0.1-0.2,0.3-0.3,0.3c-0.1,0.1-0.3,0.1-0.4,0.2c-0.2,0-0.4,0-0.5,0h-0.2c-1.2,0-2.2-0.1-3.1-0.4s-1.6-0.6-2.2-1.1
		c-0.2,1.5-0.6,2.8-1.2,4c-0.6,1.2-1.4,2.3-2.4,3.1c-1,0.9-2.2,1.5-3.5,2c-1.4,0.5-2.9,0.7-4.7,0.7c-1.8,0-3.5-0.3-4.8-0.8
		c-1.4-0.6-2.5-1.3-3.4-2.3c-0.9-1-1.6-2-2-3.3c-0.4-1.2-0.7-2.5-0.7-3.9c0-0.7,0.1-1.3,0.2-2c0.1-0.7,0.3-1.4,0.4-2
		c0.2-0.7,0.4-1.3,0.7-1.9c0.3-0.6,0.5-1.1,0.8-1.6l3,1.7c-0.2,0.3-0.4,0.7-0.6,1.1c-0.2,0.4-0.3,0.9-0.4,1.3s-0.2,0.9-0.3,1.4
		c-0.1,0.5-0.1,1-0.1,1.4c0,1,0.2,2,0.5,2.9c0.3,0.9,0.8,1.7,1.4,2.3c0.6,0.7,1.4,1.2,2.3,1.6c0.9,0.4,2,0.6,3.2,0.6
		c1.3,0,2.4-0.2,3.4-0.6c1-0.4,1.8-0.9,2.5-1.7s1.2-1.6,1.6-2.6S176.2,312.6,176.2,311.3z M168.4,296.6c0-0.3,0.1-0.6,0.2-0.8
		c0.1-0.3,0.3-0.5,0.4-0.7c0.2-0.2,0.4-0.3,0.7-0.4c0.3-0.1,0.5-0.2,0.8-0.2c0.3,0,0.6,0.1,0.8,0.2c0.3,0.1,0.5,0.3,0.7,0.4
		c0.2,0.2,0.3,0.4,0.4,0.7c0.1,0.3,0.2,0.5,0.2,0.8c0,0.3-0.1,0.6-0.2,0.8c-0.1,0.3-0.3,0.5-0.4,0.7c-0.2,0.2-0.4,0.3-0.7,0.4
		c-0.3,0.1-0.5,0.2-0.8,0.2c-0.6,0-1.1-0.2-1.5-0.6C168.6,297.7,168.4,297.2,168.4,296.6z"/>
	<path class="st2" d="M193.8,310.1c0.6,0.4,1.3,0.7,2.1,0.9c0.8,0.2,1.8,0.3,2.9,0.3h0.2c0.5,0,0.8,0.1,1.1,0.2s0.4,0.4,0.4,0.8v1.3
		c0,0.2,0,0.4-0.1,0.6c-0.1,0.1-0.2,0.3-0.3,0.3c-0.1,0.1-0.3,0.1-0.4,0.2c-0.2,0-0.4,0-0.5,0h-0.2c-1.4,0-2.5-0.2-3.4-0.5
		s-1.7-0.8-2.3-1.3c-0.3,0.5-0.8,1-1.3,1.3c-0.5,0.4-1.2,0.5-2.1,0.5H185c-0.5,0-0.8-0.1-1.1-0.2s-0.4-0.4-0.4-0.8v-1.3
		c0-0.2,0-0.4,0.1-0.6c0.1-0.1,0.2-0.3,0.3-0.3c0.1-0.1,0.3-0.1,0.4-0.2c0.2,0,0.4,0,0.5,0h3.9c0.4,0,0.7-0.2,1-0.5
		c0.2-0.4,0.4-0.9,0.4-1.7v-9.4h3.5V310.1z M187,320.7c0-0.3,0.1-0.6,0.2-0.8c0.1-0.3,0.3-0.5,0.4-0.7c0.2-0.2,0.4-0.3,0.7-0.4
		c0.3-0.1,0.5-0.2,0.8-0.2c0.3,0,0.6,0.1,0.8,0.2c0.3,0.1,0.5,0.3,0.7,0.4c0.2,0.2,0.3,0.4,0.4,0.7c0.1,0.3,0.2,0.5,0.2,0.8
		c0,0.3-0.1,0.6-0.2,0.8c-0.1,0.3-0.3,0.5-0.4,0.7c-0.2,0.2-0.4,0.3-0.7,0.4c-0.3,0.1-0.5,0.2-0.8,0.2c-0.6,0-1.1-0.2-1.5-0.6
		C187.2,321.7,187,321.2,187,320.7z M192.5,320.7c0-0.3,0.1-0.6,0.2-0.8c0.1-0.3,0.3-0.5,0.4-0.7c0.2-0.2,0.4-0.3,0.7-0.4
		c0.3-0.1,0.5-0.2,0.8-0.2c0.3,0,0.6,0.1,0.8,0.2c0.3,0.1,0.5,0.3,0.7,0.4c0.2,0.2,0.3,0.4,0.4,0.7c0.1,0.3,0.2,0.5,0.2,0.8
		c0,0.3-0.1,0.6-0.2,0.8c-0.1,0.3-0.3,0.5-0.4,0.7c-0.2,0.2-0.4,0.3-0.7,0.4c-0.3,0.1-0.5,0.2-0.8,0.2c-0.6,0-1.1-0.2-1.5-0.6
		C192.7,321.7,192.5,321.2,192.5,320.7z"/>
	<path class="st2" d="M198.9,314.8c-0.5,0-0.8-0.1-1.1-0.2s-0.4-0.4-0.4-0.8v-1.3c0-0.2,0-0.4,0.1-0.6c0.1-0.1,0.2-0.3,0.3-0.3
		c0.1-0.1,0.3-0.1,0.4-0.2c0.2,0,0.4,0,0.5,0h5.9c0.9,0,1.7-0.1,2.3-0.2c0.6-0.1,1.1-0.3,1.4-0.5c0.3-0.2,0.6-0.5,0.7-0.8
		c0.1-0.3,0.2-0.7,0.2-1c0-0.6-0.2-1.3-0.5-1.9c-0.4-0.6-0.9-1.3-1.5-1.9c-0.7-0.6-1.4-1.3-2.3-1.9c-0.9-0.6-1.9-1.2-2.9-1.8
		l7.8-13.4l2.6,1.8l-6,10.4c0.9,0.5,1.7,1.1,2.5,1.7c0.8,0.6,1.4,1.3,1.9,2c0.5,0.7,1,1.5,1.3,2.2c0.3,0.8,0.4,1.6,0.4,2.5
		c0,0.5,0,1-0.1,1.5c0.6,0.4,1.3,0.7,2.1,0.9c0.8,0.2,1.8,0.3,2.9,0.3h0.2c0.5,0,0.8,0.1,1.1,0.2s0.4,0.4,0.4,0.8v1.3
		c0,0.2,0,0.4-0.1,0.6c-0.1,0.1-0.2,0.3-0.3,0.3c-0.1,0.1-0.3,0.1-0.4,0.2c-0.2,0-0.4,0-0.5,0h-0.2c-0.8,0-1.4-0.1-2-0.2
		c-0.6-0.1-1.2-0.3-1.6-0.5c-0.5-0.2-0.9-0.4-1.3-0.7c-0.4-0.3-0.7-0.6-1.1-0.9c-0.6,0.7-1.4,1.2-2.3,1.6c-1,0.4-2.2,0.6-3.7,0.6
		H198.9z"/>
	<path class="st2" d="M223.6,312.1c-0.3,0.5-0.6,0.9-0.9,1.3c-0.3,0.3-0.6,0.6-1,0.8c-0.4,0.2-0.8,0.4-1.2,0.4
		c-0.4,0.1-0.9,0.1-1.4,0.1h-1.5c-0.5,0-0.8-0.1-1.1-0.2s-0.4-0.4-0.4-0.8v-1.3c0-0.2,0-0.4,0.1-0.6c0.1-0.1,0.2-0.3,0.3-0.3
		c0.1-0.1,0.3-0.1,0.4-0.2c0.2,0,0.4,0,0.5,0h0.9c0.8,0,1.5-0.2,2.2-0.6c0.6-0.4,1.1-1,1.3-1.8c0.4-1.4,0.8-2.6,1.3-3.6
		c0.5-1,1-1.9,1.5-2.6c0.5-0.7,1-1.3,1.6-1.7c0.5-0.4,1.1-0.8,1.6-1c0.5-0.2,1-0.4,1.5-0.5c0.5-0.1,0.9-0.1,1.3-0.1
		c0.9,0,1.7,0.1,2.4,0.4c0.7,0.2,1.4,0.6,1.9,1c0.6,0.4,1,0.9,1.5,1.5c0.4,0.6,0.8,1.1,1,1.7s0.5,1.2,0.6,1.8
		c0.1,0.6,0.2,1.2,0.2,1.8c0,0.7-0.1,1.5-0.4,2.3c0.6,0.5,1.3,0.8,2.2,1c0.8,0.2,1.8,0.3,3,0.3h0.2c0.5,0,0.8,0.1,1.1,0.2
		s0.4,0.4,0.4,0.8v1.3c0,0.2,0,0.4-0.1,0.6c-0.1,0.1-0.2,0.3-0.3,0.3c-0.1,0.1-0.3,0.1-0.4,0.2c-0.2,0-0.4,0-0.5,0H243
		c-0.8,0-1.5-0.1-2.2-0.2c-0.6-0.1-1.2-0.3-1.7-0.5c-0.5-0.2-1-0.5-1.4-0.8c-0.4-0.3-0.8-0.6-1.1-1c-0.6,0.8-1.4,1.4-2.4,1.9
		c-1,0.5-2.1,0.8-3.5,0.8c-0.8,0-1.6-0.1-2.4-0.3c-0.7-0.2-1.4-0.4-2-0.7c-0.6-0.3-1.1-0.6-1.6-0.9
		C224.3,312.8,223.9,312.4,223.6,312.1z M235.1,308c0-0.5-0.1-1-0.3-1.6c-0.2-0.6-0.4-1.2-0.8-1.7s-0.8-1-1.4-1.4
		c-0.6-0.4-1.3-0.6-2.1-0.6c-0.8,0-1.4,0.2-2.1,0.6c-0.6,0.4-1.2,0.9-1.7,1.6c-0.5,0.7-0.9,1.4-1.2,2.3c-0.3,0.8-0.6,1.7-0.7,2.6
		c0.1,0.2,0.4,0.4,0.8,0.6c0.4,0.2,0.8,0.4,1.3,0.5c0.5,0.2,1,0.3,1.6,0.4c0.6,0.1,1.1,0.2,1.6,0.2c0.7,0,1.4-0.1,2-0.2
		c0.6-0.1,1.1-0.3,1.6-0.5s0.8-0.6,1-1C235,309.3,235.1,308.7,235.1,308z"/>
	<path class="st2" d="M252,310.1c0.6,0.4,1.3,0.7,2.1,0.9c0.8,0.2,1.8,0.3,2.9,0.3h0.2c0.5,0,0.8,0.1,1.1,0.2s0.4,0.4,0.4,0.8v1.3
		c0,0.2,0,0.4-0.1,0.6c-0.1,0.1-0.2,0.3-0.3,0.3c-0.1,0.1-0.3,0.1-0.4,0.2c-0.2,0-0.4,0-0.5,0h-0.2c-1.4,0-2.5-0.2-3.4-0.5
		s-1.7-0.8-2.3-1.3c-0.3,0.5-0.8,1-1.3,1.3c-0.5,0.4-1.2,0.5-2.1,0.5h-4.7c-0.5,0-0.8-0.1-1.1-0.2s-0.4-0.4-0.4-0.8v-1.3
		c0-0.2,0-0.4,0.1-0.6c0.1-0.1,0.2-0.3,0.3-0.3c0.1-0.1,0.3-0.1,0.4-0.2c0.2,0,0.4,0,0.5,0h3.9c0.4,0,0.7-0.2,1-0.5
		c0.2-0.4,0.4-0.9,0.4-1.7v-9.4h3.5V310.1z M245.3,292.7c0-0.3,0.1-0.6,0.2-0.8c0.1-0.3,0.3-0.5,0.4-0.7c0.2-0.2,0.4-0.3,0.7-0.4
		c0.3-0.1,0.5-0.2,0.8-0.2c0.3,0,0.6,0.1,0.8,0.2c0.3,0.1,0.5,0.3,0.7,0.4c0.2,0.2,0.3,0.4,0.4,0.7c0.1,0.3,0.2,0.5,0.2,0.8
		c0,0.3-0.1,0.6-0.2,0.8c-0.1,0.3-0.3,0.5-0.4,0.7c-0.2,0.2-0.4,0.3-0.7,0.4c-0.3,0.1-0.5,0.2-0.8,0.2c-0.6,0-1.1-0.2-1.5-0.6
		C245.5,293.8,245.3,293.3,245.3,292.7z M250.8,292.7c0-0.3,0.1-0.6,0.2-0.8c0.1-0.3,0.3-0.5,0.4-0.7c0.2-0.2,0.4-0.3,0.7-0.4
		c0.3-0.1,0.5-0.2,0.8-0.2c0.3,0,0.6,0.1,0.8,0.2c0.3,0.1,0.5,0.3,0.7,0.4c0.2,0.2,0.3,0.4,0.4,0.7c0.1,0.3,0.2,0.5,0.2,0.8
		c0,0.3-0.1,0.6-0.2,0.8c-0.1,0.3-0.3,0.5-0.4,0.7c-0.2,0.2-0.4,0.3-0.7,0.4c-0.3,0.1-0.5,0.2-0.8,0.2c-0.6,0-1.1-0.2-1.5-0.6
		C251,293.8,250.8,293.3,250.8,292.7z"/>
	<path class="st2" d="M257.1,314.8c-0.5,0-0.8-0.1-1.1-0.2s-0.4-0.4-0.4-0.8v-1.3c0-0.2,0-0.4,0.1-0.6c0.1-0.1,0.2-0.3,0.3-0.3
		c0.1-0.1,0.3-0.1,0.4-0.2c0.2,0,0.4,0,0.5,0h5.3v-24.6h3.5v28.1H257.1z"/>
	<path class="st2" d="M272.6,286.8h3.5v28.1h-3.5V286.8z"/>
</g>
<path class="st1" d="M572.3,503.8H337.3v0c0-37.1,30-67.1,67.1-67.1h231.7v3.4C636.1,475.2,607.5,503.8,572.3,503.8z"/>
<g>
	<path class="st2" d="M443.2,483.6c-1.1,0-2.1-0.2-3-0.5s-1.6-0.8-2.2-1.5s-1.1-1.3-1.4-2.2s-0.5-1.7-0.5-2.7c0-1.6,0.2-2.9,0.7-4.1
		c0.5-1.2,1.1-2.2,1.8-3s1.6-1.4,2.5-1.8c0.9-0.4,1.8-0.6,2.6-0.6c0.9,0,1.7,0.2,2.6,0.6s1.7,1,2.4,1.8s1.3,1.8,1.7,3
		c0.4,1.2,0.7,2.6,0.7,4.2c0,0.9-0.2,1.7-0.5,2.6c-0.3,0.8-0.8,1.6-1.4,2.2c-0.6,0.6-1.3,1.1-2.2,1.5c-0.8,0.4-1.8,0.6-2.8,0.6
		H443.2z M438.6,461.5c0-0.3,0.1-0.6,0.2-0.8c0.1-0.3,0.3-0.5,0.4-0.7c0.2-0.2,0.4-0.3,0.7-0.4s0.5-0.2,0.8-0.2
		c0.3,0,0.6,0.1,0.8,0.2s0.5,0.3,0.7,0.4c0.2,0.2,0.3,0.4,0.4,0.7c0.1,0.3,0.2,0.5,0.2,0.8s-0.1,0.6-0.2,0.8
		c-0.1,0.3-0.3,0.5-0.4,0.7c-0.2,0.2-0.4,0.3-0.7,0.4s-0.5,0.2-0.8,0.2c-0.6,0-1.1-0.2-1.5-0.6C438.8,462.6,438.6,462.1,438.6,461.5
		z M439.3,476.2c0,1.3,0.4,2.3,1.2,3c0.8,0.7,1.8,1,3.1,1h0.4c0.6,0,1.2-0.1,1.7-0.3c0.5-0.2,0.9-0.5,1.2-0.9
		c0.3-0.4,0.6-0.8,0.7-1.3s0.2-1,0.2-1.5c0-1-0.1-1.8-0.4-2.5s-0.6-1.3-1-1.8c-0.4-0.5-0.8-0.8-1.3-1.1c-0.5-0.2-1-0.4-1.4-0.4
		c-0.5,0-1.1,0.1-1.6,0.4s-1,0.6-1.4,1.1c-0.4,0.5-0.8,1.1-1,1.8S439.3,475.2,439.3,476.2z M444.2,461.5c0-0.3,0.1-0.6,0.2-0.8
		c0.1-0.3,0.3-0.5,0.4-0.7c0.2-0.2,0.4-0.3,0.7-0.4s0.5-0.2,0.8-0.2c0.3,0,0.6,0.1,0.8,0.2s0.5,0.3,0.7,0.4c0.2,0.2,0.3,0.4,0.4,0.7
		c0.1,0.3,0.2,0.5,0.2,0.8s-0.1,0.6-0.2,0.8c-0.1,0.3-0.3,0.5-0.4,0.7c-0.2,0.2-0.4,0.3-0.7,0.4s-0.5,0.2-0.8,0.2
		c-0.6,0-1.1-0.2-1.5-0.6C444.4,462.6,444.2,462.1,444.2,461.5z"/>
	<path class="st2" d="M455,483.6v-3.5h6.7c0.9,0,1.7-0.1,2.3-0.2c0.6-0.1,1.1-0.3,1.4-0.5c0.3-0.2,0.6-0.5,0.7-0.8
		c0.1-0.3,0.2-0.7,0.2-1c0-0.7-0.2-1.4-0.6-2.2s-0.9-1.5-1.5-2.3s-1.3-1.5-2-2.2c-0.8-0.7-1.5-1.4-2.3-2l2.6-2.6
		c0.9,0.7,1.7,1.6,2.5,2.4c0.8,0.9,1.6,1.8,2.2,2.7c0.7,0.9,1.2,1.9,1.6,2.9s0.6,2,0.6,2.9c0,0.9-0.1,1.8-0.4,2.5s-0.7,1.4-1.3,2
		s-1.3,1-2.3,1.3c-0.9,0.3-2,0.5-3.4,0.5H455z"/>
	<path class="st2" d="M483.5,483.6c-1.6,0-3-0.2-4.1-0.7s-2-1-2.7-1.8s-1.2-1.5-1.5-2.5s-0.4-1.8-0.4-2.7c0-1.1,0.2-2.2,0.6-3.2
		c0.4-1,1-1.9,1.7-2.6c0.7-0.7,1.6-1.3,2.6-1.7s2.2-0.6,3.5-0.6c0.5,0,1,0,1.6,0.1c0.6,0.1,1.1,0.3,1.7,0.5s1.1,0.6,1.5,1
		s0.9,1,1.3,1.6c0.4,0.7,0.7,1.4,0.9,2.4c0.2,0.9,0.3,2,0.3,3.2v3.3h4.2c0.5,0,0.8,0.1,1.1,0.2s0.4,0.4,0.4,0.8v1.3
		c0,0.2,0,0.4-0.1,0.6s-0.2,0.3-0.3,0.3s-0.3,0.1-0.4,0.2s-0.4,0-0.5,0h-4.5c-0.3,1.4-0.9,2.6-1.6,3.6c-0.8,1-1.7,1.8-2.8,2.5
		s-2.3,1.1-3.7,1.5s-2.9,0.6-4.4,0.8l-0.4-3.4c2.7-0.2,4.8-0.7,6.4-1.6s2.6-2,3-3.4H483.5z M486.9,480.1v-2.2c0-1.4-0.1-2.5-0.4-3.4
		s-0.6-1.6-1-2.1s-0.9-0.8-1.4-1s-1.1-0.3-1.6-0.3c-0.6,0-1.2,0.1-1.7,0.3s-1,0.5-1.4,0.9s-0.7,0.9-0.9,1.5s-0.3,1.2-0.3,1.9
		c0,0.6,0.1,1.1,0.3,1.7s0.5,1,0.9,1.4s1,0.7,1.6,0.9s1.4,0.4,2.4,0.4H486.9z"/>
	<path class="st2" d="M498.3,468.3c0.8-0.2,1.5-0.4,2.3-0.6s1.7-0.3,2.7-0.3c1,0,1.9,0.2,2.7,0.5s1.4,0.7,2,1.3s1,1.2,1.3,2
		s0.6,1.6,0.7,2.5c0.1,0.8,0.3,1.6,0.4,2.4s0.3,1.4,0.5,2s0.5,1.1,0.8,1.4s0.7,0.5,1.2,0.5h1.8c0.5,0,0.8,0.1,1.1,0.2
		s0.4,0.4,0.4,0.8v1.3c0,0.2,0,0.4-0.1,0.6s-0.2,0.3-0.3,0.3s-0.3,0.1-0.4,0.2s-0.4,0-0.5,0h-20c-0.5,0-0.8-0.1-1.1-0.2
		s-0.4-0.4-0.4-0.8v-1.3c0-0.2,0-0.4,0.1-0.6s0.2-0.3,0.3-0.3s0.3-0.1,0.4-0.2s0.4,0,0.5,0h13.9c-0.3-0.3-0.5-0.6-0.7-1.1
		s-0.3-1.1-0.4-1.9c-0.1-0.8-0.2-1.5-0.4-2.3s-0.4-1.4-0.8-2s-0.8-1.1-1.5-1.5s-1.4-0.6-2.5-0.6c-0.3,0-0.6,0-1,0.1
		s-0.7,0.1-1.1,0.2s-0.7,0.2-1.1,0.2s-0.6,0.2-0.9,0.3V468.3z M501.6,489.5c0-0.3,0.1-0.6,0.2-0.8s0.3-0.5,0.4-0.7s0.4-0.3,0.7-0.4
		s0.5-0.2,0.8-0.2s0.6,0.1,0.8,0.2s0.5,0.3,0.7,0.4s0.3,0.4,0.4,0.7s0.2,0.5,0.2,0.8s-0.1,0.6-0.2,0.8s-0.3,0.5-0.4,0.7
		s-0.4,0.3-0.7,0.4s-0.5,0.2-0.8,0.2c-0.6,0-1.1-0.2-1.5-0.6S501.6,490.1,501.6,489.5z"/>
	<path class="st2" d="M514.7,483.6c-0.5,0-0.8-0.1-1.1-0.2s-0.4-0.4-0.4-0.8v-1.3c0-0.2,0-0.4,0.1-0.6s0.2-0.3,0.3-0.3
		s0.3-0.1,0.4-0.2s0.4,0,0.5,0h5.3v-24.6h3.5v28.1H514.7z"/>
	<path class="st2" d="M530.2,455.6h3.5v28.1h-3.5V455.6z"/>
</g>
<path class="st1" d="M838.1,672.6H603.1v0c0-37.1,30-67.1,67.1-67.1h231.7v3.4C901.9,644.1,873.3,672.6,838.1,672.6z"/>
<g>
	<path class="st2" d="M679.9,646.2c0,0.5,0,1,0.1,1.3s0.2,0.6,0.4,0.8s0.5,0.4,0.8,0.4s0.8,0.1,1.3,0.1h1.4c0.5,0,0.8,0.1,1.1,0.2
		s0.4,0.4,0.4,0.8v1.3c0,0.2,0,0.4-0.1,0.6s-0.2,0.3-0.3,0.3s-0.3,0.1-0.4,0.2s-0.4,0-0.5,0h-2.2c-0.9,0-1.6-0.1-2.2-0.2
		c-0.6-0.2-1.1-0.4-1.5-0.6s-0.7-0.6-0.9-0.9s-0.4-0.7-0.5-1.1c-1,0.6-1.9,1-2.8,1.2s-1.8,0.4-2.7,0.4c-0.8,0-1.6-0.1-2.4-0.3
		s-1.5-0.6-2.2-1s-1.2-1.1-1.6-1.8s-0.6-1.6-0.6-2.7c0-1,0.2-1.9,0.6-2.6s0.9-1.5,1.6-2.1s1.4-1.1,2.3-1.6s1.7-0.9,2.6-1.2
		s1.8-0.6,2.6-0.9s1.6-0.5,2.3-0.7v-2.1h3.5V646.2z M676.4,639.3c-1.3,0.2-2.5,0.5-3.6,0.9s-2,0.7-2.8,1.2s-1.4,1-1.8,1.5
		s-0.6,1.2-0.6,1.9c0,0.6,0.1,1.1,0.4,1.4s0.6,0.7,0.9,0.9s0.8,0.4,1.3,0.5s1,0.2,1.5,0.2c0.9,0,1.8-0.1,2.5-0.4s1.5-0.6,2.1-1
		V639.3z M670.1,629.4c0-0.3,0.1-0.6,0.2-0.8s0.3-0.5,0.4-0.7s0.4-0.3,0.7-0.4s0.5-0.2,0.8-0.2s0.6,0.1,0.8,0.2s0.5,0.3,0.7,0.4
		s0.3,0.4,0.4,0.7s0.2,0.5,0.2,0.8s-0.1,0.6-0.2,0.8s-0.3,0.5-0.4,0.7s-0.4,0.3-0.7,0.4s-0.5,0.2-0.8,0.2c-0.6,0-1.1-0.2-1.5-0.6
		S670.1,630,670.1,629.4z M675.7,629.4c0-0.3,0.1-0.6,0.2-0.8s0.3-0.5,0.4-0.7s0.4-0.3,0.7-0.4s0.5-0.2,0.8-0.2s0.6,0.1,0.8,0.2
		s0.5,0.3,0.7,0.4s0.3,0.4,0.4,0.7s0.2,0.5,0.2,0.8s-0.1,0.6-0.2,0.8s-0.3,0.5-0.4,0.7s-0.4,0.3-0.7,0.4s-0.5,0.2-0.8,0.2
		c-0.6,0-1.1-0.2-1.5-0.6S675.7,630,675.7,629.4z"/>
	<path class="st2" d="M692.7,647.7c0.6,0.4,1.3,0.7,2.1,0.9s1.8,0.3,2.9,0.3h0.2c0.5,0,0.8,0.1,1.1,0.2s0.4,0.4,0.4,0.8v1.3
		c0,0.2,0,0.4-0.1,0.6s-0.2,0.3-0.3,0.3s-0.3,0.1-0.4,0.2s-0.4,0-0.5,0h-0.2c-1.4,0-2.5-0.2-3.4-0.5s-1.7-0.8-2.3-1.3
		c-0.3,0.5-0.8,1-1.3,1.3s-1.2,0.5-2.1,0.5h-4.7c-0.5,0-0.8-0.1-1.1-0.2s-0.4-0.4-0.4-0.8v-1.3c0-0.2,0-0.4,0.1-0.6s0.2-0.3,0.3-0.3
		s0.3-0.1,0.4-0.2s0.4,0,0.5,0h3.9c0.4,0,0.7-0.2,1-0.5s0.4-0.9,0.4-1.7v-9.4h3.5V647.7z M685.9,658.3c0-0.3,0.1-0.6,0.2-0.8
		s0.3-0.5,0.4-0.7s0.4-0.3,0.7-0.4s0.5-0.2,0.8-0.2s0.6,0.1,0.8,0.2s0.5,0.3,0.7,0.4s0.3,0.4,0.4,0.7s0.2,0.5,0.2,0.8
		s-0.1,0.6-0.2,0.8s-0.3,0.5-0.4,0.7s-0.4,0.3-0.7,0.4s-0.5,0.2-0.8,0.2c-0.6,0-1.1-0.2-1.5-0.6S685.9,658.9,685.9,658.3z
		 M691.4,658.3c0-0.3,0.1-0.6,0.2-0.8s0.3-0.5,0.4-0.7s0.4-0.3,0.7-0.4s0.5-0.2,0.8-0.2s0.6,0.1,0.8,0.2s0.5,0.3,0.7,0.4
		s0.3,0.4,0.4,0.7s0.2,0.5,0.2,0.8s-0.1,0.6-0.2,0.8s-0.3,0.5-0.4,0.7s-0.4,0.3-0.7,0.4s-0.5,0.2-0.8,0.2c-0.6,0-1.1-0.2-1.5-0.6
		S691.4,658.9,691.4,658.3z"/>
	<path class="st2" d="M702.8,644.6c0-1.1,0.2-2.2,0.6-3.1c0.4-1,1-1.8,1.7-2.5c0.7-0.7,1.6-1.3,2.5-1.7c1-0.4,2-0.6,3.2-0.6
		c1.1,0,2.1,0.2,3,0.5c0.9,0.4,1.6,0.9,2.3,1.5c0.6,0.7,1.1,1.5,1.4,2.5c0.3,1,0.5,2.1,0.5,3.3v8h-20.2c-0.5,0-0.8-0.1-1.1-0.2
		s-0.4-0.4-0.4-0.8v-1.3c0-0.2,0-0.4,0.1-0.6s0.2-0.3,0.3-0.3s0.3-0.1,0.4-0.2s0.4,0,0.5,0h6.3v-0.1c-0.2-0.2-0.3-0.4-0.5-0.7
		s-0.3-0.6-0.4-1s-0.2-0.8-0.3-1.2S702.8,645.1,702.8,644.6z M705.4,630.4c0-0.3,0.1-0.6,0.2-0.8s0.3-0.5,0.4-0.7s0.4-0.3,0.7-0.4
		s0.5-0.2,0.8-0.2s0.6,0.1,0.8,0.2s0.5,0.3,0.7,0.4s0.3,0.4,0.4,0.7s0.2,0.5,0.2,0.8s-0.1,0.6-0.2,0.8s-0.3,0.5-0.4,0.7
		s-0.4,0.3-0.7,0.4s-0.5,0.2-0.8,0.2c-0.6,0-1.1-0.2-1.5-0.6S705.4,630.9,705.4,630.4z M714.5,649v-3.7c0-1-0.1-1.8-0.3-2.5
		s-0.5-1.2-0.9-1.6s-0.8-0.7-1.3-0.9s-1-0.3-1.6-0.3c-0.6,0-1.2,0.1-1.7,0.3s-1,0.5-1.4,0.9s-0.7,0.9-0.9,1.4s-0.3,1.2-0.3,1.8
		s0.1,1.3,0.4,1.8s0.6,1,1,1.4s1,0.7,1.6,0.9s1.4,0.3,2.2,0.3H714.5z M710.9,630.4c0-0.3,0.1-0.6,0.2-0.8s0.3-0.5,0.4-0.7
		s0.4-0.3,0.7-0.4s0.5-0.2,0.8-0.2s0.6,0.1,0.8,0.2s0.5,0.3,0.7,0.4s0.3,0.4,0.4,0.7s0.2,0.5,0.2,0.8s-0.1,0.6-0.2,0.8
		s-0.3,0.5-0.4,0.7s-0.4,0.3-0.7,0.4s-0.5,0.2-0.8,0.2c-0.6,0-1.1-0.2-1.5-0.6S710.9,630.9,710.9,630.4z"/>
	<path class="st2" d="M724.5,624.4h3.5v28.1h-3.5V624.4z"/>
	<path class="st2" d="M732.9,652.5V649h6.7c0.9,0,1.7-0.1,2.3-0.2s1.1-0.3,1.4-0.5s0.6-0.5,0.7-0.8s0.2-0.7,0.2-1
		c0-0.7-0.2-1.4-0.6-2.2s-0.9-1.5-1.5-2.3s-1.3-1.5-2-2.2s-1.5-1.4-2.3-2l2.6-2.6c0.9,0.7,1.7,1.6,2.5,2.4s1.6,1.8,2.2,2.7
		s1.2,1.9,1.6,2.9s0.6,2,0.6,2.9c0,0.5,0,0.9-0.1,1.3c0.6,0.5,1.3,0.8,2.2,1s1.8,0.3,3,0.3h0.2c0.5,0,0.8,0.1,1.1,0.2
		s0.4,0.4,0.4,0.8v1.3c0,0.2,0,0.4-0.1,0.6s-0.2,0.3-0.3,0.3s-0.3,0.1-0.4,0.2s-0.4,0-0.5,0h-0.2c-0.8,0-1.5-0.1-2.1-0.2
		s-1.2-0.3-1.7-0.5s-0.9-0.5-1.3-0.7s-0.8-0.6-1.1-0.9c-0.6,0.7-1.4,1.3-2.4,1.7s-2.3,0.6-3.8,0.6H732.9z"/>
	<path class="st2" d="M761.3,647.6c0.7,0.5,1.5,0.9,2.3,1.1s1.8,0.3,2.9,0.3c0.2-0.8,0.6-1.6,1-2.6c0.4-0.9,0.9-1.9,1.5-2.9
		c0.6-1,1.3-1.9,2-2.8s1.6-1.7,2.5-2.4s1.9-1.3,3-1.7c1.1-0.4,2.2-0.6,3.5-0.6c1.5,0,2.8,0.2,3.8,0.7c1.1,0.5,1.9,1.2,2.6,2.1
		c0.7,0.9,1.2,1.9,1.5,3.1s0.5,2.4,0.5,3.8v3.3h4c0.5,0,0.8,0.1,1.1,0.2s0.4,0.4,0.4,0.8v1.3c0,0.2,0,0.4-0.1,0.6s-0.2,0.3-0.3,0.3
		s-0.3,0.1-0.4,0.2s-0.4,0-0.5,0h-26c-0.5,0-1.1,0-1.6-0.1s-1-0.2-1.6-0.3s-1-0.4-1.5-0.6s-0.9-0.5-1.3-0.9c-0.3,0.5-0.8,1-1.3,1.4
		s-1.3,0.6-2.1,0.6h-4.6c-0.5,0-0.8-0.1-1.1-0.2s-0.4-0.4-0.4-0.8v-1.3c0-0.2,0-0.4,0.1-0.6s0.2-0.3,0.3-0.3s0.3-0.1,0.4-0.2
		s0.4,0,0.5,0h3.9c0.4,0,0.7-0.2,1-0.5s0.4-0.9,0.4-1.7v-5.6h3.5V647.6z M784.9,646c0-1.3-0.1-2.3-0.4-3.2s-0.7-1.5-1.1-2
		s-1-0.9-1.7-1.1s-1.3-0.3-2.1-0.3c-0.8,0-1.6,0.1-2.3,0.4s-1.4,0.7-2.1,1.1s-1.3,1-1.8,1.7s-1.1,1.3-1.5,2s-0.8,1.4-1.2,2.2
		s-0.6,1.5-0.8,2.1h15V646z"/>
	<path class="st2" d="M798.5,649.8c-0.3,0.5-0.6,0.9-0.9,1.3s-0.6,0.6-1,0.8s-0.8,0.4-1.2,0.4s-0.9,0.1-1.4,0.1h-1.5
		c-0.5,0-0.8-0.1-1.1-0.2s-0.4-0.4-0.4-0.8v-1.3c0-0.2,0-0.4,0.1-0.6s0.2-0.3,0.3-0.3s0.3-0.1,0.4-0.2s0.4,0,0.5,0h0.9
		c0.8,0,1.5-0.2,2.2-0.6s1.1-1,1.3-1.8c0.4-1.4,0.8-2.6,1.3-3.6s1-1.9,1.5-2.6s1-1.3,1.6-1.7s1.1-0.8,1.6-1s1-0.4,1.5-0.5
		s0.9-0.1,1.3-0.1c0.9,0,1.7,0.1,2.4,0.4s1.4,0.6,1.9,1s1,0.9,1.5,1.5s0.8,1.1,1,1.7s0.5,1.2,0.6,1.8s0.2,1.2,0.2,1.8
		c0,0.7-0.1,1.5-0.4,2.3c0.6,0.5,1.3,0.8,2.2,1s1.8,0.3,3,0.3h0.2c0.5,0,0.8,0.1,1.1,0.2s0.4,0.4,0.4,0.8v1.3c0,0.2,0,0.4-0.1,0.6
		s-0.2,0.3-0.3,0.3s-0.3,0.1-0.4,0.2s-0.4,0-0.5,0h-0.2c-0.8,0-1.5-0.1-2.2-0.2s-1.2-0.3-1.7-0.5s-1-0.5-1.4-0.8s-0.8-0.6-1.1-1
		c-0.6,0.8-1.4,1.4-2.4,1.9s-2.1,0.8-3.5,0.8c-0.8,0-1.6-0.1-2.4-0.3s-1.4-0.4-2-0.7s-1.1-0.6-1.6-0.9S798.8,650.1,798.5,649.8z
		 M810,645.7c0-0.5-0.1-1-0.3-1.6s-0.4-1.2-0.8-1.7s-0.8-1-1.4-1.4s-1.3-0.6-2.1-0.6c-0.8,0-1.4,0.2-2.1,0.6s-1.2,0.9-1.7,1.6
		s-0.9,1.4-1.2,2.3s-0.6,1.7-0.7,2.6c0.1,0.2,0.4,0.4,0.8,0.6s0.8,0.4,1.3,0.5s1,0.3,1.6,0.4s1.1,0.2,1.6,0.2c0.7,0,1.4-0.1,2-0.2
		s1.1-0.3,1.6-0.5s0.8-0.6,1-1S810,646.4,810,645.7z"/>
	<path class="st2" d="M818.1,652.5c-0.5,0-0.8-0.1-1.1-0.2s-0.4-0.4-0.4-0.8v-1.3c0-0.2,0-0.4,0.1-0.6s0.2-0.3,0.3-0.3
		s0.3-0.1,0.4-0.2s0.4,0,0.5,0h5.3v-24.6h3.5v28.1H818.1z"/>
	<path class="st2" d="M833.5,624.4h3.5v28.1h-3.5V624.4z"/>
</g>
<path class="st1" d="M306.5,686H71.5v0c0-37.1,30-67.1,67.1-67.1h231.7v3.4C370.3,657.5,341.7,686,306.5,686z"/>
<g>
	<path class="st2" d="M197.3,659.6c0,0.5,0,1,0.1,1.3s0.2,0.6,0.4,0.8c0.2,0.2,0.5,0.4,0.8,0.4c0.3,0.1,0.8,0.1,1.3,0.1h1.4
		c0.5,0,0.8,0.1,1.1,0.2s0.4,0.4,0.4,0.8v1.3c0,0.2,0,0.4-0.1,0.6c-0.1,0.1-0.2,0.3-0.3,0.3c-0.1,0.1-0.3,0.1-0.4,0.2
		c-0.2,0-0.4,0-0.5,0H199c-0.9,0-1.6-0.1-2.2-0.2c-0.6-0.2-1.1-0.4-1.5-0.6s-0.7-0.6-0.9-0.9c-0.2-0.4-0.4-0.7-0.5-1.1
		c-1,0.6-1.9,1-2.8,1.2c-0.9,0.2-1.8,0.4-2.7,0.4c-0.8,0-1.6-0.1-2.4-0.3c-0.8-0.2-1.5-0.6-2.2-1s-1.2-1.1-1.6-1.8s-0.6-1.6-0.6-2.7
		c0-1,0.2-1.9,0.6-2.6c0.4-0.8,0.9-1.5,1.6-2.1c0.7-0.6,1.4-1.1,2.3-1.6c0.8-0.5,1.7-0.9,2.6-1.2c0.9-0.3,1.8-0.6,2.6-0.9
		s1.6-0.5,2.3-0.7v-2.1h3.5V659.6z M193.7,652.8c-1.3,0.2-2.5,0.5-3.6,0.9c-1.1,0.3-2,0.7-2.8,1.2c-0.8,0.4-1.4,1-1.8,1.5
		c-0.4,0.6-0.6,1.2-0.6,1.9c0,0.6,0.1,1.1,0.4,1.4c0.2,0.4,0.6,0.7,0.9,0.9s0.8,0.4,1.3,0.5c0.5,0.1,1,0.2,1.5,0.2
		c0.9,0,1.8-0.1,2.5-0.4c0.8-0.2,1.5-0.6,2.1-1V652.8z M187.5,642.8c0-0.3,0.1-0.6,0.2-0.8c0.1-0.3,0.3-0.5,0.4-0.7
		c0.2-0.2,0.4-0.3,0.7-0.4s0.5-0.2,0.8-0.2c0.3,0,0.6,0.1,0.8,0.2s0.5,0.3,0.7,0.4c0.2,0.2,0.3,0.4,0.4,0.7c0.1,0.3,0.2,0.5,0.2,0.8
		s-0.1,0.6-0.2,0.8c-0.1,0.3-0.3,0.5-0.4,0.7c-0.2,0.2-0.4,0.3-0.7,0.4s-0.5,0.2-0.8,0.2c-0.6,0-1.1-0.2-1.5-0.6
		C187.7,643.9,187.5,643.4,187.5,642.8z M193,642.8c0-0.3,0.1-0.6,0.2-0.8c0.1-0.3,0.3-0.5,0.4-0.7c0.2-0.2,0.4-0.3,0.7-0.4
		s0.5-0.2,0.8-0.2c0.3,0,0.6,0.1,0.8,0.2s0.5,0.3,0.7,0.4c0.2,0.2,0.3,0.4,0.4,0.7c0.1,0.3,0.2,0.5,0.2,0.8s-0.1,0.6-0.2,0.8
		c-0.1,0.3-0.3,0.5-0.4,0.7c-0.2,0.2-0.4,0.3-0.7,0.4s-0.5,0.2-0.8,0.2c-0.6,0-1.1-0.2-1.5-0.6C193.2,643.9,193,643.4,193,642.8z"/>
	<path class="st2" d="M221.5,665.9c-1.5,0-2.9-0.1-4.2-0.2c-1.3-0.1-2.4-0.3-3.5-0.5c-0.7,0.1-1.5,0.2-2.4,0.3s-1.7,0.1-2.7,0.2
		c-0.9,0.1-1.8,0.1-2.8,0.1c-0.9,0-1.9,0-2.8,0h-2c-0.5,0-0.8-0.1-1.1-0.2s-0.4-0.4-0.4-0.8v-1.3c0-0.2,0-0.4,0.1-0.6
		c0.1-0.1,0.2-0.3,0.3-0.3c0.1-0.1,0.3-0.1,0.4-0.2c0.2,0,0.4,0,0.5,0h5.4l0-0.1c-0.4-0.3-0.7-0.6-0.9-1c-0.2-0.4-0.5-0.8-0.6-1.2
		c-0.2-0.4-0.3-0.8-0.4-1.2s-0.1-0.8-0.1-1.1c0-1,0.2-2,0.6-2.9s0.9-1.7,1.7-2.5s1.6-1.3,2.6-1.7c1-0.4,2.2-0.6,3.5-0.6
		c1.1,0,2.1,0.2,3,0.5c0.9,0.4,1.6,0.9,2.2,1.5c0.6,0.6,1,1.4,1.3,2.2c0.3,0.8,0.4,1.7,0.4,2.7c0,0.6,0,1.1-0.1,1.7s-0.2,1-0.4,1.5
		c-0.1,0.5-0.3,0.9-0.5,1.3c-0.2,0.4-0.3,0.7-0.4,1h5c0.5,0,0.8,0.1,1.1,0.2s0.4,0.4,0.4,0.8v1.3c0,0.2,0,0.4-0.1,0.6
		c-0.1,0.1-0.2,0.3-0.3,0.3c-0.1,0.1-0.3,0.1-0.4,0.2c-0.2,0-0.4,0-0.5,0H221.5z M207.3,643.8c0-0.3,0.1-0.6,0.2-0.8
		c0.1-0.3,0.3-0.5,0.4-0.7c0.2-0.2,0.4-0.3,0.7-0.4s0.5-0.2,0.8-0.2c0.3,0,0.6,0.1,0.8,0.2s0.5,0.3,0.7,0.4c0.2,0.2,0.3,0.4,0.4,0.7
		c0.1,0.3,0.2,0.5,0.2,0.8s-0.1,0.6-0.2,0.8c-0.1,0.3-0.3,0.5-0.4,0.7c-0.2,0.2-0.4,0.3-0.7,0.4s-0.5,0.2-0.8,0.2
		c-0.6,0-1.1-0.2-1.5-0.6C207.5,644.8,207.3,644.4,207.3,643.8z M207.9,657.3c0,0.8,0.1,1.5,0.4,2.1c0.3,0.6,0.7,1.1,1.2,1.6
		c0.5,0.4,1.1,0.8,1.8,1c0.7,0.2,1.4,0.4,2.2,0.4h1.2c0.2-0.2,0.3-0.5,0.5-0.8c0.2-0.3,0.3-0.7,0.5-1.1c0.1-0.4,0.3-0.9,0.4-1.3
		c0.1-0.5,0.2-1,0.2-1.5c0-0.7-0.1-1.3-0.3-1.9c-0.2-0.5-0.5-1-0.9-1.4c-0.4-0.4-0.8-0.7-1.3-0.8c-0.5-0.2-1-0.3-1.5-0.3
		c-0.5,0-1.1,0.1-1.6,0.2s-1,0.4-1.4,0.7c-0.4,0.3-0.8,0.8-1,1.3C208,656,207.9,656.6,207.9,657.3z M212.9,643.8
		c0-0.3,0.1-0.6,0.2-0.8c0.1-0.3,0.3-0.5,0.4-0.7c0.2-0.2,0.4-0.3,0.7-0.4s0.5-0.2,0.8-0.2c0.3,0,0.6,0.1,0.8,0.2s0.5,0.3,0.7,0.4
		c0.2,0.2,0.3,0.4,0.4,0.7c0.1,0.3,0.2,0.5,0.2,0.8s-0.1,0.6-0.2,0.8c-0.1,0.3-0.3,0.5-0.4,0.7c-0.2,0.2-0.4,0.3-0.7,0.4
		s-0.5,0.2-0.8,0.2c-0.6,0-1.1-0.2-1.5-0.6C213.1,644.8,212.9,644.4,212.9,643.8z"/>
	<path class="st2" d="M232.4,661.2c0.6,0.4,1.3,0.7,2.1,0.9s1.8,0.3,2.9,0.3h0.2c0.5,0,0.8,0.1,1.1,0.2s0.4,0.4,0.4,0.8v1.3
		c0,0.2,0,0.4-0.1,0.6c-0.1,0.1-0.2,0.3-0.3,0.3c-0.1,0.1-0.3,0.1-0.4,0.2c-0.2,0-0.4,0-0.5,0h-0.2c-1.4,0-2.5-0.2-3.4-0.5
		s-1.7-0.8-2.3-1.3c-0.3,0.5-0.8,1-1.3,1.3s-1.2,0.5-2.1,0.5h-4.7c-0.5,0-0.8-0.1-1.1-0.2s-0.4-0.4-0.4-0.8v-1.3
		c0-0.2,0-0.4,0.1-0.6c0.1-0.1,0.2-0.3,0.3-0.3c0.1-0.1,0.3-0.1,0.4-0.2c0.2,0,0.4,0,0.5,0h3.9c0.4,0,0.7-0.2,1-0.5
		c0.2-0.4,0.4-0.9,0.4-1.7v-9.4h3.5V661.2z M225.6,643.8c0-0.3,0.1-0.6,0.2-0.8c0.1-0.3,0.3-0.5,0.4-0.7c0.2-0.2,0.4-0.3,0.7-0.4
		s0.5-0.2,0.8-0.2c0.3,0,0.6,0.1,0.8,0.2s0.5,0.3,0.7,0.4c0.2,0.2,0.3,0.4,0.4,0.7c0.1,0.3,0.2,0.5,0.2,0.8s-0.1,0.6-0.2,0.8
		c-0.1,0.3-0.3,0.5-0.4,0.7c-0.2,0.2-0.4,0.3-0.7,0.4s-0.5,0.2-0.8,0.2c-0.6,0-1.1-0.2-1.5-0.6C225.7,644.8,225.6,644.4,225.6,643.8
		z M228.3,638.5c0-0.3,0.1-0.6,0.2-0.8c0.1-0.3,0.3-0.5,0.4-0.7c0.2-0.2,0.4-0.3,0.7-0.4s0.5-0.2,0.8-0.2c0.3,0,0.6,0.1,0.8,0.2
		s0.5,0.3,0.7,0.4c0.2,0.2,0.3,0.4,0.4,0.7c0.1,0.3,0.2,0.5,0.2,0.8s-0.1,0.6-0.2,0.8c-0.1,0.3-0.3,0.5-0.4,0.7
		c-0.2,0.2-0.4,0.3-0.7,0.4s-0.5,0.2-0.8,0.2c-0.6,0-1.1-0.2-1.5-0.6C228.5,639.6,228.3,639.1,228.3,638.5z M231.1,643.8
		c0-0.3,0.1-0.6,0.2-0.8c0.1-0.3,0.3-0.5,0.4-0.7c0.2-0.2,0.4-0.3,0.7-0.4s0.5-0.2,0.8-0.2c0.3,0,0.6,0.1,0.8,0.2s0.5,0.3,0.7,0.4
		c0.2,0.2,0.3,0.4,0.4,0.7c0.1,0.3,0.2,0.5,0.2,0.8s-0.1,0.6-0.2,0.8c-0.1,0.3-0.3,0.5-0.4,0.7c-0.2,0.2-0.4,0.3-0.7,0.4
		s-0.5,0.2-0.8,0.2c-0.6,0-1.1-0.2-1.5-0.6C231.3,644.8,231.1,644.4,231.1,643.8z"/>
	<path class="st2" d="M237.5,665.9c-0.5,0-0.8-0.1-1.1-0.2s-0.4-0.4-0.4-0.8v-1.3c0-0.2,0-0.4,0.1-0.6c0.1-0.1,0.2-0.3,0.3-0.3
		c0.1-0.1,0.3-0.1,0.4-0.2c0.2,0,0.4,0,0.5,0h5.3v-24.6h3.5v28.1H237.5z"/>
	<path class="st2" d="M253,637.8h3.5v28.1H253V637.8z"/>
</g>
</svg>
